G04 #@! TF.FileFunction,Copper,L1,Top,Signal*
%FSLAX46Y46*%
G04 Gerber Fmt 4.6, Leading zero omitted, Abs format (unit mm)*
G04 Created by KiCad (PCBNEW 4.0.6) date 05/18/17 21:56:45*
%MOMM*%
%LPD*%
G01*
G04 APERTURE LIST*
%ADD10C,0.100000*%
%ADD11R,1.700000X1.700000*%
%ADD12O,1.700000X1.700000*%
%ADD13R,1.600000X1.600000*%
%ADD14O,1.600000X1.600000*%
%ADD15C,1.600000*%
%ADD16C,1.500000*%
%ADD17O,1.727200X1.727200*%
%ADD18R,1.727200X1.727200*%
%ADD19R,1.250000X1.500000*%
%ADD20R,1.300000X1.500000*%
%ADD21R,1.800000X1.800000*%
%ADD22C,1.800000*%
%ADD23R,1.500000X1.300000*%
%ADD24C,0.600000*%
%ADD25C,0.250000*%
%ADD26C,0.500000*%
%ADD27C,0.750000*%
G04 APERTURE END LIST*
D10*
D11*
X131000000Y-86200000D03*
D12*
X131000000Y-88740000D03*
X128460000Y-86200000D03*
X128460000Y-88740000D03*
X125920000Y-86200000D03*
X125920000Y-88740000D03*
D11*
X105520000Y-70800000D03*
D12*
X105520000Y-68260000D03*
X108060000Y-70800000D03*
X108060000Y-68260000D03*
X110600000Y-70800000D03*
X110600000Y-68260000D03*
X113140000Y-70800000D03*
X113140000Y-68260000D03*
X115680000Y-70800000D03*
X115680000Y-68260000D03*
X118220000Y-70800000D03*
X118220000Y-68260000D03*
X120760000Y-70800000D03*
X120760000Y-68260000D03*
X123300000Y-70800000D03*
X123300000Y-68260000D03*
X125840000Y-70800000D03*
X125840000Y-68260000D03*
X128380000Y-70800000D03*
X128380000Y-68260000D03*
X130920000Y-70800000D03*
X130920000Y-68260000D03*
X133460000Y-70800000D03*
X133460000Y-68260000D03*
X136000000Y-70800000D03*
X136000000Y-68260000D03*
D13*
X102980000Y-82296000D03*
D14*
X136000000Y-74676000D03*
X105520000Y-82296000D03*
X133460000Y-74676000D03*
X108060000Y-82296000D03*
X130920000Y-74676000D03*
X110600000Y-82296000D03*
X128380000Y-74676000D03*
X113140000Y-82296000D03*
X125840000Y-74676000D03*
X115680000Y-82296000D03*
X123300000Y-74676000D03*
X118220000Y-82296000D03*
X120760000Y-74676000D03*
X120760000Y-82296000D03*
X118220000Y-74676000D03*
X123300000Y-82296000D03*
X115680000Y-74676000D03*
X125840000Y-82296000D03*
X113140000Y-74676000D03*
X128380000Y-82296000D03*
X110600000Y-74676000D03*
X130920000Y-82296000D03*
X108060000Y-74676000D03*
X133460000Y-82296000D03*
X105520000Y-74676000D03*
X136000000Y-82296000D03*
X102980000Y-74676000D03*
D13*
X134700000Y-87700000D03*
D15*
X136700000Y-87700000D03*
D16*
X116100000Y-87400000D03*
X121100000Y-87400000D03*
D17*
X147840000Y-88740000D03*
X147840000Y-86200000D03*
X145300000Y-88740000D03*
X145300000Y-86200000D03*
X142760000Y-88740000D03*
X142760000Y-86200000D03*
D18*
X140220000Y-88740000D03*
D17*
X140220000Y-86200000D03*
D19*
X105400000Y-77300000D03*
X105400000Y-79800000D03*
X127600000Y-79700000D03*
X127600000Y-77200000D03*
X125300000Y-79700000D03*
X125300000Y-77200000D03*
X120700000Y-77200000D03*
X120700000Y-79700000D03*
X118200000Y-79700000D03*
X118200000Y-77200000D03*
D20*
X103200000Y-77250000D03*
X103200000Y-79950000D03*
D21*
X111700000Y-88500000D03*
D22*
X109160000Y-88500000D03*
D23*
X111900000Y-85300000D03*
X109200000Y-85300000D03*
D11*
X106200000Y-85960000D03*
D12*
X106200000Y-88500000D03*
D24*
X122300000Y-79200001D03*
X141000000Y-83000000D03*
X137900000Y-83000000D03*
X146549990Y-84049990D03*
X115600000Y-79200000D03*
D25*
X142760000Y-86200000D02*
X142760000Y-79770998D01*
X142760000Y-79770998D02*
X136540001Y-73550999D01*
X136540001Y-73550999D02*
X134585001Y-73550999D01*
X134585001Y-73550999D02*
X134259999Y-73876001D01*
X134259999Y-73876001D02*
X133460000Y-74676000D01*
X118220000Y-74676000D02*
X118220000Y-77180000D01*
X118220000Y-77180000D02*
X118200000Y-77200000D01*
D26*
X122300000Y-79200001D02*
X122300000Y-80756000D01*
X122300000Y-80756000D02*
X120760000Y-82296000D01*
D27*
X117200000Y-85800000D02*
X114400000Y-85800000D01*
X114400000Y-85800000D02*
X111700000Y-88500000D01*
X119904001Y-83095999D02*
X117200000Y-85800000D01*
X120760000Y-82296000D02*
X119960001Y-83095999D01*
X119960001Y-83095999D02*
X119904001Y-83095999D01*
D25*
X127600000Y-77200000D02*
X125300000Y-77200000D01*
X129700000Y-78425000D02*
X129700000Y-83800000D01*
X129700000Y-83800000D02*
X131000000Y-85100000D01*
X131000000Y-85100000D02*
X131000000Y-86200000D01*
X127600000Y-77200000D02*
X128475000Y-77200000D01*
X128475000Y-77200000D02*
X129700000Y-78425000D01*
X120700000Y-79700000D02*
X120700000Y-82236000D01*
X120700000Y-82236000D02*
X120760000Y-82296000D01*
X118200000Y-74696000D02*
X118220000Y-74676000D01*
X120800000Y-82256000D02*
X120760000Y-82296000D01*
D27*
X140220000Y-86200000D02*
X136200000Y-86200000D01*
X136200000Y-86200000D02*
X134700000Y-87700000D01*
D25*
X142760000Y-88740000D02*
X141408601Y-87388601D01*
X141408601Y-87388601D02*
X141408601Y-84891399D01*
X141408601Y-84891399D02*
X142309990Y-83990010D01*
X136024000Y-74700000D02*
X136000000Y-74676000D01*
X142309990Y-83990010D02*
X142309990Y-79957398D01*
X142309990Y-79957398D02*
X137052592Y-74700000D01*
X137052592Y-74700000D02*
X136024000Y-74700000D01*
X113140000Y-68260000D02*
X114315001Y-67084999D01*
X114315001Y-67084999D02*
X131484001Y-67084999D01*
X131484001Y-67084999D02*
X132284999Y-67885997D01*
X132284999Y-67885997D02*
X132284999Y-69624999D01*
X132284999Y-69624999D02*
X132610001Y-69950001D01*
X132610001Y-69950001D02*
X133460000Y-70800000D01*
D26*
X118200000Y-79700000D02*
X118200000Y-82276000D01*
X118200000Y-82276000D02*
X118220000Y-82296000D01*
X118200000Y-79700000D02*
X118200000Y-79575000D01*
X118200000Y-79575000D02*
X119374999Y-78400001D01*
X121685001Y-78400001D02*
X123300000Y-76785002D01*
X119374999Y-78400001D02*
X121685001Y-78400001D01*
X123300000Y-76785002D02*
X123300000Y-75807370D01*
X123300000Y-75807370D02*
X123300000Y-74676000D01*
D25*
X118220000Y-79720000D02*
X118200000Y-79700000D01*
X103200000Y-77250000D02*
X102300000Y-77250000D01*
X102300000Y-77250000D02*
X101600000Y-77950000D01*
X101600000Y-77950000D02*
X101600000Y-85400000D01*
X101600000Y-85400000D02*
X102160000Y-85960000D01*
X102160000Y-85960000D02*
X106200000Y-85960000D01*
X120700000Y-77200000D02*
X120700000Y-74736000D01*
X120700000Y-74736000D02*
X120760000Y-74676000D01*
X120800000Y-74716000D02*
X120760000Y-74676000D01*
X125300000Y-79700000D02*
X125300000Y-80296000D01*
X125300000Y-80296000D02*
X124099999Y-81496001D01*
X124099999Y-81496001D02*
X123300000Y-82296000D01*
X116100000Y-87400000D02*
X118196000Y-87400000D01*
X118196000Y-87400000D02*
X123300000Y-82296000D01*
X127600000Y-79700000D02*
X127600000Y-80536000D01*
X127600000Y-80536000D02*
X126639999Y-81496001D01*
X126639999Y-81496001D02*
X125840000Y-82296000D01*
X125800000Y-82256000D02*
X125840000Y-82296000D01*
X121100000Y-87400000D02*
X125840000Y-82660000D01*
X125840000Y-82660000D02*
X125840000Y-82296000D01*
X141000000Y-83000000D02*
X140575736Y-83000000D01*
X140575736Y-83000000D02*
X137900000Y-83000000D01*
X110600000Y-82296000D02*
X114554999Y-78341001D01*
X114554999Y-78341001D02*
X114554999Y-73664003D01*
X114554999Y-73664003D02*
X117044999Y-71174003D01*
X117044999Y-71174003D02*
X117044999Y-70235999D01*
X117044999Y-70235999D02*
X117845997Y-69435001D01*
X119584999Y-69435001D02*
X119910001Y-69109999D01*
X117845997Y-69435001D02*
X119584999Y-69435001D01*
X119910001Y-69109999D02*
X120760000Y-68260000D01*
X106800000Y-73963590D02*
X106800000Y-81036000D01*
X106800000Y-81036000D02*
X108060000Y-82296000D01*
X109300000Y-69500000D02*
X109300000Y-71463590D01*
X109300000Y-71463590D02*
X106800000Y-73963590D01*
X108060000Y-68260000D02*
X109300000Y-69500000D01*
X104000000Y-73000000D02*
X104000000Y-69780000D01*
X104000000Y-69780000D02*
X105520000Y-68260000D01*
X104300000Y-73300000D02*
X104000000Y-73000000D01*
X104300000Y-75200000D02*
X104300000Y-73300000D01*
X105400000Y-77300000D02*
X105400000Y-76300000D01*
X105400000Y-76300000D02*
X104300000Y-75200000D01*
X147840000Y-88740000D02*
X146488601Y-87388601D01*
X146488601Y-87388601D02*
X146488601Y-85629471D01*
X130405021Y-72650979D02*
X129179999Y-73876001D01*
X146488601Y-85629471D02*
X145924989Y-85065859D01*
X145924989Y-85065859D02*
X145924989Y-81624989D01*
X145900000Y-81500000D02*
X137050979Y-72650979D01*
X145924989Y-81624989D02*
X145900000Y-81600000D01*
X145900000Y-81600000D02*
X145900000Y-81500000D01*
X137050979Y-72650979D02*
X130405021Y-72650979D01*
X129179999Y-73876001D02*
X128380000Y-74676000D01*
X125920000Y-88740000D02*
X127558611Y-90378611D01*
X127558611Y-90378611D02*
X146201389Y-90378611D01*
X146201389Y-90378611D02*
X146976401Y-89603599D01*
X146976401Y-89603599D02*
X147840000Y-88740000D01*
X146549990Y-84049990D02*
X146549990Y-81513580D01*
X146549990Y-81513580D02*
X137237379Y-72200969D01*
X137237379Y-72200969D02*
X128315031Y-72200969D01*
X128315031Y-72200969D02*
X126639999Y-73876001D01*
X126639999Y-73876001D02*
X125840000Y-74676000D01*
X129648601Y-89928601D02*
X132300000Y-89928601D01*
X132300000Y-89928601D02*
X133900000Y-89928601D01*
X133900000Y-89928601D02*
X144111399Y-89928601D01*
X128460000Y-88740000D02*
X129648601Y-89928601D01*
X144111399Y-89928601D02*
X144436401Y-89603599D01*
X144436401Y-89603599D02*
X145300000Y-88740000D01*
X145300000Y-86200000D02*
X145300000Y-81674588D01*
X145300000Y-81674588D02*
X136726401Y-73100989D01*
X132495011Y-73100989D02*
X131719999Y-73876001D01*
X136726401Y-73100989D02*
X132495011Y-73100989D01*
X131719999Y-73876001D02*
X130920000Y-74676000D01*
X109200000Y-85300000D02*
X109200000Y-88460000D01*
X109200000Y-88460000D02*
X109160000Y-88500000D01*
X109200000Y-85300000D02*
X109300000Y-85300000D01*
X106825002Y-84300000D02*
X103934000Y-84300000D01*
X103934000Y-84300000D02*
X102980000Y-83346000D01*
X102980000Y-83346000D02*
X102980000Y-82296000D01*
X107700000Y-89700000D02*
X107700000Y-85174998D01*
X107700000Y-85174998D02*
X106825002Y-84300000D01*
X108200000Y-90200000D02*
X107700000Y-89700000D01*
X122200000Y-90200000D02*
X108200000Y-90200000D01*
X124835001Y-87564999D02*
X122200000Y-90200000D01*
X131000000Y-88740000D02*
X129824999Y-87564999D01*
X129824999Y-87564999D02*
X124835001Y-87564999D01*
X103200000Y-79950000D02*
X103200000Y-82076000D01*
X103200000Y-82076000D02*
X102980000Y-82296000D01*
X105400000Y-79800000D02*
X103350000Y-79800000D01*
X103350000Y-79800000D02*
X103200000Y-79950000D01*
X123300000Y-68260000D02*
X122124999Y-69435001D01*
X115005009Y-78527401D02*
X113140000Y-80392410D01*
X113140000Y-80392410D02*
X113140000Y-82296000D01*
X122124999Y-69435001D02*
X120221409Y-69435001D01*
X115005009Y-77015993D02*
X115005009Y-78527401D01*
X120221409Y-69435001D02*
X119584999Y-70071411D01*
X119584999Y-70071411D02*
X119584999Y-71174003D01*
X116805001Y-75216001D02*
X115005009Y-77015993D01*
X119584999Y-71174003D02*
X116805001Y-73954001D01*
X116805001Y-73954001D02*
X116805001Y-75216001D01*
X112572800Y-82296000D02*
X112268000Y-82296000D01*
X115600000Y-79200000D02*
X115600000Y-82216000D01*
X115600000Y-82216000D02*
X115680000Y-82296000D01*
X115680000Y-82296000D02*
X112676000Y-85300000D01*
X112676000Y-85300000D02*
X111900000Y-85300000D01*
X115680000Y-74676000D02*
X115680000Y-73340000D01*
X115680000Y-73340000D02*
X118220000Y-70800000D01*
X113140000Y-74676000D02*
X113140000Y-73340000D01*
X113140000Y-73340000D02*
X115680000Y-70800000D01*
X110600000Y-74676000D02*
X110600000Y-73340000D01*
X110600000Y-73340000D02*
X113140000Y-70800000D01*
X108060000Y-74676000D02*
X108060000Y-73340000D01*
X108060000Y-73340000D02*
X110600000Y-70800000D01*
X105520000Y-74676000D02*
X105520000Y-73340000D01*
X105520000Y-73340000D02*
X108060000Y-70800000D01*
D10*
G36*
X138650006Y-72399206D02*
X138653636Y-72418719D01*
X138664572Y-72435283D01*
X138681090Y-72446286D01*
X138699115Y-72449992D01*
X149675000Y-72644255D01*
X149675000Y-90675000D01*
X146419824Y-90675000D01*
X146466554Y-90643776D01*
X147361737Y-89748593D01*
X147392027Y-89768832D01*
X147818183Y-89853600D01*
X147861817Y-89853600D01*
X148287973Y-89768832D01*
X148649251Y-89527434D01*
X148890649Y-89166156D01*
X148975417Y-88740000D01*
X148890649Y-88313844D01*
X148649251Y-87952566D01*
X148287973Y-87711168D01*
X147861817Y-87626400D01*
X147818183Y-87626400D01*
X147392027Y-87711168D01*
X147361737Y-87731407D01*
X146863601Y-87233271D01*
X146863601Y-86737279D01*
X147030749Y-86987434D01*
X147392027Y-87228832D01*
X147818183Y-87313600D01*
X147861817Y-87313600D01*
X148287973Y-87228832D01*
X148649251Y-86987434D01*
X148890649Y-86626156D01*
X148975417Y-86200000D01*
X148890649Y-85773844D01*
X148649251Y-85412566D01*
X148287973Y-85171168D01*
X147861817Y-85086400D01*
X147818183Y-85086400D01*
X147392027Y-85171168D01*
X147030749Y-85412566D01*
X146863601Y-85662721D01*
X146863601Y-85629471D01*
X146835056Y-85485965D01*
X146753766Y-85364306D01*
X146299989Y-84910529D01*
X146299989Y-84541711D01*
X146440108Y-84599894D01*
X146658912Y-84600085D01*
X146861133Y-84516529D01*
X147015985Y-84361947D01*
X147099894Y-84159872D01*
X147100085Y-83941068D01*
X147016529Y-83738847D01*
X146924990Y-83647148D01*
X146924990Y-81513580D01*
X146896445Y-81370074D01*
X146815155Y-81248415D01*
X137502544Y-71935804D01*
X137380886Y-71854514D01*
X137237379Y-71825969D01*
X136438684Y-71825969D01*
X136777817Y-71599367D01*
X137016267Y-71242502D01*
X137100000Y-70821550D01*
X137100000Y-70778450D01*
X137016267Y-70357498D01*
X136777817Y-70000633D01*
X136420952Y-69762183D01*
X136000000Y-69678450D01*
X135579048Y-69762183D01*
X135222183Y-70000633D01*
X134983733Y-70357498D01*
X134900000Y-70778450D01*
X134900000Y-70821550D01*
X134983733Y-71242502D01*
X135222183Y-71599367D01*
X135561316Y-71825969D01*
X133898684Y-71825969D01*
X134237817Y-71599367D01*
X134476267Y-71242502D01*
X134560000Y-70821550D01*
X134560000Y-70778450D01*
X134476267Y-70357498D01*
X134237817Y-70000633D01*
X133880952Y-69762183D01*
X133460000Y-69678450D01*
X133039048Y-69762183D01*
X132987174Y-69796844D01*
X132659999Y-69469669D01*
X132659999Y-67885997D01*
X132631454Y-67742491D01*
X132631454Y-67742490D01*
X132550164Y-67620832D01*
X131749166Y-66819834D01*
X131627508Y-66738544D01*
X131484001Y-66709999D01*
X114315001Y-66709999D01*
X114171495Y-66738544D01*
X114171493Y-66738545D01*
X114171494Y-66738545D01*
X114049836Y-66819834D01*
X113612826Y-67256844D01*
X113560952Y-67222183D01*
X113140000Y-67138450D01*
X112719048Y-67222183D01*
X112362183Y-67460633D01*
X112123733Y-67817498D01*
X112040000Y-68238450D01*
X112040000Y-68281550D01*
X112123733Y-68702502D01*
X112362183Y-69059367D01*
X112719048Y-69297817D01*
X113140000Y-69381550D01*
X113560952Y-69297817D01*
X113917817Y-69059367D01*
X114156267Y-68702502D01*
X114240000Y-68281550D01*
X114240000Y-68238450D01*
X114156267Y-67817498D01*
X114138869Y-67791461D01*
X114470331Y-67459999D01*
X119983132Y-67459999D01*
X119982183Y-67460633D01*
X119743733Y-67817498D01*
X119660000Y-68238450D01*
X119660000Y-68281550D01*
X119743733Y-68702502D01*
X119761131Y-68728539D01*
X119429669Y-69060001D01*
X117845997Y-69060001D01*
X117702490Y-69088546D01*
X117580832Y-69169836D01*
X116779834Y-69970834D01*
X116698544Y-70092492D01*
X116686111Y-70155000D01*
X116669999Y-70235999D01*
X116669999Y-70318185D01*
X116457817Y-70000633D01*
X116100952Y-69762183D01*
X115680000Y-69678450D01*
X115259048Y-69762183D01*
X114902183Y-70000633D01*
X114663733Y-70357498D01*
X114580000Y-70778450D01*
X114580000Y-70821550D01*
X114663733Y-71242502D01*
X114681131Y-71268539D01*
X112874835Y-73074835D01*
X112793545Y-73196493D01*
X112775774Y-73285834D01*
X112765000Y-73340000D01*
X112765000Y-73680021D01*
X112738182Y-73685355D01*
X112397538Y-73912967D01*
X112169926Y-74253611D01*
X112090000Y-74655429D01*
X112090000Y-74696571D01*
X112169926Y-75098389D01*
X112397538Y-75439033D01*
X112738182Y-75666645D01*
X113140000Y-75746571D01*
X113541818Y-75666645D01*
X113882462Y-75439033D01*
X114110074Y-75098389D01*
X114179999Y-74746850D01*
X114179999Y-78185671D01*
X111036884Y-81328786D01*
X111001818Y-81305355D01*
X110600000Y-81225429D01*
X110198182Y-81305355D01*
X109857538Y-81532967D01*
X109629926Y-81873611D01*
X109550000Y-82275429D01*
X109550000Y-82316571D01*
X109629926Y-82718389D01*
X109857538Y-83059033D01*
X110198182Y-83286645D01*
X110600000Y-83366571D01*
X111001818Y-83286645D01*
X111342462Y-83059033D01*
X111570074Y-82718389D01*
X111650000Y-82316571D01*
X111650000Y-82275429D01*
X111570074Y-81873611D01*
X111563123Y-81863207D01*
X112765000Y-80661330D01*
X112765000Y-81300021D01*
X112738182Y-81305355D01*
X112397538Y-81532967D01*
X112169926Y-81873611D01*
X112156071Y-81943264D01*
X112124494Y-81949545D01*
X112002835Y-82030835D01*
X111921545Y-82152494D01*
X111893000Y-82296000D01*
X111921545Y-82439506D01*
X112002835Y-82561165D01*
X112124494Y-82642455D01*
X112156071Y-82648736D01*
X112169926Y-82718389D01*
X112397538Y-83059033D01*
X112738182Y-83286645D01*
X113140000Y-83366571D01*
X113541818Y-83286645D01*
X113882462Y-83059033D01*
X114110074Y-82718389D01*
X114190000Y-82316571D01*
X114190000Y-82275429D01*
X114110074Y-81873611D01*
X113882462Y-81532967D01*
X113541818Y-81305355D01*
X113515000Y-81300021D01*
X113515000Y-80547740D01*
X115105110Y-78957630D01*
X115050096Y-79090118D01*
X115049905Y-79308922D01*
X115133461Y-79511143D01*
X115225000Y-79602842D01*
X115225000Y-81340890D01*
X114937538Y-81532967D01*
X114709926Y-81873611D01*
X114630000Y-82275429D01*
X114630000Y-82316571D01*
X114709926Y-82718389D01*
X114716877Y-82728793D01*
X112887599Y-84558071D01*
X112887465Y-84557356D01*
X112832712Y-84472268D01*
X112749169Y-84415185D01*
X112650000Y-84395103D01*
X111150000Y-84395103D01*
X111057356Y-84412535D01*
X110972268Y-84467288D01*
X110915185Y-84550831D01*
X110895103Y-84650000D01*
X110895103Y-85950000D01*
X110912535Y-86042644D01*
X110967288Y-86127732D01*
X111050831Y-86184815D01*
X111150000Y-86204897D01*
X112650000Y-86204897D01*
X112742644Y-86187465D01*
X112827732Y-86132712D01*
X112884815Y-86049169D01*
X112904897Y-85950000D01*
X112904897Y-85589399D01*
X112941165Y-85565165D01*
X115243116Y-83263214D01*
X115278182Y-83286645D01*
X115680000Y-83366571D01*
X116081818Y-83286645D01*
X116422462Y-83059033D01*
X116650074Y-82718389D01*
X116730000Y-82316571D01*
X116730000Y-82275429D01*
X117170000Y-82275429D01*
X117170000Y-82316571D01*
X117249926Y-82718389D01*
X117477538Y-83059033D01*
X117818182Y-83286645D01*
X118220000Y-83366571D01*
X118621818Y-83286645D01*
X118962462Y-83059033D01*
X119190074Y-82718389D01*
X119270000Y-82316571D01*
X119270000Y-82275429D01*
X119190074Y-81873611D01*
X118962462Y-81532967D01*
X118700000Y-81357595D01*
X118700000Y-80704897D01*
X118825000Y-80704897D01*
X118917644Y-80687465D01*
X119002732Y-80632712D01*
X119059815Y-80549169D01*
X119079897Y-80450000D01*
X119079897Y-79402209D01*
X119582106Y-78900001D01*
X121685001Y-78900001D01*
X121876343Y-78861941D01*
X122038554Y-78753554D01*
X123653553Y-77138556D01*
X123761940Y-76976344D01*
X123776420Y-76903546D01*
X123800000Y-76785002D01*
X123800000Y-75601042D01*
X124042462Y-75439033D01*
X124270074Y-75098389D01*
X124350000Y-74696571D01*
X124350000Y-74655429D01*
X124270074Y-74253611D01*
X124042462Y-73912967D01*
X123701818Y-73685355D01*
X123300000Y-73605429D01*
X122898182Y-73685355D01*
X122557538Y-73912967D01*
X122329926Y-74253611D01*
X122250000Y-74655429D01*
X122250000Y-74696571D01*
X122329926Y-75098389D01*
X122557538Y-75439033D01*
X122800000Y-75601042D01*
X122800000Y-76577895D01*
X121579897Y-77797999D01*
X121579897Y-76450000D01*
X121562465Y-76357356D01*
X121507712Y-76272268D01*
X121424169Y-76215185D01*
X121325000Y-76195103D01*
X121075000Y-76195103D01*
X121075000Y-75683914D01*
X121161818Y-75666645D01*
X121502462Y-75439033D01*
X121730074Y-75098389D01*
X121810000Y-74696571D01*
X121810000Y-74655429D01*
X121730074Y-74253611D01*
X121502462Y-73912967D01*
X121161818Y-73685355D01*
X120760000Y-73605429D01*
X120358182Y-73685355D01*
X120017538Y-73912967D01*
X119789926Y-74253611D01*
X119710000Y-74655429D01*
X119710000Y-74696571D01*
X119789926Y-75098389D01*
X120017538Y-75439033D01*
X120325000Y-75644473D01*
X120325000Y-76195103D01*
X120075000Y-76195103D01*
X119982356Y-76212535D01*
X119897268Y-76267288D01*
X119840185Y-76350831D01*
X119820103Y-76450000D01*
X119820103Y-77900001D01*
X119374999Y-77900001D01*
X119183657Y-77938061D01*
X119118685Y-77981475D01*
X119021446Y-78046447D01*
X118372791Y-78695103D01*
X117575000Y-78695103D01*
X117482356Y-78712535D01*
X117397268Y-78767288D01*
X117340185Y-78850831D01*
X117320103Y-78950000D01*
X117320103Y-80450000D01*
X117337535Y-80542644D01*
X117392288Y-80627732D01*
X117475831Y-80684815D01*
X117575000Y-80704897D01*
X117700000Y-80704897D01*
X117700000Y-81384322D01*
X117477538Y-81532967D01*
X117249926Y-81873611D01*
X117170000Y-82275429D01*
X116730000Y-82275429D01*
X116650074Y-81873611D01*
X116422462Y-81532967D01*
X116081818Y-81305355D01*
X115975000Y-81284108D01*
X115975000Y-79602793D01*
X116065995Y-79511957D01*
X116149904Y-79309882D01*
X116150095Y-79091078D01*
X116066539Y-78888857D01*
X115911957Y-78734005D01*
X115709882Y-78650096D01*
X115491078Y-78649905D01*
X115317604Y-78721583D01*
X115351464Y-78670908D01*
X115380009Y-78527401D01*
X115380009Y-77171323D01*
X117070166Y-75481166D01*
X117151456Y-75359508D01*
X117180001Y-75216001D01*
X117180001Y-74109331D01*
X119850164Y-71439168D01*
X119862653Y-71420478D01*
X119982183Y-71599367D01*
X120339048Y-71837817D01*
X120760000Y-71921550D01*
X121180952Y-71837817D01*
X121537817Y-71599367D01*
X121776267Y-71242502D01*
X121860000Y-70821550D01*
X121860000Y-70778450D01*
X122200000Y-70778450D01*
X122200000Y-70821550D01*
X122283733Y-71242502D01*
X122522183Y-71599367D01*
X122879048Y-71837817D01*
X123300000Y-71921550D01*
X123720952Y-71837817D01*
X124077817Y-71599367D01*
X124316267Y-71242502D01*
X124400000Y-70821550D01*
X124400000Y-70778450D01*
X124740000Y-70778450D01*
X124740000Y-70821550D01*
X124823733Y-71242502D01*
X125062183Y-71599367D01*
X125419048Y-71837817D01*
X125840000Y-71921550D01*
X126260952Y-71837817D01*
X126617817Y-71599367D01*
X126856267Y-71242502D01*
X126940000Y-70821550D01*
X126940000Y-70778450D01*
X126856267Y-70357498D01*
X126617817Y-70000633D01*
X126260952Y-69762183D01*
X125840000Y-69678450D01*
X125419048Y-69762183D01*
X125062183Y-70000633D01*
X124823733Y-70357498D01*
X124740000Y-70778450D01*
X124400000Y-70778450D01*
X124316267Y-70357498D01*
X124077817Y-70000633D01*
X123720952Y-69762183D01*
X123300000Y-69678450D01*
X122879048Y-69762183D01*
X122522183Y-70000633D01*
X122283733Y-70357498D01*
X122200000Y-70778450D01*
X121860000Y-70778450D01*
X121776267Y-70357498D01*
X121537817Y-70000633D01*
X121252517Y-69810001D01*
X122124999Y-69810001D01*
X122268506Y-69781456D01*
X122390164Y-69700166D01*
X122827174Y-69263156D01*
X122879048Y-69297817D01*
X123300000Y-69381550D01*
X123720952Y-69297817D01*
X124077817Y-69059367D01*
X124316267Y-68702502D01*
X124400000Y-68281550D01*
X124400000Y-68238450D01*
X124316267Y-67817498D01*
X124077817Y-67460633D01*
X124076868Y-67459999D01*
X125063132Y-67459999D01*
X125062183Y-67460633D01*
X124823733Y-67817498D01*
X124740000Y-68238450D01*
X124740000Y-68281550D01*
X124823733Y-68702502D01*
X125062183Y-69059367D01*
X125419048Y-69297817D01*
X125840000Y-69381550D01*
X126260952Y-69297817D01*
X126617817Y-69059367D01*
X126856267Y-68702502D01*
X126940000Y-68281550D01*
X126940000Y-68238450D01*
X126856267Y-67817498D01*
X126617817Y-67460633D01*
X126616868Y-67459999D01*
X131328671Y-67459999D01*
X131909999Y-68041327D01*
X131909999Y-69624999D01*
X131938544Y-69768506D01*
X132019834Y-69890164D01*
X132461131Y-70331461D01*
X132443733Y-70357498D01*
X132360000Y-70778450D01*
X132360000Y-70821550D01*
X132443733Y-71242502D01*
X132682183Y-71599367D01*
X133021316Y-71825969D01*
X131358684Y-71825969D01*
X131697817Y-71599367D01*
X131936267Y-71242502D01*
X132020000Y-70821550D01*
X132020000Y-70778450D01*
X131936267Y-70357498D01*
X131697817Y-70000633D01*
X131340952Y-69762183D01*
X130920000Y-69678450D01*
X130499048Y-69762183D01*
X130142183Y-70000633D01*
X129903733Y-70357498D01*
X129820000Y-70778450D01*
X129820000Y-70821550D01*
X129903733Y-71242502D01*
X130142183Y-71599367D01*
X130481316Y-71825969D01*
X128818684Y-71825969D01*
X129157817Y-71599367D01*
X129396267Y-71242502D01*
X129480000Y-70821550D01*
X129480000Y-70778450D01*
X129396267Y-70357498D01*
X129157817Y-70000633D01*
X128800952Y-69762183D01*
X128380000Y-69678450D01*
X127959048Y-69762183D01*
X127602183Y-70000633D01*
X127363733Y-70357498D01*
X127280000Y-70778450D01*
X127280000Y-70821550D01*
X127363733Y-71242502D01*
X127602183Y-71599367D01*
X127959048Y-71837817D01*
X128142038Y-71874216D01*
X128049866Y-71935804D01*
X126276884Y-73708786D01*
X126241818Y-73685355D01*
X125840000Y-73605429D01*
X125438182Y-73685355D01*
X125097538Y-73912967D01*
X124869926Y-74253611D01*
X124790000Y-74655429D01*
X124790000Y-74696571D01*
X124869926Y-75098389D01*
X125097538Y-75439033D01*
X125438182Y-75666645D01*
X125840000Y-75746571D01*
X126241818Y-75666645D01*
X126582462Y-75439033D01*
X126810074Y-75098389D01*
X126890000Y-74696571D01*
X126890000Y-74655429D01*
X126810074Y-74253611D01*
X126803123Y-74243207D01*
X128470361Y-72575969D01*
X129949701Y-72575969D01*
X128816884Y-73708786D01*
X128781818Y-73685355D01*
X128380000Y-73605429D01*
X127978182Y-73685355D01*
X127637538Y-73912967D01*
X127409926Y-74253611D01*
X127330000Y-74655429D01*
X127330000Y-74696571D01*
X127409926Y-75098389D01*
X127637538Y-75439033D01*
X127978182Y-75666645D01*
X128380000Y-75746571D01*
X128781818Y-75666645D01*
X129122462Y-75439033D01*
X129350074Y-75098389D01*
X129430000Y-74696571D01*
X129430000Y-74655429D01*
X129350074Y-74253611D01*
X129343123Y-74243207D01*
X130560351Y-73025979D01*
X132039691Y-73025979D01*
X131356884Y-73708786D01*
X131321818Y-73685355D01*
X130920000Y-73605429D01*
X130518182Y-73685355D01*
X130177538Y-73912967D01*
X129949926Y-74253611D01*
X129870000Y-74655429D01*
X129870000Y-74696571D01*
X129949926Y-75098389D01*
X130177538Y-75439033D01*
X130518182Y-75666645D01*
X130920000Y-75746571D01*
X131321818Y-75666645D01*
X131662462Y-75439033D01*
X131890074Y-75098389D01*
X131970000Y-74696571D01*
X131970000Y-74655429D01*
X131890074Y-74253611D01*
X131883123Y-74243207D01*
X132650341Y-73475989D01*
X134129681Y-73475989D01*
X133896884Y-73708786D01*
X133861818Y-73685355D01*
X133460000Y-73605429D01*
X133058182Y-73685355D01*
X132717538Y-73912967D01*
X132489926Y-74253611D01*
X132410000Y-74655429D01*
X132410000Y-74696571D01*
X132489926Y-75098389D01*
X132717538Y-75439033D01*
X133058182Y-75666645D01*
X133460000Y-75746571D01*
X133861818Y-75666645D01*
X134202462Y-75439033D01*
X134430074Y-75098389D01*
X134510000Y-74696571D01*
X134510000Y-74655429D01*
X134430074Y-74253611D01*
X134423123Y-74243207D01*
X134740331Y-73925999D01*
X135248830Y-73925999D01*
X135029926Y-74253611D01*
X134950000Y-74655429D01*
X134950000Y-74696571D01*
X135029926Y-75098389D01*
X135257538Y-75439033D01*
X135598182Y-75666645D01*
X136000000Y-75746571D01*
X136401818Y-75666645D01*
X136742462Y-75439033D01*
X136950278Y-75128016D01*
X141934990Y-80112728D01*
X141934990Y-83834680D01*
X141143436Y-84626234D01*
X141062146Y-84747892D01*
X141062146Y-84747893D01*
X141033601Y-84891399D01*
X141033601Y-85419076D01*
X141029251Y-85412566D01*
X140667973Y-85171168D01*
X140241817Y-85086400D01*
X140198183Y-85086400D01*
X139772027Y-85171168D01*
X139410749Y-85412566D01*
X139302214Y-85575000D01*
X136200000Y-85575000D01*
X135960822Y-85622575D01*
X135897082Y-85665165D01*
X135758058Y-85758058D01*
X135758056Y-85758061D01*
X134871013Y-86645103D01*
X133900000Y-86645103D01*
X133807356Y-86662535D01*
X133722268Y-86717288D01*
X133665185Y-86800831D01*
X133645103Y-86900000D01*
X133645103Y-88500000D01*
X133662535Y-88592644D01*
X133717288Y-88677732D01*
X133800831Y-88734815D01*
X133900000Y-88754897D01*
X135500000Y-88754897D01*
X135592644Y-88737465D01*
X135677732Y-88682712D01*
X135734815Y-88599169D01*
X135754897Y-88500000D01*
X135754897Y-87528987D01*
X136458883Y-86825000D01*
X139302214Y-86825000D01*
X139410749Y-86987434D01*
X139772027Y-87228832D01*
X140198183Y-87313600D01*
X140241817Y-87313600D01*
X140667973Y-87228832D01*
X141029251Y-86987434D01*
X141033601Y-86980924D01*
X141033601Y-87388601D01*
X141062146Y-87532108D01*
X141143436Y-87653766D01*
X141747067Y-88257397D01*
X141709351Y-88313844D01*
X141624583Y-88740000D01*
X141709351Y-89166156D01*
X141950749Y-89527434D01*
X141989911Y-89553601D01*
X131756514Y-89553601D01*
X131777817Y-89539367D01*
X132016267Y-89182502D01*
X132100000Y-88761550D01*
X132100000Y-88718450D01*
X132016267Y-88297498D01*
X131777817Y-87940633D01*
X131420952Y-87702183D01*
X131000000Y-87618450D01*
X130579048Y-87702183D01*
X130527174Y-87736844D01*
X130090164Y-87299834D01*
X129968506Y-87218544D01*
X129824999Y-87189999D01*
X128952517Y-87189999D01*
X129237817Y-86999367D01*
X129476267Y-86642502D01*
X129560000Y-86221550D01*
X129560000Y-86178450D01*
X129476267Y-85757498D01*
X129237817Y-85400633D01*
X128880952Y-85162183D01*
X128460000Y-85078450D01*
X128039048Y-85162183D01*
X127682183Y-85400633D01*
X127443733Y-85757498D01*
X127360000Y-86178450D01*
X127360000Y-86221550D01*
X127443733Y-86642502D01*
X127682183Y-86999367D01*
X127967483Y-87189999D01*
X126412517Y-87189999D01*
X126697817Y-86999367D01*
X126936267Y-86642502D01*
X127020000Y-86221550D01*
X127020000Y-86178450D01*
X126936267Y-85757498D01*
X126697817Y-85400633D01*
X126340952Y-85162183D01*
X125920000Y-85078450D01*
X125499048Y-85162183D01*
X125142183Y-85400633D01*
X124903733Y-85757498D01*
X124820000Y-86178450D01*
X124820000Y-86221550D01*
X124903733Y-86642502D01*
X125142183Y-86999367D01*
X125427483Y-87189999D01*
X124835001Y-87189999D01*
X124691494Y-87218544D01*
X124569836Y-87299834D01*
X122044670Y-89825000D01*
X108355330Y-89825000D01*
X108075000Y-89544670D01*
X108075000Y-88885540D01*
X108184509Y-89150572D01*
X108507727Y-89474354D01*
X108930247Y-89649800D01*
X109387746Y-89650199D01*
X109810572Y-89475491D01*
X110134354Y-89152273D01*
X110309800Y-88729753D01*
X110310199Y-88272254D01*
X110135491Y-87849428D01*
X109884541Y-87598040D01*
X115099827Y-87598040D01*
X115251747Y-87965714D01*
X115532806Y-88247264D01*
X115900215Y-88399826D01*
X116298040Y-88400173D01*
X116665714Y-88248253D01*
X116947264Y-87967194D01*
X117027070Y-87775000D01*
X118196000Y-87775000D01*
X118339507Y-87746455D01*
X118461165Y-87665165D01*
X118528290Y-87598040D01*
X120099827Y-87598040D01*
X120251747Y-87965714D01*
X120532806Y-88247264D01*
X120900215Y-88399826D01*
X121298040Y-88400173D01*
X121665714Y-88248253D01*
X121947264Y-87967194D01*
X122099826Y-87599785D01*
X122100173Y-87201960D01*
X122020703Y-87009627D01*
X125692999Y-83337331D01*
X125840000Y-83366571D01*
X126241818Y-83286645D01*
X126582462Y-83059033D01*
X126810074Y-82718389D01*
X126890000Y-82316571D01*
X126890000Y-82275429D01*
X127330000Y-82275429D01*
X127330000Y-82316571D01*
X127409926Y-82718389D01*
X127637538Y-83059033D01*
X127978182Y-83286645D01*
X128380000Y-83366571D01*
X128781818Y-83286645D01*
X129122462Y-83059033D01*
X129350074Y-82718389D01*
X129430000Y-82316571D01*
X129430000Y-82275429D01*
X129870000Y-82275429D01*
X129870000Y-82316571D01*
X129949926Y-82718389D01*
X130177538Y-83059033D01*
X130518182Y-83286645D01*
X130920000Y-83366571D01*
X131321818Y-83286645D01*
X131662462Y-83059033D01*
X131890074Y-82718389D01*
X131970000Y-82316571D01*
X131970000Y-82275429D01*
X132410000Y-82275429D01*
X132410000Y-82316571D01*
X132489926Y-82718389D01*
X132717538Y-83059033D01*
X133058182Y-83286645D01*
X133460000Y-83366571D01*
X133861818Y-83286645D01*
X134202462Y-83059033D01*
X134430074Y-82718389D01*
X134510000Y-82316571D01*
X134510000Y-82275429D01*
X134950000Y-82275429D01*
X134950000Y-82316571D01*
X135029926Y-82718389D01*
X135257538Y-83059033D01*
X135598182Y-83286645D01*
X136000000Y-83366571D01*
X136401818Y-83286645D01*
X136667798Y-83108922D01*
X137349905Y-83108922D01*
X137433461Y-83311143D01*
X137588043Y-83465995D01*
X137790118Y-83549904D01*
X138008922Y-83550095D01*
X138211143Y-83466539D01*
X138302842Y-83375000D01*
X140597207Y-83375000D01*
X140688043Y-83465995D01*
X140890118Y-83549904D01*
X141108922Y-83550095D01*
X141311143Y-83466539D01*
X141465995Y-83311957D01*
X141549904Y-83109882D01*
X141550095Y-82891078D01*
X141466539Y-82688857D01*
X141311957Y-82534005D01*
X141109882Y-82450096D01*
X140891078Y-82449905D01*
X140688857Y-82533461D01*
X140597158Y-82625000D01*
X138302793Y-82625000D01*
X138211957Y-82534005D01*
X138009882Y-82450096D01*
X137791078Y-82449905D01*
X137588857Y-82533461D01*
X137434005Y-82688043D01*
X137350096Y-82890118D01*
X137349905Y-83108922D01*
X136667798Y-83108922D01*
X136742462Y-83059033D01*
X136970074Y-82718389D01*
X137050000Y-82316571D01*
X137050000Y-82275429D01*
X136970074Y-81873611D01*
X136742462Y-81532967D01*
X136401818Y-81305355D01*
X136000000Y-81225429D01*
X135598182Y-81305355D01*
X135257538Y-81532967D01*
X135029926Y-81873611D01*
X134950000Y-82275429D01*
X134510000Y-82275429D01*
X134430074Y-81873611D01*
X134202462Y-81532967D01*
X133861818Y-81305355D01*
X133460000Y-81225429D01*
X133058182Y-81305355D01*
X132717538Y-81532967D01*
X132489926Y-81873611D01*
X132410000Y-82275429D01*
X131970000Y-82275429D01*
X131890074Y-81873611D01*
X131662462Y-81532967D01*
X131321818Y-81305355D01*
X130920000Y-81225429D01*
X130518182Y-81305355D01*
X130177538Y-81532967D01*
X129949926Y-81873611D01*
X129870000Y-82275429D01*
X129430000Y-82275429D01*
X129350074Y-81873611D01*
X129122462Y-81532967D01*
X128781818Y-81305355D01*
X128380000Y-81225429D01*
X127978182Y-81305355D01*
X127637538Y-81532967D01*
X127409926Y-81873611D01*
X127330000Y-82275429D01*
X126890000Y-82275429D01*
X126810074Y-81873611D01*
X126803123Y-81863207D01*
X127865165Y-80801165D01*
X127887719Y-80767410D01*
X127929489Y-80704897D01*
X128225000Y-80704897D01*
X128317644Y-80687465D01*
X128402732Y-80632712D01*
X128459815Y-80549169D01*
X128479897Y-80450000D01*
X128479897Y-78950000D01*
X128462465Y-78857356D01*
X128407712Y-78772268D01*
X128324169Y-78715185D01*
X128225000Y-78695103D01*
X126975000Y-78695103D01*
X126882356Y-78712535D01*
X126797268Y-78767288D01*
X126740185Y-78850831D01*
X126720103Y-78950000D01*
X126720103Y-80450000D01*
X126737535Y-80542644D01*
X126792288Y-80627732D01*
X126875831Y-80684815D01*
X126913273Y-80692397D01*
X126276884Y-81328786D01*
X126241818Y-81305355D01*
X125840000Y-81225429D01*
X125438182Y-81305355D01*
X125097538Y-81532967D01*
X124869926Y-81873611D01*
X124790000Y-82275429D01*
X124790000Y-82316571D01*
X124869926Y-82718389D01*
X125022676Y-82946994D01*
X121490361Y-86479309D01*
X121299785Y-86400174D01*
X120901960Y-86399827D01*
X120534286Y-86551747D01*
X120252736Y-86832806D01*
X120100174Y-87200215D01*
X120099827Y-87598040D01*
X118528290Y-87598040D01*
X122863116Y-83263214D01*
X122898182Y-83286645D01*
X123300000Y-83366571D01*
X123701818Y-83286645D01*
X124042462Y-83059033D01*
X124270074Y-82718389D01*
X124350000Y-82316571D01*
X124350000Y-82275429D01*
X124270074Y-81873611D01*
X124263123Y-81863207D01*
X125421433Y-80704897D01*
X125925000Y-80704897D01*
X126017644Y-80687465D01*
X126102732Y-80632712D01*
X126159815Y-80549169D01*
X126179897Y-80450000D01*
X126179897Y-78950000D01*
X126162465Y-78857356D01*
X126107712Y-78772268D01*
X126024169Y-78715185D01*
X125925000Y-78695103D01*
X124675000Y-78695103D01*
X124582356Y-78712535D01*
X124497268Y-78767288D01*
X124440185Y-78850831D01*
X124420103Y-78950000D01*
X124420103Y-80450000D01*
X124437535Y-80542644D01*
X124471008Y-80594662D01*
X123736884Y-81328786D01*
X123701818Y-81305355D01*
X123300000Y-81225429D01*
X122898182Y-81305355D01*
X122557538Y-81532967D01*
X122329926Y-81873611D01*
X122250000Y-82275429D01*
X122250000Y-82316571D01*
X122329926Y-82718389D01*
X122336877Y-82728793D01*
X118040670Y-87025000D01*
X117027055Y-87025000D01*
X116948253Y-86834286D01*
X116667194Y-86552736D01*
X116299785Y-86400174D01*
X115901960Y-86399827D01*
X115534286Y-86551747D01*
X115252736Y-86832806D01*
X115100174Y-87200215D01*
X115099827Y-87598040D01*
X109884541Y-87598040D01*
X109812273Y-87525646D01*
X109575000Y-87427121D01*
X109575000Y-86204897D01*
X109950000Y-86204897D01*
X110042644Y-86187465D01*
X110127732Y-86132712D01*
X110184815Y-86049169D01*
X110204897Y-85950000D01*
X110204897Y-84650000D01*
X110187465Y-84557356D01*
X110132712Y-84472268D01*
X110049169Y-84415185D01*
X109950000Y-84395103D01*
X108450000Y-84395103D01*
X108357356Y-84412535D01*
X108272268Y-84467288D01*
X108215185Y-84550831D01*
X108195103Y-84650000D01*
X108195103Y-85950000D01*
X108212535Y-86042644D01*
X108267288Y-86127732D01*
X108350831Y-86184815D01*
X108450000Y-86204897D01*
X108825000Y-86204897D01*
X108825000Y-87394117D01*
X108509428Y-87524509D01*
X108185646Y-87847727D01*
X108075000Y-88114192D01*
X108075000Y-85174998D01*
X108057377Y-85086400D01*
X108046455Y-85031491D01*
X107965165Y-84909833D01*
X107090167Y-84034835D01*
X106968509Y-83953545D01*
X106825002Y-83925000D01*
X104089330Y-83925000D01*
X103515227Y-83350897D01*
X103780000Y-83350897D01*
X103872644Y-83333465D01*
X103957732Y-83278712D01*
X104014815Y-83195169D01*
X104034897Y-83096000D01*
X104034897Y-82275429D01*
X104470000Y-82275429D01*
X104470000Y-82316571D01*
X104549926Y-82718389D01*
X104777538Y-83059033D01*
X105118182Y-83286645D01*
X105520000Y-83366571D01*
X105921818Y-83286645D01*
X106262462Y-83059033D01*
X106490074Y-82718389D01*
X106570000Y-82316571D01*
X106570000Y-82275429D01*
X106490074Y-81873611D01*
X106262462Y-81532967D01*
X105921818Y-81305355D01*
X105520000Y-81225429D01*
X105118182Y-81305355D01*
X104777538Y-81532967D01*
X104549926Y-81873611D01*
X104470000Y-82275429D01*
X104034897Y-82275429D01*
X104034897Y-81496000D01*
X104017465Y-81403356D01*
X103962712Y-81318268D01*
X103879169Y-81261185D01*
X103780000Y-81241103D01*
X103575000Y-81241103D01*
X103575000Y-80954897D01*
X103850000Y-80954897D01*
X103942644Y-80937465D01*
X104027732Y-80882712D01*
X104084815Y-80799169D01*
X104104897Y-80700000D01*
X104104897Y-80175000D01*
X104520103Y-80175000D01*
X104520103Y-80550000D01*
X104537535Y-80642644D01*
X104592288Y-80727732D01*
X104675831Y-80784815D01*
X104775000Y-80804897D01*
X106025000Y-80804897D01*
X106117644Y-80787465D01*
X106202732Y-80732712D01*
X106259815Y-80649169D01*
X106279897Y-80550000D01*
X106279897Y-79050000D01*
X106262465Y-78957356D01*
X106207712Y-78872268D01*
X106124169Y-78815185D01*
X106025000Y-78795103D01*
X104775000Y-78795103D01*
X104682356Y-78812535D01*
X104597268Y-78867288D01*
X104540185Y-78950831D01*
X104520103Y-79050000D01*
X104520103Y-79425000D01*
X104104897Y-79425000D01*
X104104897Y-79200000D01*
X104087465Y-79107356D01*
X104032712Y-79022268D01*
X103949169Y-78965185D01*
X103850000Y-78945103D01*
X102550000Y-78945103D01*
X102457356Y-78962535D01*
X102372268Y-79017288D01*
X102315185Y-79100831D01*
X102295103Y-79200000D01*
X102295103Y-80700000D01*
X102312535Y-80792644D01*
X102367288Y-80877732D01*
X102450831Y-80934815D01*
X102550000Y-80954897D01*
X102825000Y-80954897D01*
X102825000Y-81241103D01*
X102180000Y-81241103D01*
X102087356Y-81258535D01*
X102002268Y-81313288D01*
X101975000Y-81353196D01*
X101975000Y-78105330D01*
X102295103Y-77785227D01*
X102295103Y-78000000D01*
X102312535Y-78092644D01*
X102367288Y-78177732D01*
X102450831Y-78234815D01*
X102550000Y-78254897D01*
X103850000Y-78254897D01*
X103942644Y-78237465D01*
X104027732Y-78182712D01*
X104084815Y-78099169D01*
X104104897Y-78000000D01*
X104104897Y-76500000D01*
X104087465Y-76407356D01*
X104032712Y-76322268D01*
X103949169Y-76265185D01*
X103850000Y-76245103D01*
X102550000Y-76245103D01*
X102457356Y-76262535D01*
X102372268Y-76317288D01*
X102315185Y-76400831D01*
X102295103Y-76500000D01*
X102295103Y-76875974D01*
X102156494Y-76903545D01*
X102156492Y-76903546D01*
X102156493Y-76903546D01*
X102034835Y-76984835D01*
X101334835Y-77684835D01*
X101253545Y-77806493D01*
X101253545Y-77806494D01*
X101225000Y-77950000D01*
X101225000Y-85400000D01*
X101253545Y-85543507D01*
X101334835Y-85665165D01*
X101894835Y-86225165D01*
X102016494Y-86306455D01*
X102160000Y-86335000D01*
X105095103Y-86335000D01*
X105095103Y-86810000D01*
X105112535Y-86902644D01*
X105167288Y-86987732D01*
X105250831Y-87044815D01*
X105350000Y-87064897D01*
X107050000Y-87064897D01*
X107142644Y-87047465D01*
X107227732Y-86992712D01*
X107284815Y-86909169D01*
X107304897Y-86810000D01*
X107304897Y-85310225D01*
X107325000Y-85330328D01*
X107325000Y-89700000D01*
X107353545Y-89843507D01*
X107434835Y-89965165D01*
X107934835Y-90465165D01*
X108056494Y-90546455D01*
X108200000Y-90575000D01*
X122200000Y-90575000D01*
X122343507Y-90546455D01*
X122465165Y-90465165D01*
X124990331Y-87939999D01*
X125143132Y-87939999D01*
X125142183Y-87940633D01*
X124903733Y-88297498D01*
X124820000Y-88718450D01*
X124820000Y-88761550D01*
X124903733Y-89182502D01*
X125142183Y-89539367D01*
X125499048Y-89777817D01*
X125920000Y-89861550D01*
X126340952Y-89777817D01*
X126392826Y-89743156D01*
X127293446Y-90643776D01*
X127340176Y-90675000D01*
X100325000Y-90675000D01*
X100325000Y-89421353D01*
X100503766Y-89421353D01*
X100708858Y-89917715D01*
X101088288Y-90297807D01*
X101584290Y-90503765D01*
X102121353Y-90504234D01*
X102617715Y-90299142D01*
X102997807Y-89919712D01*
X103203765Y-89423710D01*
X103204234Y-88886647D01*
X102999142Y-88390285D01*
X102619712Y-88010193D01*
X102123710Y-87804235D01*
X101586647Y-87803766D01*
X101090285Y-88008858D01*
X100710193Y-88388288D01*
X100504235Y-88884290D01*
X100503766Y-89421353D01*
X100325000Y-89421353D01*
X100325000Y-74655429D01*
X101930000Y-74655429D01*
X101930000Y-74696571D01*
X102009926Y-75098389D01*
X102237538Y-75439033D01*
X102578182Y-75666645D01*
X102980000Y-75746571D01*
X103381818Y-75666645D01*
X103722462Y-75439033D01*
X103925000Y-75135915D01*
X103925000Y-75200000D01*
X103953545Y-75343507D01*
X104034835Y-75465165D01*
X104864773Y-76295103D01*
X104775000Y-76295103D01*
X104682356Y-76312535D01*
X104597268Y-76367288D01*
X104540185Y-76450831D01*
X104520103Y-76550000D01*
X104520103Y-78050000D01*
X104537535Y-78142644D01*
X104592288Y-78227732D01*
X104675831Y-78284815D01*
X104775000Y-78304897D01*
X106025000Y-78304897D01*
X106117644Y-78287465D01*
X106202732Y-78232712D01*
X106259815Y-78149169D01*
X106279897Y-78050000D01*
X106279897Y-76550000D01*
X106262465Y-76457356D01*
X106207712Y-76372268D01*
X106124169Y-76315185D01*
X106025000Y-76295103D01*
X105774026Y-76295103D01*
X105746455Y-76156494D01*
X105746455Y-76156493D01*
X105665165Y-76034835D01*
X105341369Y-75711039D01*
X105520000Y-75746571D01*
X105921818Y-75666645D01*
X106262462Y-75439033D01*
X106425000Y-75195779D01*
X106425000Y-81036000D01*
X106453545Y-81179507D01*
X106534835Y-81301165D01*
X107096877Y-81863207D01*
X107089926Y-81873611D01*
X107010000Y-82275429D01*
X107010000Y-82316571D01*
X107089926Y-82718389D01*
X107317538Y-83059033D01*
X107658182Y-83286645D01*
X108060000Y-83366571D01*
X108461818Y-83286645D01*
X108802462Y-83059033D01*
X109030074Y-82718389D01*
X109110000Y-82316571D01*
X109110000Y-82275429D01*
X109030074Y-81873611D01*
X108802462Y-81532967D01*
X108461818Y-81305355D01*
X108060000Y-81225429D01*
X107658182Y-81305355D01*
X107623116Y-81328786D01*
X107175000Y-80880670D01*
X107175000Y-75225711D01*
X107317538Y-75439033D01*
X107658182Y-75666645D01*
X108060000Y-75746571D01*
X108461818Y-75666645D01*
X108802462Y-75439033D01*
X109030074Y-75098389D01*
X109110000Y-74696571D01*
X109110000Y-74655429D01*
X109550000Y-74655429D01*
X109550000Y-74696571D01*
X109629926Y-75098389D01*
X109857538Y-75439033D01*
X110198182Y-75666645D01*
X110600000Y-75746571D01*
X111001818Y-75666645D01*
X111342462Y-75439033D01*
X111570074Y-75098389D01*
X111650000Y-74696571D01*
X111650000Y-74655429D01*
X111570074Y-74253611D01*
X111342462Y-73912967D01*
X111001818Y-73685355D01*
X110975000Y-73680021D01*
X110975000Y-73495330D01*
X112667174Y-71803156D01*
X112719048Y-71837817D01*
X113140000Y-71921550D01*
X113560952Y-71837817D01*
X113917817Y-71599367D01*
X114156267Y-71242502D01*
X114240000Y-70821550D01*
X114240000Y-70778450D01*
X114156267Y-70357498D01*
X113917817Y-70000633D01*
X113560952Y-69762183D01*
X113140000Y-69678450D01*
X112719048Y-69762183D01*
X112362183Y-70000633D01*
X112123733Y-70357498D01*
X112040000Y-70778450D01*
X112040000Y-70821550D01*
X112123733Y-71242502D01*
X112141131Y-71268539D01*
X110334835Y-73074835D01*
X110253545Y-73196493D01*
X110235774Y-73285834D01*
X110225000Y-73340000D01*
X110225000Y-73680021D01*
X110198182Y-73685355D01*
X109857538Y-73912967D01*
X109629926Y-74253611D01*
X109550000Y-74655429D01*
X109110000Y-74655429D01*
X109030074Y-74253611D01*
X108802462Y-73912967D01*
X108461818Y-73685355D01*
X108435000Y-73680021D01*
X108435000Y-73495330D01*
X110127174Y-71803156D01*
X110179048Y-71837817D01*
X110600000Y-71921550D01*
X111020952Y-71837817D01*
X111377817Y-71599367D01*
X111616267Y-71242502D01*
X111700000Y-70821550D01*
X111700000Y-70778450D01*
X111616267Y-70357498D01*
X111377817Y-70000633D01*
X111020952Y-69762183D01*
X110600000Y-69678450D01*
X110179048Y-69762183D01*
X109822183Y-70000633D01*
X109675000Y-70220908D01*
X109675000Y-69500000D01*
X109646455Y-69356494D01*
X109565165Y-69234835D01*
X109058869Y-68728539D01*
X109076267Y-68702502D01*
X109160000Y-68281550D01*
X109160000Y-68238450D01*
X109500000Y-68238450D01*
X109500000Y-68281550D01*
X109583733Y-68702502D01*
X109822183Y-69059367D01*
X110179048Y-69297817D01*
X110600000Y-69381550D01*
X111020952Y-69297817D01*
X111377817Y-69059367D01*
X111616267Y-68702502D01*
X111700000Y-68281550D01*
X111700000Y-68238450D01*
X111616267Y-67817498D01*
X111377817Y-67460633D01*
X111020952Y-67222183D01*
X110600000Y-67138450D01*
X110179048Y-67222183D01*
X109822183Y-67460633D01*
X109583733Y-67817498D01*
X109500000Y-68238450D01*
X109160000Y-68238450D01*
X109076267Y-67817498D01*
X108837817Y-67460633D01*
X108480952Y-67222183D01*
X108060000Y-67138450D01*
X107639048Y-67222183D01*
X107282183Y-67460633D01*
X107043733Y-67817498D01*
X106960000Y-68238450D01*
X106960000Y-68281550D01*
X107043733Y-68702502D01*
X107282183Y-69059367D01*
X107639048Y-69297817D01*
X108060000Y-69381550D01*
X108480952Y-69297817D01*
X108532826Y-69263156D01*
X108925000Y-69655330D01*
X108925000Y-70131111D01*
X108837817Y-70000633D01*
X108480952Y-69762183D01*
X108060000Y-69678450D01*
X107639048Y-69762183D01*
X107282183Y-70000633D01*
X107043733Y-70357498D01*
X106960000Y-70778450D01*
X106960000Y-70821550D01*
X107043733Y-71242502D01*
X107061131Y-71268539D01*
X106610989Y-71718681D01*
X106624897Y-71650000D01*
X106624897Y-69950000D01*
X106607465Y-69857356D01*
X106552712Y-69772268D01*
X106469169Y-69715185D01*
X106370000Y-69695103D01*
X104670000Y-69695103D01*
X104602532Y-69707798D01*
X105047174Y-69263156D01*
X105099048Y-69297817D01*
X105520000Y-69381550D01*
X105940952Y-69297817D01*
X106297817Y-69059367D01*
X106536267Y-68702502D01*
X106620000Y-68281550D01*
X106620000Y-68238450D01*
X106536267Y-67817498D01*
X106297817Y-67460633D01*
X105940952Y-67222183D01*
X105520000Y-67138450D01*
X105099048Y-67222183D01*
X104742183Y-67460633D01*
X104503733Y-67817498D01*
X104420000Y-68238450D01*
X104420000Y-68281550D01*
X104503733Y-68702502D01*
X104521131Y-68728539D01*
X103734835Y-69514835D01*
X103653545Y-69636493D01*
X103637892Y-69715185D01*
X103625000Y-69780000D01*
X103625000Y-73000000D01*
X103653545Y-73143507D01*
X103734835Y-73265165D01*
X103925000Y-73455330D01*
X103925000Y-74216085D01*
X103722462Y-73912967D01*
X103381818Y-73685355D01*
X102980000Y-73605429D01*
X102578182Y-73685355D01*
X102237538Y-73912967D01*
X102009926Y-74253611D01*
X101930000Y-74655429D01*
X100325000Y-74655429D01*
X100325000Y-68085353D01*
X100503766Y-68085353D01*
X100708858Y-68581715D01*
X101088288Y-68961807D01*
X101584290Y-69167765D01*
X102121353Y-69168234D01*
X102617715Y-68963142D01*
X102997807Y-68583712D01*
X103203765Y-68087710D01*
X103204234Y-67550647D01*
X102999142Y-67054285D01*
X102619712Y-66674193D01*
X102123710Y-66468235D01*
X101586647Y-66467766D01*
X101090285Y-66672858D01*
X100710193Y-67052288D01*
X100504235Y-67548290D01*
X100503766Y-68085353D01*
X100325000Y-68085353D01*
X100325000Y-66325000D01*
X138746422Y-66325000D01*
X138650006Y-72399206D01*
X138650006Y-72399206D01*
G37*
X138650006Y-72399206D02*
X138653636Y-72418719D01*
X138664572Y-72435283D01*
X138681090Y-72446286D01*
X138699115Y-72449992D01*
X149675000Y-72644255D01*
X149675000Y-90675000D01*
X146419824Y-90675000D01*
X146466554Y-90643776D01*
X147361737Y-89748593D01*
X147392027Y-89768832D01*
X147818183Y-89853600D01*
X147861817Y-89853600D01*
X148287973Y-89768832D01*
X148649251Y-89527434D01*
X148890649Y-89166156D01*
X148975417Y-88740000D01*
X148890649Y-88313844D01*
X148649251Y-87952566D01*
X148287973Y-87711168D01*
X147861817Y-87626400D01*
X147818183Y-87626400D01*
X147392027Y-87711168D01*
X147361737Y-87731407D01*
X146863601Y-87233271D01*
X146863601Y-86737279D01*
X147030749Y-86987434D01*
X147392027Y-87228832D01*
X147818183Y-87313600D01*
X147861817Y-87313600D01*
X148287973Y-87228832D01*
X148649251Y-86987434D01*
X148890649Y-86626156D01*
X148975417Y-86200000D01*
X148890649Y-85773844D01*
X148649251Y-85412566D01*
X148287973Y-85171168D01*
X147861817Y-85086400D01*
X147818183Y-85086400D01*
X147392027Y-85171168D01*
X147030749Y-85412566D01*
X146863601Y-85662721D01*
X146863601Y-85629471D01*
X146835056Y-85485965D01*
X146753766Y-85364306D01*
X146299989Y-84910529D01*
X146299989Y-84541711D01*
X146440108Y-84599894D01*
X146658912Y-84600085D01*
X146861133Y-84516529D01*
X147015985Y-84361947D01*
X147099894Y-84159872D01*
X147100085Y-83941068D01*
X147016529Y-83738847D01*
X146924990Y-83647148D01*
X146924990Y-81513580D01*
X146896445Y-81370074D01*
X146815155Y-81248415D01*
X137502544Y-71935804D01*
X137380886Y-71854514D01*
X137237379Y-71825969D01*
X136438684Y-71825969D01*
X136777817Y-71599367D01*
X137016267Y-71242502D01*
X137100000Y-70821550D01*
X137100000Y-70778450D01*
X137016267Y-70357498D01*
X136777817Y-70000633D01*
X136420952Y-69762183D01*
X136000000Y-69678450D01*
X135579048Y-69762183D01*
X135222183Y-70000633D01*
X134983733Y-70357498D01*
X134900000Y-70778450D01*
X134900000Y-70821550D01*
X134983733Y-71242502D01*
X135222183Y-71599367D01*
X135561316Y-71825969D01*
X133898684Y-71825969D01*
X134237817Y-71599367D01*
X134476267Y-71242502D01*
X134560000Y-70821550D01*
X134560000Y-70778450D01*
X134476267Y-70357498D01*
X134237817Y-70000633D01*
X133880952Y-69762183D01*
X133460000Y-69678450D01*
X133039048Y-69762183D01*
X132987174Y-69796844D01*
X132659999Y-69469669D01*
X132659999Y-67885997D01*
X132631454Y-67742491D01*
X132631454Y-67742490D01*
X132550164Y-67620832D01*
X131749166Y-66819834D01*
X131627508Y-66738544D01*
X131484001Y-66709999D01*
X114315001Y-66709999D01*
X114171495Y-66738544D01*
X114171493Y-66738545D01*
X114171494Y-66738545D01*
X114049836Y-66819834D01*
X113612826Y-67256844D01*
X113560952Y-67222183D01*
X113140000Y-67138450D01*
X112719048Y-67222183D01*
X112362183Y-67460633D01*
X112123733Y-67817498D01*
X112040000Y-68238450D01*
X112040000Y-68281550D01*
X112123733Y-68702502D01*
X112362183Y-69059367D01*
X112719048Y-69297817D01*
X113140000Y-69381550D01*
X113560952Y-69297817D01*
X113917817Y-69059367D01*
X114156267Y-68702502D01*
X114240000Y-68281550D01*
X114240000Y-68238450D01*
X114156267Y-67817498D01*
X114138869Y-67791461D01*
X114470331Y-67459999D01*
X119983132Y-67459999D01*
X119982183Y-67460633D01*
X119743733Y-67817498D01*
X119660000Y-68238450D01*
X119660000Y-68281550D01*
X119743733Y-68702502D01*
X119761131Y-68728539D01*
X119429669Y-69060001D01*
X117845997Y-69060001D01*
X117702490Y-69088546D01*
X117580832Y-69169836D01*
X116779834Y-69970834D01*
X116698544Y-70092492D01*
X116686111Y-70155000D01*
X116669999Y-70235999D01*
X116669999Y-70318185D01*
X116457817Y-70000633D01*
X116100952Y-69762183D01*
X115680000Y-69678450D01*
X115259048Y-69762183D01*
X114902183Y-70000633D01*
X114663733Y-70357498D01*
X114580000Y-70778450D01*
X114580000Y-70821550D01*
X114663733Y-71242502D01*
X114681131Y-71268539D01*
X112874835Y-73074835D01*
X112793545Y-73196493D01*
X112775774Y-73285834D01*
X112765000Y-73340000D01*
X112765000Y-73680021D01*
X112738182Y-73685355D01*
X112397538Y-73912967D01*
X112169926Y-74253611D01*
X112090000Y-74655429D01*
X112090000Y-74696571D01*
X112169926Y-75098389D01*
X112397538Y-75439033D01*
X112738182Y-75666645D01*
X113140000Y-75746571D01*
X113541818Y-75666645D01*
X113882462Y-75439033D01*
X114110074Y-75098389D01*
X114179999Y-74746850D01*
X114179999Y-78185671D01*
X111036884Y-81328786D01*
X111001818Y-81305355D01*
X110600000Y-81225429D01*
X110198182Y-81305355D01*
X109857538Y-81532967D01*
X109629926Y-81873611D01*
X109550000Y-82275429D01*
X109550000Y-82316571D01*
X109629926Y-82718389D01*
X109857538Y-83059033D01*
X110198182Y-83286645D01*
X110600000Y-83366571D01*
X111001818Y-83286645D01*
X111342462Y-83059033D01*
X111570074Y-82718389D01*
X111650000Y-82316571D01*
X111650000Y-82275429D01*
X111570074Y-81873611D01*
X111563123Y-81863207D01*
X112765000Y-80661330D01*
X112765000Y-81300021D01*
X112738182Y-81305355D01*
X112397538Y-81532967D01*
X112169926Y-81873611D01*
X112156071Y-81943264D01*
X112124494Y-81949545D01*
X112002835Y-82030835D01*
X111921545Y-82152494D01*
X111893000Y-82296000D01*
X111921545Y-82439506D01*
X112002835Y-82561165D01*
X112124494Y-82642455D01*
X112156071Y-82648736D01*
X112169926Y-82718389D01*
X112397538Y-83059033D01*
X112738182Y-83286645D01*
X113140000Y-83366571D01*
X113541818Y-83286645D01*
X113882462Y-83059033D01*
X114110074Y-82718389D01*
X114190000Y-82316571D01*
X114190000Y-82275429D01*
X114110074Y-81873611D01*
X113882462Y-81532967D01*
X113541818Y-81305355D01*
X113515000Y-81300021D01*
X113515000Y-80547740D01*
X115105110Y-78957630D01*
X115050096Y-79090118D01*
X115049905Y-79308922D01*
X115133461Y-79511143D01*
X115225000Y-79602842D01*
X115225000Y-81340890D01*
X114937538Y-81532967D01*
X114709926Y-81873611D01*
X114630000Y-82275429D01*
X114630000Y-82316571D01*
X114709926Y-82718389D01*
X114716877Y-82728793D01*
X112887599Y-84558071D01*
X112887465Y-84557356D01*
X112832712Y-84472268D01*
X112749169Y-84415185D01*
X112650000Y-84395103D01*
X111150000Y-84395103D01*
X111057356Y-84412535D01*
X110972268Y-84467288D01*
X110915185Y-84550831D01*
X110895103Y-84650000D01*
X110895103Y-85950000D01*
X110912535Y-86042644D01*
X110967288Y-86127732D01*
X111050831Y-86184815D01*
X111150000Y-86204897D01*
X112650000Y-86204897D01*
X112742644Y-86187465D01*
X112827732Y-86132712D01*
X112884815Y-86049169D01*
X112904897Y-85950000D01*
X112904897Y-85589399D01*
X112941165Y-85565165D01*
X115243116Y-83263214D01*
X115278182Y-83286645D01*
X115680000Y-83366571D01*
X116081818Y-83286645D01*
X116422462Y-83059033D01*
X116650074Y-82718389D01*
X116730000Y-82316571D01*
X116730000Y-82275429D01*
X117170000Y-82275429D01*
X117170000Y-82316571D01*
X117249926Y-82718389D01*
X117477538Y-83059033D01*
X117818182Y-83286645D01*
X118220000Y-83366571D01*
X118621818Y-83286645D01*
X118962462Y-83059033D01*
X119190074Y-82718389D01*
X119270000Y-82316571D01*
X119270000Y-82275429D01*
X119190074Y-81873611D01*
X118962462Y-81532967D01*
X118700000Y-81357595D01*
X118700000Y-80704897D01*
X118825000Y-80704897D01*
X118917644Y-80687465D01*
X119002732Y-80632712D01*
X119059815Y-80549169D01*
X119079897Y-80450000D01*
X119079897Y-79402209D01*
X119582106Y-78900001D01*
X121685001Y-78900001D01*
X121876343Y-78861941D01*
X122038554Y-78753554D01*
X123653553Y-77138556D01*
X123761940Y-76976344D01*
X123776420Y-76903546D01*
X123800000Y-76785002D01*
X123800000Y-75601042D01*
X124042462Y-75439033D01*
X124270074Y-75098389D01*
X124350000Y-74696571D01*
X124350000Y-74655429D01*
X124270074Y-74253611D01*
X124042462Y-73912967D01*
X123701818Y-73685355D01*
X123300000Y-73605429D01*
X122898182Y-73685355D01*
X122557538Y-73912967D01*
X122329926Y-74253611D01*
X122250000Y-74655429D01*
X122250000Y-74696571D01*
X122329926Y-75098389D01*
X122557538Y-75439033D01*
X122800000Y-75601042D01*
X122800000Y-76577895D01*
X121579897Y-77797999D01*
X121579897Y-76450000D01*
X121562465Y-76357356D01*
X121507712Y-76272268D01*
X121424169Y-76215185D01*
X121325000Y-76195103D01*
X121075000Y-76195103D01*
X121075000Y-75683914D01*
X121161818Y-75666645D01*
X121502462Y-75439033D01*
X121730074Y-75098389D01*
X121810000Y-74696571D01*
X121810000Y-74655429D01*
X121730074Y-74253611D01*
X121502462Y-73912967D01*
X121161818Y-73685355D01*
X120760000Y-73605429D01*
X120358182Y-73685355D01*
X120017538Y-73912967D01*
X119789926Y-74253611D01*
X119710000Y-74655429D01*
X119710000Y-74696571D01*
X119789926Y-75098389D01*
X120017538Y-75439033D01*
X120325000Y-75644473D01*
X120325000Y-76195103D01*
X120075000Y-76195103D01*
X119982356Y-76212535D01*
X119897268Y-76267288D01*
X119840185Y-76350831D01*
X119820103Y-76450000D01*
X119820103Y-77900001D01*
X119374999Y-77900001D01*
X119183657Y-77938061D01*
X119118685Y-77981475D01*
X119021446Y-78046447D01*
X118372791Y-78695103D01*
X117575000Y-78695103D01*
X117482356Y-78712535D01*
X117397268Y-78767288D01*
X117340185Y-78850831D01*
X117320103Y-78950000D01*
X117320103Y-80450000D01*
X117337535Y-80542644D01*
X117392288Y-80627732D01*
X117475831Y-80684815D01*
X117575000Y-80704897D01*
X117700000Y-80704897D01*
X117700000Y-81384322D01*
X117477538Y-81532967D01*
X117249926Y-81873611D01*
X117170000Y-82275429D01*
X116730000Y-82275429D01*
X116650074Y-81873611D01*
X116422462Y-81532967D01*
X116081818Y-81305355D01*
X115975000Y-81284108D01*
X115975000Y-79602793D01*
X116065995Y-79511957D01*
X116149904Y-79309882D01*
X116150095Y-79091078D01*
X116066539Y-78888857D01*
X115911957Y-78734005D01*
X115709882Y-78650096D01*
X115491078Y-78649905D01*
X115317604Y-78721583D01*
X115351464Y-78670908D01*
X115380009Y-78527401D01*
X115380009Y-77171323D01*
X117070166Y-75481166D01*
X117151456Y-75359508D01*
X117180001Y-75216001D01*
X117180001Y-74109331D01*
X119850164Y-71439168D01*
X119862653Y-71420478D01*
X119982183Y-71599367D01*
X120339048Y-71837817D01*
X120760000Y-71921550D01*
X121180952Y-71837817D01*
X121537817Y-71599367D01*
X121776267Y-71242502D01*
X121860000Y-70821550D01*
X121860000Y-70778450D01*
X122200000Y-70778450D01*
X122200000Y-70821550D01*
X122283733Y-71242502D01*
X122522183Y-71599367D01*
X122879048Y-71837817D01*
X123300000Y-71921550D01*
X123720952Y-71837817D01*
X124077817Y-71599367D01*
X124316267Y-71242502D01*
X124400000Y-70821550D01*
X124400000Y-70778450D01*
X124740000Y-70778450D01*
X124740000Y-70821550D01*
X124823733Y-71242502D01*
X125062183Y-71599367D01*
X125419048Y-71837817D01*
X125840000Y-71921550D01*
X126260952Y-71837817D01*
X126617817Y-71599367D01*
X126856267Y-71242502D01*
X126940000Y-70821550D01*
X126940000Y-70778450D01*
X126856267Y-70357498D01*
X126617817Y-70000633D01*
X126260952Y-69762183D01*
X125840000Y-69678450D01*
X125419048Y-69762183D01*
X125062183Y-70000633D01*
X124823733Y-70357498D01*
X124740000Y-70778450D01*
X124400000Y-70778450D01*
X124316267Y-70357498D01*
X124077817Y-70000633D01*
X123720952Y-69762183D01*
X123300000Y-69678450D01*
X122879048Y-69762183D01*
X122522183Y-70000633D01*
X122283733Y-70357498D01*
X122200000Y-70778450D01*
X121860000Y-70778450D01*
X121776267Y-70357498D01*
X121537817Y-70000633D01*
X121252517Y-69810001D01*
X122124999Y-69810001D01*
X122268506Y-69781456D01*
X122390164Y-69700166D01*
X122827174Y-69263156D01*
X122879048Y-69297817D01*
X123300000Y-69381550D01*
X123720952Y-69297817D01*
X124077817Y-69059367D01*
X124316267Y-68702502D01*
X124400000Y-68281550D01*
X124400000Y-68238450D01*
X124316267Y-67817498D01*
X124077817Y-67460633D01*
X124076868Y-67459999D01*
X125063132Y-67459999D01*
X125062183Y-67460633D01*
X124823733Y-67817498D01*
X124740000Y-68238450D01*
X124740000Y-68281550D01*
X124823733Y-68702502D01*
X125062183Y-69059367D01*
X125419048Y-69297817D01*
X125840000Y-69381550D01*
X126260952Y-69297817D01*
X126617817Y-69059367D01*
X126856267Y-68702502D01*
X126940000Y-68281550D01*
X126940000Y-68238450D01*
X126856267Y-67817498D01*
X126617817Y-67460633D01*
X126616868Y-67459999D01*
X131328671Y-67459999D01*
X131909999Y-68041327D01*
X131909999Y-69624999D01*
X131938544Y-69768506D01*
X132019834Y-69890164D01*
X132461131Y-70331461D01*
X132443733Y-70357498D01*
X132360000Y-70778450D01*
X132360000Y-70821550D01*
X132443733Y-71242502D01*
X132682183Y-71599367D01*
X133021316Y-71825969D01*
X131358684Y-71825969D01*
X131697817Y-71599367D01*
X131936267Y-71242502D01*
X132020000Y-70821550D01*
X132020000Y-70778450D01*
X131936267Y-70357498D01*
X131697817Y-70000633D01*
X131340952Y-69762183D01*
X130920000Y-69678450D01*
X130499048Y-69762183D01*
X130142183Y-70000633D01*
X129903733Y-70357498D01*
X129820000Y-70778450D01*
X129820000Y-70821550D01*
X129903733Y-71242502D01*
X130142183Y-71599367D01*
X130481316Y-71825969D01*
X128818684Y-71825969D01*
X129157817Y-71599367D01*
X129396267Y-71242502D01*
X129480000Y-70821550D01*
X129480000Y-70778450D01*
X129396267Y-70357498D01*
X129157817Y-70000633D01*
X128800952Y-69762183D01*
X128380000Y-69678450D01*
X127959048Y-69762183D01*
X127602183Y-70000633D01*
X127363733Y-70357498D01*
X127280000Y-70778450D01*
X127280000Y-70821550D01*
X127363733Y-71242502D01*
X127602183Y-71599367D01*
X127959048Y-71837817D01*
X128142038Y-71874216D01*
X128049866Y-71935804D01*
X126276884Y-73708786D01*
X126241818Y-73685355D01*
X125840000Y-73605429D01*
X125438182Y-73685355D01*
X125097538Y-73912967D01*
X124869926Y-74253611D01*
X124790000Y-74655429D01*
X124790000Y-74696571D01*
X124869926Y-75098389D01*
X125097538Y-75439033D01*
X125438182Y-75666645D01*
X125840000Y-75746571D01*
X126241818Y-75666645D01*
X126582462Y-75439033D01*
X126810074Y-75098389D01*
X126890000Y-74696571D01*
X126890000Y-74655429D01*
X126810074Y-74253611D01*
X126803123Y-74243207D01*
X128470361Y-72575969D01*
X129949701Y-72575969D01*
X128816884Y-73708786D01*
X128781818Y-73685355D01*
X128380000Y-73605429D01*
X127978182Y-73685355D01*
X127637538Y-73912967D01*
X127409926Y-74253611D01*
X127330000Y-74655429D01*
X127330000Y-74696571D01*
X127409926Y-75098389D01*
X127637538Y-75439033D01*
X127978182Y-75666645D01*
X128380000Y-75746571D01*
X128781818Y-75666645D01*
X129122462Y-75439033D01*
X129350074Y-75098389D01*
X129430000Y-74696571D01*
X129430000Y-74655429D01*
X129350074Y-74253611D01*
X129343123Y-74243207D01*
X130560351Y-73025979D01*
X132039691Y-73025979D01*
X131356884Y-73708786D01*
X131321818Y-73685355D01*
X130920000Y-73605429D01*
X130518182Y-73685355D01*
X130177538Y-73912967D01*
X129949926Y-74253611D01*
X129870000Y-74655429D01*
X129870000Y-74696571D01*
X129949926Y-75098389D01*
X130177538Y-75439033D01*
X130518182Y-75666645D01*
X130920000Y-75746571D01*
X131321818Y-75666645D01*
X131662462Y-75439033D01*
X131890074Y-75098389D01*
X131970000Y-74696571D01*
X131970000Y-74655429D01*
X131890074Y-74253611D01*
X131883123Y-74243207D01*
X132650341Y-73475989D01*
X134129681Y-73475989D01*
X133896884Y-73708786D01*
X133861818Y-73685355D01*
X133460000Y-73605429D01*
X133058182Y-73685355D01*
X132717538Y-73912967D01*
X132489926Y-74253611D01*
X132410000Y-74655429D01*
X132410000Y-74696571D01*
X132489926Y-75098389D01*
X132717538Y-75439033D01*
X133058182Y-75666645D01*
X133460000Y-75746571D01*
X133861818Y-75666645D01*
X134202462Y-75439033D01*
X134430074Y-75098389D01*
X134510000Y-74696571D01*
X134510000Y-74655429D01*
X134430074Y-74253611D01*
X134423123Y-74243207D01*
X134740331Y-73925999D01*
X135248830Y-73925999D01*
X135029926Y-74253611D01*
X134950000Y-74655429D01*
X134950000Y-74696571D01*
X135029926Y-75098389D01*
X135257538Y-75439033D01*
X135598182Y-75666645D01*
X136000000Y-75746571D01*
X136401818Y-75666645D01*
X136742462Y-75439033D01*
X136950278Y-75128016D01*
X141934990Y-80112728D01*
X141934990Y-83834680D01*
X141143436Y-84626234D01*
X141062146Y-84747892D01*
X141062146Y-84747893D01*
X141033601Y-84891399D01*
X141033601Y-85419076D01*
X141029251Y-85412566D01*
X140667973Y-85171168D01*
X140241817Y-85086400D01*
X140198183Y-85086400D01*
X139772027Y-85171168D01*
X139410749Y-85412566D01*
X139302214Y-85575000D01*
X136200000Y-85575000D01*
X135960822Y-85622575D01*
X135897082Y-85665165D01*
X135758058Y-85758058D01*
X135758056Y-85758061D01*
X134871013Y-86645103D01*
X133900000Y-86645103D01*
X133807356Y-86662535D01*
X133722268Y-86717288D01*
X133665185Y-86800831D01*
X133645103Y-86900000D01*
X133645103Y-88500000D01*
X133662535Y-88592644D01*
X133717288Y-88677732D01*
X133800831Y-88734815D01*
X133900000Y-88754897D01*
X135500000Y-88754897D01*
X135592644Y-88737465D01*
X135677732Y-88682712D01*
X135734815Y-88599169D01*
X135754897Y-88500000D01*
X135754897Y-87528987D01*
X136458883Y-86825000D01*
X139302214Y-86825000D01*
X139410749Y-86987434D01*
X139772027Y-87228832D01*
X140198183Y-87313600D01*
X140241817Y-87313600D01*
X140667973Y-87228832D01*
X141029251Y-86987434D01*
X141033601Y-86980924D01*
X141033601Y-87388601D01*
X141062146Y-87532108D01*
X141143436Y-87653766D01*
X141747067Y-88257397D01*
X141709351Y-88313844D01*
X141624583Y-88740000D01*
X141709351Y-89166156D01*
X141950749Y-89527434D01*
X141989911Y-89553601D01*
X131756514Y-89553601D01*
X131777817Y-89539367D01*
X132016267Y-89182502D01*
X132100000Y-88761550D01*
X132100000Y-88718450D01*
X132016267Y-88297498D01*
X131777817Y-87940633D01*
X131420952Y-87702183D01*
X131000000Y-87618450D01*
X130579048Y-87702183D01*
X130527174Y-87736844D01*
X130090164Y-87299834D01*
X129968506Y-87218544D01*
X129824999Y-87189999D01*
X128952517Y-87189999D01*
X129237817Y-86999367D01*
X129476267Y-86642502D01*
X129560000Y-86221550D01*
X129560000Y-86178450D01*
X129476267Y-85757498D01*
X129237817Y-85400633D01*
X128880952Y-85162183D01*
X128460000Y-85078450D01*
X128039048Y-85162183D01*
X127682183Y-85400633D01*
X127443733Y-85757498D01*
X127360000Y-86178450D01*
X127360000Y-86221550D01*
X127443733Y-86642502D01*
X127682183Y-86999367D01*
X127967483Y-87189999D01*
X126412517Y-87189999D01*
X126697817Y-86999367D01*
X126936267Y-86642502D01*
X127020000Y-86221550D01*
X127020000Y-86178450D01*
X126936267Y-85757498D01*
X126697817Y-85400633D01*
X126340952Y-85162183D01*
X125920000Y-85078450D01*
X125499048Y-85162183D01*
X125142183Y-85400633D01*
X124903733Y-85757498D01*
X124820000Y-86178450D01*
X124820000Y-86221550D01*
X124903733Y-86642502D01*
X125142183Y-86999367D01*
X125427483Y-87189999D01*
X124835001Y-87189999D01*
X124691494Y-87218544D01*
X124569836Y-87299834D01*
X122044670Y-89825000D01*
X108355330Y-89825000D01*
X108075000Y-89544670D01*
X108075000Y-88885540D01*
X108184509Y-89150572D01*
X108507727Y-89474354D01*
X108930247Y-89649800D01*
X109387746Y-89650199D01*
X109810572Y-89475491D01*
X110134354Y-89152273D01*
X110309800Y-88729753D01*
X110310199Y-88272254D01*
X110135491Y-87849428D01*
X109884541Y-87598040D01*
X115099827Y-87598040D01*
X115251747Y-87965714D01*
X115532806Y-88247264D01*
X115900215Y-88399826D01*
X116298040Y-88400173D01*
X116665714Y-88248253D01*
X116947264Y-87967194D01*
X117027070Y-87775000D01*
X118196000Y-87775000D01*
X118339507Y-87746455D01*
X118461165Y-87665165D01*
X118528290Y-87598040D01*
X120099827Y-87598040D01*
X120251747Y-87965714D01*
X120532806Y-88247264D01*
X120900215Y-88399826D01*
X121298040Y-88400173D01*
X121665714Y-88248253D01*
X121947264Y-87967194D01*
X122099826Y-87599785D01*
X122100173Y-87201960D01*
X122020703Y-87009627D01*
X125692999Y-83337331D01*
X125840000Y-83366571D01*
X126241818Y-83286645D01*
X126582462Y-83059033D01*
X126810074Y-82718389D01*
X126890000Y-82316571D01*
X126890000Y-82275429D01*
X127330000Y-82275429D01*
X127330000Y-82316571D01*
X127409926Y-82718389D01*
X127637538Y-83059033D01*
X127978182Y-83286645D01*
X128380000Y-83366571D01*
X128781818Y-83286645D01*
X129122462Y-83059033D01*
X129350074Y-82718389D01*
X129430000Y-82316571D01*
X129430000Y-82275429D01*
X129870000Y-82275429D01*
X129870000Y-82316571D01*
X129949926Y-82718389D01*
X130177538Y-83059033D01*
X130518182Y-83286645D01*
X130920000Y-83366571D01*
X131321818Y-83286645D01*
X131662462Y-83059033D01*
X131890074Y-82718389D01*
X131970000Y-82316571D01*
X131970000Y-82275429D01*
X132410000Y-82275429D01*
X132410000Y-82316571D01*
X132489926Y-82718389D01*
X132717538Y-83059033D01*
X133058182Y-83286645D01*
X133460000Y-83366571D01*
X133861818Y-83286645D01*
X134202462Y-83059033D01*
X134430074Y-82718389D01*
X134510000Y-82316571D01*
X134510000Y-82275429D01*
X134950000Y-82275429D01*
X134950000Y-82316571D01*
X135029926Y-82718389D01*
X135257538Y-83059033D01*
X135598182Y-83286645D01*
X136000000Y-83366571D01*
X136401818Y-83286645D01*
X136667798Y-83108922D01*
X137349905Y-83108922D01*
X137433461Y-83311143D01*
X137588043Y-83465995D01*
X137790118Y-83549904D01*
X138008922Y-83550095D01*
X138211143Y-83466539D01*
X138302842Y-83375000D01*
X140597207Y-83375000D01*
X140688043Y-83465995D01*
X140890118Y-83549904D01*
X141108922Y-83550095D01*
X141311143Y-83466539D01*
X141465995Y-83311957D01*
X141549904Y-83109882D01*
X141550095Y-82891078D01*
X141466539Y-82688857D01*
X141311957Y-82534005D01*
X141109882Y-82450096D01*
X140891078Y-82449905D01*
X140688857Y-82533461D01*
X140597158Y-82625000D01*
X138302793Y-82625000D01*
X138211957Y-82534005D01*
X138009882Y-82450096D01*
X137791078Y-82449905D01*
X137588857Y-82533461D01*
X137434005Y-82688043D01*
X137350096Y-82890118D01*
X137349905Y-83108922D01*
X136667798Y-83108922D01*
X136742462Y-83059033D01*
X136970074Y-82718389D01*
X137050000Y-82316571D01*
X137050000Y-82275429D01*
X136970074Y-81873611D01*
X136742462Y-81532967D01*
X136401818Y-81305355D01*
X136000000Y-81225429D01*
X135598182Y-81305355D01*
X135257538Y-81532967D01*
X135029926Y-81873611D01*
X134950000Y-82275429D01*
X134510000Y-82275429D01*
X134430074Y-81873611D01*
X134202462Y-81532967D01*
X133861818Y-81305355D01*
X133460000Y-81225429D01*
X133058182Y-81305355D01*
X132717538Y-81532967D01*
X132489926Y-81873611D01*
X132410000Y-82275429D01*
X131970000Y-82275429D01*
X131890074Y-81873611D01*
X131662462Y-81532967D01*
X131321818Y-81305355D01*
X130920000Y-81225429D01*
X130518182Y-81305355D01*
X130177538Y-81532967D01*
X129949926Y-81873611D01*
X129870000Y-82275429D01*
X129430000Y-82275429D01*
X129350074Y-81873611D01*
X129122462Y-81532967D01*
X128781818Y-81305355D01*
X128380000Y-81225429D01*
X127978182Y-81305355D01*
X127637538Y-81532967D01*
X127409926Y-81873611D01*
X127330000Y-82275429D01*
X126890000Y-82275429D01*
X126810074Y-81873611D01*
X126803123Y-81863207D01*
X127865165Y-80801165D01*
X127887719Y-80767410D01*
X127929489Y-80704897D01*
X128225000Y-80704897D01*
X128317644Y-80687465D01*
X128402732Y-80632712D01*
X128459815Y-80549169D01*
X128479897Y-80450000D01*
X128479897Y-78950000D01*
X128462465Y-78857356D01*
X128407712Y-78772268D01*
X128324169Y-78715185D01*
X128225000Y-78695103D01*
X126975000Y-78695103D01*
X126882356Y-78712535D01*
X126797268Y-78767288D01*
X126740185Y-78850831D01*
X126720103Y-78950000D01*
X126720103Y-80450000D01*
X126737535Y-80542644D01*
X126792288Y-80627732D01*
X126875831Y-80684815D01*
X126913273Y-80692397D01*
X126276884Y-81328786D01*
X126241818Y-81305355D01*
X125840000Y-81225429D01*
X125438182Y-81305355D01*
X125097538Y-81532967D01*
X124869926Y-81873611D01*
X124790000Y-82275429D01*
X124790000Y-82316571D01*
X124869926Y-82718389D01*
X125022676Y-82946994D01*
X121490361Y-86479309D01*
X121299785Y-86400174D01*
X120901960Y-86399827D01*
X120534286Y-86551747D01*
X120252736Y-86832806D01*
X120100174Y-87200215D01*
X120099827Y-87598040D01*
X118528290Y-87598040D01*
X122863116Y-83263214D01*
X122898182Y-83286645D01*
X123300000Y-83366571D01*
X123701818Y-83286645D01*
X124042462Y-83059033D01*
X124270074Y-82718389D01*
X124350000Y-82316571D01*
X124350000Y-82275429D01*
X124270074Y-81873611D01*
X124263123Y-81863207D01*
X125421433Y-80704897D01*
X125925000Y-80704897D01*
X126017644Y-80687465D01*
X126102732Y-80632712D01*
X126159815Y-80549169D01*
X126179897Y-80450000D01*
X126179897Y-78950000D01*
X126162465Y-78857356D01*
X126107712Y-78772268D01*
X126024169Y-78715185D01*
X125925000Y-78695103D01*
X124675000Y-78695103D01*
X124582356Y-78712535D01*
X124497268Y-78767288D01*
X124440185Y-78850831D01*
X124420103Y-78950000D01*
X124420103Y-80450000D01*
X124437535Y-80542644D01*
X124471008Y-80594662D01*
X123736884Y-81328786D01*
X123701818Y-81305355D01*
X123300000Y-81225429D01*
X122898182Y-81305355D01*
X122557538Y-81532967D01*
X122329926Y-81873611D01*
X122250000Y-82275429D01*
X122250000Y-82316571D01*
X122329926Y-82718389D01*
X122336877Y-82728793D01*
X118040670Y-87025000D01*
X117027055Y-87025000D01*
X116948253Y-86834286D01*
X116667194Y-86552736D01*
X116299785Y-86400174D01*
X115901960Y-86399827D01*
X115534286Y-86551747D01*
X115252736Y-86832806D01*
X115100174Y-87200215D01*
X115099827Y-87598040D01*
X109884541Y-87598040D01*
X109812273Y-87525646D01*
X109575000Y-87427121D01*
X109575000Y-86204897D01*
X109950000Y-86204897D01*
X110042644Y-86187465D01*
X110127732Y-86132712D01*
X110184815Y-86049169D01*
X110204897Y-85950000D01*
X110204897Y-84650000D01*
X110187465Y-84557356D01*
X110132712Y-84472268D01*
X110049169Y-84415185D01*
X109950000Y-84395103D01*
X108450000Y-84395103D01*
X108357356Y-84412535D01*
X108272268Y-84467288D01*
X108215185Y-84550831D01*
X108195103Y-84650000D01*
X108195103Y-85950000D01*
X108212535Y-86042644D01*
X108267288Y-86127732D01*
X108350831Y-86184815D01*
X108450000Y-86204897D01*
X108825000Y-86204897D01*
X108825000Y-87394117D01*
X108509428Y-87524509D01*
X108185646Y-87847727D01*
X108075000Y-88114192D01*
X108075000Y-85174998D01*
X108057377Y-85086400D01*
X108046455Y-85031491D01*
X107965165Y-84909833D01*
X107090167Y-84034835D01*
X106968509Y-83953545D01*
X106825002Y-83925000D01*
X104089330Y-83925000D01*
X103515227Y-83350897D01*
X103780000Y-83350897D01*
X103872644Y-83333465D01*
X103957732Y-83278712D01*
X104014815Y-83195169D01*
X104034897Y-83096000D01*
X104034897Y-82275429D01*
X104470000Y-82275429D01*
X104470000Y-82316571D01*
X104549926Y-82718389D01*
X104777538Y-83059033D01*
X105118182Y-83286645D01*
X105520000Y-83366571D01*
X105921818Y-83286645D01*
X106262462Y-83059033D01*
X106490074Y-82718389D01*
X106570000Y-82316571D01*
X106570000Y-82275429D01*
X106490074Y-81873611D01*
X106262462Y-81532967D01*
X105921818Y-81305355D01*
X105520000Y-81225429D01*
X105118182Y-81305355D01*
X104777538Y-81532967D01*
X104549926Y-81873611D01*
X104470000Y-82275429D01*
X104034897Y-82275429D01*
X104034897Y-81496000D01*
X104017465Y-81403356D01*
X103962712Y-81318268D01*
X103879169Y-81261185D01*
X103780000Y-81241103D01*
X103575000Y-81241103D01*
X103575000Y-80954897D01*
X103850000Y-80954897D01*
X103942644Y-80937465D01*
X104027732Y-80882712D01*
X104084815Y-80799169D01*
X104104897Y-80700000D01*
X104104897Y-80175000D01*
X104520103Y-80175000D01*
X104520103Y-80550000D01*
X104537535Y-80642644D01*
X104592288Y-80727732D01*
X104675831Y-80784815D01*
X104775000Y-80804897D01*
X106025000Y-80804897D01*
X106117644Y-80787465D01*
X106202732Y-80732712D01*
X106259815Y-80649169D01*
X106279897Y-80550000D01*
X106279897Y-79050000D01*
X106262465Y-78957356D01*
X106207712Y-78872268D01*
X106124169Y-78815185D01*
X106025000Y-78795103D01*
X104775000Y-78795103D01*
X104682356Y-78812535D01*
X104597268Y-78867288D01*
X104540185Y-78950831D01*
X104520103Y-79050000D01*
X104520103Y-79425000D01*
X104104897Y-79425000D01*
X104104897Y-79200000D01*
X104087465Y-79107356D01*
X104032712Y-79022268D01*
X103949169Y-78965185D01*
X103850000Y-78945103D01*
X102550000Y-78945103D01*
X102457356Y-78962535D01*
X102372268Y-79017288D01*
X102315185Y-79100831D01*
X102295103Y-79200000D01*
X102295103Y-80700000D01*
X102312535Y-80792644D01*
X102367288Y-80877732D01*
X102450831Y-80934815D01*
X102550000Y-80954897D01*
X102825000Y-80954897D01*
X102825000Y-81241103D01*
X102180000Y-81241103D01*
X102087356Y-81258535D01*
X102002268Y-81313288D01*
X101975000Y-81353196D01*
X101975000Y-78105330D01*
X102295103Y-77785227D01*
X102295103Y-78000000D01*
X102312535Y-78092644D01*
X102367288Y-78177732D01*
X102450831Y-78234815D01*
X102550000Y-78254897D01*
X103850000Y-78254897D01*
X103942644Y-78237465D01*
X104027732Y-78182712D01*
X104084815Y-78099169D01*
X104104897Y-78000000D01*
X104104897Y-76500000D01*
X104087465Y-76407356D01*
X104032712Y-76322268D01*
X103949169Y-76265185D01*
X103850000Y-76245103D01*
X102550000Y-76245103D01*
X102457356Y-76262535D01*
X102372268Y-76317288D01*
X102315185Y-76400831D01*
X102295103Y-76500000D01*
X102295103Y-76875974D01*
X102156494Y-76903545D01*
X102156492Y-76903546D01*
X102156493Y-76903546D01*
X102034835Y-76984835D01*
X101334835Y-77684835D01*
X101253545Y-77806493D01*
X101253545Y-77806494D01*
X101225000Y-77950000D01*
X101225000Y-85400000D01*
X101253545Y-85543507D01*
X101334835Y-85665165D01*
X101894835Y-86225165D01*
X102016494Y-86306455D01*
X102160000Y-86335000D01*
X105095103Y-86335000D01*
X105095103Y-86810000D01*
X105112535Y-86902644D01*
X105167288Y-86987732D01*
X105250831Y-87044815D01*
X105350000Y-87064897D01*
X107050000Y-87064897D01*
X107142644Y-87047465D01*
X107227732Y-86992712D01*
X107284815Y-86909169D01*
X107304897Y-86810000D01*
X107304897Y-85310225D01*
X107325000Y-85330328D01*
X107325000Y-89700000D01*
X107353545Y-89843507D01*
X107434835Y-89965165D01*
X107934835Y-90465165D01*
X108056494Y-90546455D01*
X108200000Y-90575000D01*
X122200000Y-90575000D01*
X122343507Y-90546455D01*
X122465165Y-90465165D01*
X124990331Y-87939999D01*
X125143132Y-87939999D01*
X125142183Y-87940633D01*
X124903733Y-88297498D01*
X124820000Y-88718450D01*
X124820000Y-88761550D01*
X124903733Y-89182502D01*
X125142183Y-89539367D01*
X125499048Y-89777817D01*
X125920000Y-89861550D01*
X126340952Y-89777817D01*
X126392826Y-89743156D01*
X127293446Y-90643776D01*
X127340176Y-90675000D01*
X100325000Y-90675000D01*
X100325000Y-89421353D01*
X100503766Y-89421353D01*
X100708858Y-89917715D01*
X101088288Y-90297807D01*
X101584290Y-90503765D01*
X102121353Y-90504234D01*
X102617715Y-90299142D01*
X102997807Y-89919712D01*
X103203765Y-89423710D01*
X103204234Y-88886647D01*
X102999142Y-88390285D01*
X102619712Y-88010193D01*
X102123710Y-87804235D01*
X101586647Y-87803766D01*
X101090285Y-88008858D01*
X100710193Y-88388288D01*
X100504235Y-88884290D01*
X100503766Y-89421353D01*
X100325000Y-89421353D01*
X100325000Y-74655429D01*
X101930000Y-74655429D01*
X101930000Y-74696571D01*
X102009926Y-75098389D01*
X102237538Y-75439033D01*
X102578182Y-75666645D01*
X102980000Y-75746571D01*
X103381818Y-75666645D01*
X103722462Y-75439033D01*
X103925000Y-75135915D01*
X103925000Y-75200000D01*
X103953545Y-75343507D01*
X104034835Y-75465165D01*
X104864773Y-76295103D01*
X104775000Y-76295103D01*
X104682356Y-76312535D01*
X104597268Y-76367288D01*
X104540185Y-76450831D01*
X104520103Y-76550000D01*
X104520103Y-78050000D01*
X104537535Y-78142644D01*
X104592288Y-78227732D01*
X104675831Y-78284815D01*
X104775000Y-78304897D01*
X106025000Y-78304897D01*
X106117644Y-78287465D01*
X106202732Y-78232712D01*
X106259815Y-78149169D01*
X106279897Y-78050000D01*
X106279897Y-76550000D01*
X106262465Y-76457356D01*
X106207712Y-76372268D01*
X106124169Y-76315185D01*
X106025000Y-76295103D01*
X105774026Y-76295103D01*
X105746455Y-76156494D01*
X105746455Y-76156493D01*
X105665165Y-76034835D01*
X105341369Y-75711039D01*
X105520000Y-75746571D01*
X105921818Y-75666645D01*
X106262462Y-75439033D01*
X106425000Y-75195779D01*
X106425000Y-81036000D01*
X106453545Y-81179507D01*
X106534835Y-81301165D01*
X107096877Y-81863207D01*
X107089926Y-81873611D01*
X107010000Y-82275429D01*
X107010000Y-82316571D01*
X107089926Y-82718389D01*
X107317538Y-83059033D01*
X107658182Y-83286645D01*
X108060000Y-83366571D01*
X108461818Y-83286645D01*
X108802462Y-83059033D01*
X109030074Y-82718389D01*
X109110000Y-82316571D01*
X109110000Y-82275429D01*
X109030074Y-81873611D01*
X108802462Y-81532967D01*
X108461818Y-81305355D01*
X108060000Y-81225429D01*
X107658182Y-81305355D01*
X107623116Y-81328786D01*
X107175000Y-80880670D01*
X107175000Y-75225711D01*
X107317538Y-75439033D01*
X107658182Y-75666645D01*
X108060000Y-75746571D01*
X108461818Y-75666645D01*
X108802462Y-75439033D01*
X109030074Y-75098389D01*
X109110000Y-74696571D01*
X109110000Y-74655429D01*
X109550000Y-74655429D01*
X109550000Y-74696571D01*
X109629926Y-75098389D01*
X109857538Y-75439033D01*
X110198182Y-75666645D01*
X110600000Y-75746571D01*
X111001818Y-75666645D01*
X111342462Y-75439033D01*
X111570074Y-75098389D01*
X111650000Y-74696571D01*
X111650000Y-74655429D01*
X111570074Y-74253611D01*
X111342462Y-73912967D01*
X111001818Y-73685355D01*
X110975000Y-73680021D01*
X110975000Y-73495330D01*
X112667174Y-71803156D01*
X112719048Y-71837817D01*
X113140000Y-71921550D01*
X113560952Y-71837817D01*
X113917817Y-71599367D01*
X114156267Y-71242502D01*
X114240000Y-70821550D01*
X114240000Y-70778450D01*
X114156267Y-70357498D01*
X113917817Y-70000633D01*
X113560952Y-69762183D01*
X113140000Y-69678450D01*
X112719048Y-69762183D01*
X112362183Y-70000633D01*
X112123733Y-70357498D01*
X112040000Y-70778450D01*
X112040000Y-70821550D01*
X112123733Y-71242502D01*
X112141131Y-71268539D01*
X110334835Y-73074835D01*
X110253545Y-73196493D01*
X110235774Y-73285834D01*
X110225000Y-73340000D01*
X110225000Y-73680021D01*
X110198182Y-73685355D01*
X109857538Y-73912967D01*
X109629926Y-74253611D01*
X109550000Y-74655429D01*
X109110000Y-74655429D01*
X109030074Y-74253611D01*
X108802462Y-73912967D01*
X108461818Y-73685355D01*
X108435000Y-73680021D01*
X108435000Y-73495330D01*
X110127174Y-71803156D01*
X110179048Y-71837817D01*
X110600000Y-71921550D01*
X111020952Y-71837817D01*
X111377817Y-71599367D01*
X111616267Y-71242502D01*
X111700000Y-70821550D01*
X111700000Y-70778450D01*
X111616267Y-70357498D01*
X111377817Y-70000633D01*
X111020952Y-69762183D01*
X110600000Y-69678450D01*
X110179048Y-69762183D01*
X109822183Y-70000633D01*
X109675000Y-70220908D01*
X109675000Y-69500000D01*
X109646455Y-69356494D01*
X109565165Y-69234835D01*
X109058869Y-68728539D01*
X109076267Y-68702502D01*
X109160000Y-68281550D01*
X109160000Y-68238450D01*
X109500000Y-68238450D01*
X109500000Y-68281550D01*
X109583733Y-68702502D01*
X109822183Y-69059367D01*
X110179048Y-69297817D01*
X110600000Y-69381550D01*
X111020952Y-69297817D01*
X111377817Y-69059367D01*
X111616267Y-68702502D01*
X111700000Y-68281550D01*
X111700000Y-68238450D01*
X111616267Y-67817498D01*
X111377817Y-67460633D01*
X111020952Y-67222183D01*
X110600000Y-67138450D01*
X110179048Y-67222183D01*
X109822183Y-67460633D01*
X109583733Y-67817498D01*
X109500000Y-68238450D01*
X109160000Y-68238450D01*
X109076267Y-67817498D01*
X108837817Y-67460633D01*
X108480952Y-67222183D01*
X108060000Y-67138450D01*
X107639048Y-67222183D01*
X107282183Y-67460633D01*
X107043733Y-67817498D01*
X106960000Y-68238450D01*
X106960000Y-68281550D01*
X107043733Y-68702502D01*
X107282183Y-69059367D01*
X107639048Y-69297817D01*
X108060000Y-69381550D01*
X108480952Y-69297817D01*
X108532826Y-69263156D01*
X108925000Y-69655330D01*
X108925000Y-70131111D01*
X108837817Y-70000633D01*
X108480952Y-69762183D01*
X108060000Y-69678450D01*
X107639048Y-69762183D01*
X107282183Y-70000633D01*
X107043733Y-70357498D01*
X106960000Y-70778450D01*
X106960000Y-70821550D01*
X107043733Y-71242502D01*
X107061131Y-71268539D01*
X106610989Y-71718681D01*
X106624897Y-71650000D01*
X106624897Y-69950000D01*
X106607465Y-69857356D01*
X106552712Y-69772268D01*
X106469169Y-69715185D01*
X106370000Y-69695103D01*
X104670000Y-69695103D01*
X104602532Y-69707798D01*
X105047174Y-69263156D01*
X105099048Y-69297817D01*
X105520000Y-69381550D01*
X105940952Y-69297817D01*
X106297817Y-69059367D01*
X106536267Y-68702502D01*
X106620000Y-68281550D01*
X106620000Y-68238450D01*
X106536267Y-67817498D01*
X106297817Y-67460633D01*
X105940952Y-67222183D01*
X105520000Y-67138450D01*
X105099048Y-67222183D01*
X104742183Y-67460633D01*
X104503733Y-67817498D01*
X104420000Y-68238450D01*
X104420000Y-68281550D01*
X104503733Y-68702502D01*
X104521131Y-68728539D01*
X103734835Y-69514835D01*
X103653545Y-69636493D01*
X103637892Y-69715185D01*
X103625000Y-69780000D01*
X103625000Y-73000000D01*
X103653545Y-73143507D01*
X103734835Y-73265165D01*
X103925000Y-73455330D01*
X103925000Y-74216085D01*
X103722462Y-73912967D01*
X103381818Y-73685355D01*
X102980000Y-73605429D01*
X102578182Y-73685355D01*
X102237538Y-73912967D01*
X102009926Y-74253611D01*
X101930000Y-74655429D01*
X100325000Y-74655429D01*
X100325000Y-68085353D01*
X100503766Y-68085353D01*
X100708858Y-68581715D01*
X101088288Y-68961807D01*
X101584290Y-69167765D01*
X102121353Y-69168234D01*
X102617715Y-68963142D01*
X102997807Y-68583712D01*
X103203765Y-68087710D01*
X103204234Y-67550647D01*
X102999142Y-67054285D01*
X102619712Y-66674193D01*
X102123710Y-66468235D01*
X101586647Y-66467766D01*
X101090285Y-66672858D01*
X100710193Y-67052288D01*
X100504235Y-67548290D01*
X100503766Y-68085353D01*
X100325000Y-68085353D01*
X100325000Y-66325000D01*
X138746422Y-66325000D01*
X138650006Y-72399206D01*
M02*
