G04 #@! TF.FileFunction,Legend,Top*
%FSLAX46Y46*%
G04 Gerber Fmt 4.6, Leading zero omitted, Abs format (unit mm)*
G04 Created by KiCad (PCBNEW 4.0.6) date 05/18/17 21:56:45*
%MOMM*%
%LPD*%
G01*
G04 APERTURE LIST*
%ADD10C,0.100000*%
%ADD11C,0.200000*%
%ADD12C,0.150000*%
%ADD13C,0.120000*%
G04 APERTURE END LIST*
D10*
D11*
X119700000Y-69400000D02*
X104300000Y-69400000D01*
D12*
X101042858Y-86207143D02*
X101042858Y-85307143D01*
X101385715Y-85307143D01*
X101471429Y-85350000D01*
X101514286Y-85392857D01*
X101557143Y-85478571D01*
X101557143Y-85607143D01*
X101514286Y-85692857D01*
X101471429Y-85735714D01*
X101385715Y-85778571D01*
X101042858Y-85778571D01*
X101857143Y-85307143D02*
X102071429Y-86207143D01*
X102242858Y-85564286D01*
X102414286Y-86207143D01*
X102628572Y-85307143D01*
X103485714Y-86207143D02*
X103185714Y-85778571D01*
X102971429Y-86207143D02*
X102971429Y-85307143D01*
X103314286Y-85307143D01*
X103400000Y-85350000D01*
X103442857Y-85392857D01*
X103485714Y-85478571D01*
X103485714Y-85607143D01*
X103442857Y-85692857D01*
X103400000Y-85735714D01*
X103314286Y-85778571D01*
X102971429Y-85778571D01*
X103871429Y-85864286D02*
X104557143Y-85864286D01*
X104214286Y-86207143D02*
X104214286Y-85521429D01*
X107957143Y-89864286D02*
X108642857Y-89864286D01*
X108300000Y-90207143D02*
X108300000Y-89521429D01*
X141707143Y-82071427D02*
X141878571Y-82071427D01*
X141707143Y-81728570D02*
X141878571Y-81728570D01*
X141707143Y-81471428D02*
X141707143Y-80957142D01*
X142607143Y-81214285D02*
X141707143Y-81214285D01*
X142007143Y-80271428D02*
X142607143Y-80271428D01*
X142007143Y-80657142D02*
X142478571Y-80657142D01*
X142564286Y-80614285D01*
X142607143Y-80528571D01*
X142607143Y-80399999D01*
X142564286Y-80314285D01*
X142521429Y-80271428D01*
X142607143Y-79842856D02*
X142007143Y-79842856D01*
X142178571Y-79842856D02*
X142092857Y-79799999D01*
X142050000Y-79757142D01*
X142007143Y-79671428D01*
X142007143Y-79585713D01*
X142607143Y-79285713D02*
X141707143Y-79285713D01*
X142264286Y-79199999D02*
X142607143Y-78942856D01*
X142007143Y-78942856D02*
X142350000Y-79285713D01*
X142607143Y-78557142D02*
X142007143Y-78557142D01*
X141707143Y-78557142D02*
X141750000Y-78599999D01*
X141792857Y-78557142D01*
X141750000Y-78514285D01*
X141707143Y-78557142D01*
X141792857Y-78557142D01*
X142564286Y-78171428D02*
X142607143Y-78085714D01*
X142607143Y-77914286D01*
X142564286Y-77828571D01*
X142478571Y-77785714D01*
X142435714Y-77785714D01*
X142350000Y-77828571D01*
X142307143Y-77914286D01*
X142307143Y-78042857D01*
X142264286Y-78128571D01*
X142178571Y-78171428D01*
X142135714Y-78171428D01*
X142050000Y-78128571D01*
X142007143Y-78042857D01*
X142007143Y-77914286D01*
X142050000Y-77828571D01*
X142607143Y-77400000D02*
X141707143Y-77400000D01*
X142607143Y-77014286D02*
X142135714Y-77014286D01*
X142050000Y-77057143D01*
X142007143Y-77142857D01*
X142007143Y-77271429D01*
X142050000Y-77357143D01*
X142092857Y-77400000D01*
X142564286Y-75942857D02*
X142607143Y-75857143D01*
X142607143Y-75685715D01*
X142564286Y-75600000D01*
X142478571Y-75557143D01*
X142435714Y-75557143D01*
X142350000Y-75600000D01*
X142307143Y-75685715D01*
X142307143Y-75814286D01*
X142264286Y-75900000D01*
X142178571Y-75942857D01*
X142135714Y-75942857D01*
X142050000Y-75900000D01*
X142007143Y-75814286D01*
X142007143Y-75685715D01*
X142050000Y-75600000D01*
X142007143Y-74785715D02*
X142607143Y-74785715D01*
X142007143Y-75171429D02*
X142478571Y-75171429D01*
X142564286Y-75128572D01*
X142607143Y-75042858D01*
X142607143Y-74914286D01*
X142564286Y-74828572D01*
X142521429Y-74785715D01*
X142607143Y-74357143D02*
X142007143Y-74357143D01*
X142092857Y-74357143D02*
X142050000Y-74314286D01*
X142007143Y-74228572D01*
X142007143Y-74100000D01*
X142050000Y-74014286D01*
X142135714Y-73971429D01*
X142607143Y-73971429D01*
X142135714Y-73971429D02*
X142050000Y-73928572D01*
X142007143Y-73842858D01*
X142007143Y-73714286D01*
X142050000Y-73628572D01*
X142135714Y-73585715D01*
X142607143Y-73585715D01*
X142607143Y-73157143D02*
X142007143Y-73157143D01*
X142092857Y-73157143D02*
X142050000Y-73114286D01*
X142007143Y-73028572D01*
X142007143Y-72900000D01*
X142050000Y-72814286D01*
X142135714Y-72771429D01*
X142607143Y-72771429D01*
X142135714Y-72771429D02*
X142050000Y-72728572D01*
X142007143Y-72642858D01*
X142007143Y-72514286D01*
X142050000Y-72428572D01*
X142135714Y-72385715D01*
X142607143Y-72385715D01*
X142564286Y-71614286D02*
X142607143Y-71700000D01*
X142607143Y-71871429D01*
X142564286Y-71957143D01*
X142478571Y-72000000D01*
X142135714Y-72000000D01*
X142050000Y-71957143D01*
X142007143Y-71871429D01*
X142007143Y-71700000D01*
X142050000Y-71614286D01*
X142135714Y-71571429D01*
X142221429Y-71571429D01*
X142307143Y-72000000D01*
X142607143Y-71185714D02*
X142007143Y-71185714D01*
X142178571Y-71185714D02*
X142092857Y-71142857D01*
X142050000Y-71100000D01*
X142007143Y-71014286D01*
X142007143Y-70928571D01*
X141707143Y-70671428D02*
X141878571Y-70671428D01*
X141707143Y-70328571D02*
X141878571Y-70328571D01*
X146907143Y-82214286D02*
X147507143Y-82000000D01*
X146907143Y-81785714D01*
X147507143Y-80971429D02*
X147507143Y-81485714D01*
X147507143Y-81228572D02*
X146607143Y-81228572D01*
X146735714Y-81314286D01*
X146821429Y-81400000D01*
X146864286Y-81485714D01*
X147421429Y-80585714D02*
X147464286Y-80542857D01*
X147507143Y-80585714D01*
X147464286Y-80628571D01*
X147421429Y-80585714D01*
X147507143Y-80585714D01*
X146607143Y-79728572D02*
X146607143Y-80157143D01*
X147035714Y-80200000D01*
X146992857Y-80157143D01*
X146950000Y-80071429D01*
X146950000Y-79857143D01*
X146992857Y-79771429D01*
X147035714Y-79728572D01*
X147121429Y-79685715D01*
X147335714Y-79685715D01*
X147421429Y-79728572D01*
X147464286Y-79771429D01*
X147507143Y-79857143D01*
X147507143Y-80071429D01*
X147464286Y-80157143D01*
X147421429Y-80200000D01*
X147164286Y-78614286D02*
X147164286Y-77928572D01*
X146607143Y-76642858D02*
X146607143Y-76557143D01*
X146650000Y-76471429D01*
X146692857Y-76428572D01*
X146778571Y-76385715D01*
X146950000Y-76342858D01*
X147164286Y-76342858D01*
X147335714Y-76385715D01*
X147421429Y-76428572D01*
X147464286Y-76471429D01*
X147507143Y-76557143D01*
X147507143Y-76642858D01*
X147464286Y-76728572D01*
X147421429Y-76771429D01*
X147335714Y-76814286D01*
X147164286Y-76857143D01*
X146950000Y-76857143D01*
X146778571Y-76814286D01*
X146692857Y-76771429D01*
X146650000Y-76728572D01*
X146607143Y-76642858D01*
X146607143Y-75528572D02*
X146607143Y-75957143D01*
X147035714Y-76000000D01*
X146992857Y-75957143D01*
X146950000Y-75871429D01*
X146950000Y-75657143D01*
X146992857Y-75571429D01*
X147035714Y-75528572D01*
X147121429Y-75485715D01*
X147335714Y-75485715D01*
X147421429Y-75528572D01*
X147464286Y-75571429D01*
X147507143Y-75657143D01*
X147507143Y-75871429D01*
X147464286Y-75957143D01*
X147421429Y-76000000D01*
X147421429Y-75100000D02*
X147464286Y-75057143D01*
X147507143Y-75100000D01*
X147464286Y-75142857D01*
X147421429Y-75100000D01*
X147507143Y-75100000D01*
X146692857Y-74714286D02*
X146650000Y-74671429D01*
X146607143Y-74585715D01*
X146607143Y-74371429D01*
X146650000Y-74285715D01*
X146692857Y-74242858D01*
X146778571Y-74200001D01*
X146864286Y-74200001D01*
X146992857Y-74242858D01*
X147507143Y-74757144D01*
X147507143Y-74200001D01*
X146607143Y-73642858D02*
X146607143Y-73557143D01*
X146650000Y-73471429D01*
X146692857Y-73428572D01*
X146778571Y-73385715D01*
X146950000Y-73342858D01*
X147164286Y-73342858D01*
X147335714Y-73385715D01*
X147421429Y-73428572D01*
X147464286Y-73471429D01*
X147507143Y-73557143D01*
X147507143Y-73642858D01*
X147464286Y-73728572D01*
X147421429Y-73771429D01*
X147335714Y-73814286D01*
X147164286Y-73857143D01*
X146950000Y-73857143D01*
X146778571Y-73814286D01*
X146692857Y-73771429D01*
X146650000Y-73728572D01*
X146607143Y-73642858D01*
X147507143Y-72485715D02*
X147507143Y-73000000D01*
X147507143Y-72742858D02*
X146607143Y-72742858D01*
X146735714Y-72828572D01*
X146821429Y-72914286D01*
X146864286Y-73000000D01*
X146607143Y-72185715D02*
X146607143Y-71585715D01*
X147507143Y-71971429D01*
X139707143Y-80535714D02*
X139921429Y-80535714D01*
X139835714Y-80750000D02*
X139921429Y-80535714D01*
X139835714Y-80321428D01*
X140092857Y-80664285D02*
X139921429Y-80535714D01*
X140092857Y-80407142D01*
X140607143Y-78778572D02*
X140178571Y-79078572D01*
X140607143Y-79292857D02*
X139707143Y-79292857D01*
X139707143Y-78950000D01*
X139750000Y-78864286D01*
X139792857Y-78821429D01*
X139878571Y-78778572D01*
X140007143Y-78778572D01*
X140092857Y-78821429D01*
X140135714Y-78864286D01*
X140178571Y-78950000D01*
X140178571Y-79292857D01*
X140135714Y-78092857D02*
X140135714Y-78392857D01*
X140607143Y-78392857D02*
X139707143Y-78392857D01*
X139707143Y-77964286D01*
X140692857Y-77835714D02*
X140692857Y-77150000D01*
X140607143Y-76935714D02*
X139707143Y-76935714D01*
X140607143Y-76421429D01*
X139707143Y-76421429D01*
X139707143Y-75821429D02*
X139707143Y-75650000D01*
X139750000Y-75564286D01*
X139835714Y-75478572D01*
X140007143Y-75435714D01*
X140307143Y-75435714D01*
X140478571Y-75478572D01*
X140564286Y-75564286D01*
X140607143Y-75650000D01*
X140607143Y-75821429D01*
X140564286Y-75907143D01*
X140478571Y-75992857D01*
X140307143Y-76035714D01*
X140007143Y-76035714D01*
X139835714Y-75992857D01*
X139750000Y-75907143D01*
X139707143Y-75821429D01*
X140607143Y-75050000D02*
X139707143Y-75050000D01*
X139707143Y-74835715D01*
X139750000Y-74707143D01*
X139835714Y-74621429D01*
X139921429Y-74578572D01*
X140092857Y-74535715D01*
X140221429Y-74535715D01*
X140392857Y-74578572D01*
X140478571Y-74621429D01*
X140564286Y-74707143D01*
X140607143Y-74835715D01*
X140607143Y-75050000D01*
X140135714Y-74150000D02*
X140135714Y-73850000D01*
X140607143Y-73721429D02*
X140607143Y-74150000D01*
X139707143Y-74150000D01*
X139707143Y-73721429D01*
X139792857Y-73378571D02*
X139750000Y-73335714D01*
X139707143Y-73250000D01*
X139707143Y-73035714D01*
X139750000Y-72950000D01*
X139792857Y-72907143D01*
X139878571Y-72864286D01*
X139964286Y-72864286D01*
X140092857Y-72907143D01*
X140607143Y-73421429D01*
X140607143Y-72864286D01*
X139707143Y-71664286D02*
X139921429Y-71664286D01*
X139835714Y-71878572D02*
X139921429Y-71664286D01*
X139835714Y-71450000D01*
X140092857Y-71792857D02*
X139921429Y-71664286D01*
X140092857Y-71535714D01*
X144307143Y-83964286D02*
X144907143Y-83792857D01*
X144478571Y-83621428D01*
X144907143Y-83450000D01*
X144307143Y-83278571D01*
X144307143Y-83021429D02*
X144907143Y-82850000D01*
X144478571Y-82678571D01*
X144907143Y-82507143D01*
X144307143Y-82335714D01*
X144307143Y-82078572D02*
X144907143Y-81907143D01*
X144478571Y-81735714D01*
X144907143Y-81564286D01*
X144307143Y-81392857D01*
X144821429Y-81050000D02*
X144864286Y-81007143D01*
X144907143Y-81050000D01*
X144864286Y-81092857D01*
X144821429Y-81050000D01*
X144907143Y-81050000D01*
X144307143Y-80235715D02*
X145035714Y-80235715D01*
X145121429Y-80278572D01*
X145164286Y-80321429D01*
X145207143Y-80407144D01*
X145207143Y-80535715D01*
X145164286Y-80621429D01*
X144864286Y-80235715D02*
X144907143Y-80321429D01*
X144907143Y-80492858D01*
X144864286Y-80578572D01*
X144821429Y-80621429D01*
X144735714Y-80664286D01*
X144478571Y-80664286D01*
X144392857Y-80621429D01*
X144350000Y-80578572D01*
X144307143Y-80492858D01*
X144307143Y-80321429D01*
X144350000Y-80235715D01*
X144907143Y-79807143D02*
X144307143Y-79807143D01*
X144007143Y-79807143D02*
X144050000Y-79850000D01*
X144092857Y-79807143D01*
X144050000Y-79764286D01*
X144007143Y-79807143D01*
X144092857Y-79807143D01*
X144307143Y-79507144D02*
X144307143Y-79164287D01*
X144007143Y-79378572D02*
X144778571Y-79378572D01*
X144864286Y-79335715D01*
X144907143Y-79250001D01*
X144907143Y-79164287D01*
X144907143Y-78864286D02*
X144007143Y-78864286D01*
X144907143Y-78478572D02*
X144435714Y-78478572D01*
X144350000Y-78521429D01*
X144307143Y-78607143D01*
X144307143Y-78735715D01*
X144350000Y-78821429D01*
X144392857Y-78864286D01*
X144307143Y-77664286D02*
X144907143Y-77664286D01*
X144307143Y-78050000D02*
X144778571Y-78050000D01*
X144864286Y-78007143D01*
X144907143Y-77921429D01*
X144907143Y-77792857D01*
X144864286Y-77707143D01*
X144821429Y-77664286D01*
X144907143Y-77235714D02*
X144007143Y-77235714D01*
X144350000Y-77235714D02*
X144307143Y-77150000D01*
X144307143Y-76978571D01*
X144350000Y-76892857D01*
X144392857Y-76850000D01*
X144478571Y-76807143D01*
X144735714Y-76807143D01*
X144821429Y-76850000D01*
X144864286Y-76892857D01*
X144907143Y-76978571D01*
X144907143Y-77150000D01*
X144864286Y-77235714D01*
X144821429Y-76421428D02*
X144864286Y-76378571D01*
X144907143Y-76421428D01*
X144864286Y-76464285D01*
X144821429Y-76421428D01*
X144907143Y-76421428D01*
X144864286Y-75607143D02*
X144907143Y-75692857D01*
X144907143Y-75864286D01*
X144864286Y-75950000D01*
X144821429Y-75992857D01*
X144735714Y-76035714D01*
X144478571Y-76035714D01*
X144392857Y-75992857D01*
X144350000Y-75950000D01*
X144307143Y-75864286D01*
X144307143Y-75692857D01*
X144350000Y-75607143D01*
X144907143Y-75092857D02*
X144864286Y-75178571D01*
X144821429Y-75221428D01*
X144735714Y-75264285D01*
X144478571Y-75264285D01*
X144392857Y-75221428D01*
X144350000Y-75178571D01*
X144307143Y-75092857D01*
X144307143Y-74964285D01*
X144350000Y-74878571D01*
X144392857Y-74835714D01*
X144478571Y-74792857D01*
X144735714Y-74792857D01*
X144821429Y-74835714D01*
X144864286Y-74878571D01*
X144907143Y-74964285D01*
X144907143Y-75092857D01*
X144907143Y-74407142D02*
X144307143Y-74407142D01*
X144392857Y-74407142D02*
X144350000Y-74364285D01*
X144307143Y-74278571D01*
X144307143Y-74149999D01*
X144350000Y-74064285D01*
X144435714Y-74021428D01*
X144907143Y-74021428D01*
X144435714Y-74021428D02*
X144350000Y-73978571D01*
X144307143Y-73892857D01*
X144307143Y-73764285D01*
X144350000Y-73678571D01*
X144435714Y-73635714D01*
X144907143Y-73635714D01*
X143964286Y-72564285D02*
X145121429Y-73335714D01*
X144864286Y-72307142D02*
X144907143Y-72221428D01*
X144907143Y-72050000D01*
X144864286Y-71964285D01*
X144778571Y-71921428D01*
X144735714Y-71921428D01*
X144650000Y-71964285D01*
X144607143Y-72050000D01*
X144607143Y-72178571D01*
X144564286Y-72264285D01*
X144478571Y-72307142D01*
X144435714Y-72307142D01*
X144350000Y-72264285D01*
X144307143Y-72178571D01*
X144307143Y-72050000D01*
X144350000Y-71964285D01*
X144864286Y-71192857D02*
X144907143Y-71278571D01*
X144907143Y-71450000D01*
X144864286Y-71535714D01*
X144778571Y-71578571D01*
X144435714Y-71578571D01*
X144350000Y-71535714D01*
X144307143Y-71450000D01*
X144307143Y-71278571D01*
X144350000Y-71192857D01*
X144435714Y-71150000D01*
X144521429Y-71150000D01*
X144607143Y-71578571D01*
X144907143Y-70764285D02*
X144307143Y-70764285D01*
X144478571Y-70764285D02*
X144392857Y-70721428D01*
X144350000Y-70678571D01*
X144307143Y-70592857D01*
X144307143Y-70507142D01*
X144307143Y-70292857D02*
X144907143Y-70078571D01*
X144307143Y-69864285D01*
X144864286Y-69178571D02*
X144907143Y-69264285D01*
X144907143Y-69435714D01*
X144864286Y-69521428D01*
X144778571Y-69564285D01*
X144435714Y-69564285D01*
X144350000Y-69521428D01*
X144307143Y-69435714D01*
X144307143Y-69264285D01*
X144350000Y-69178571D01*
X144435714Y-69135714D01*
X144521429Y-69135714D01*
X144607143Y-69564285D01*
X144907143Y-68749999D02*
X144307143Y-68749999D01*
X144478571Y-68749999D02*
X144392857Y-68707142D01*
X144350000Y-68664285D01*
X144307143Y-68578571D01*
X144307143Y-68492856D01*
X144907143Y-68064285D02*
X144864286Y-68149999D01*
X144821429Y-68192856D01*
X144735714Y-68235713D01*
X144478571Y-68235713D01*
X144392857Y-68192856D01*
X144350000Y-68149999D01*
X144307143Y-68064285D01*
X144307143Y-67935713D01*
X144350000Y-67849999D01*
X144392857Y-67807142D01*
X144478571Y-67764285D01*
X144735714Y-67764285D01*
X144821429Y-67807142D01*
X144864286Y-67849999D01*
X144907143Y-67935713D01*
X144907143Y-68064285D01*
X144307143Y-67464285D02*
X144907143Y-67249999D01*
X144307143Y-67035713D01*
X131207143Y-90607143D02*
X130907143Y-90178571D01*
X130692858Y-90607143D02*
X130692858Y-89707143D01*
X131035715Y-89707143D01*
X131121429Y-89750000D01*
X131164286Y-89792857D01*
X131207143Y-89878571D01*
X131207143Y-90007143D01*
X131164286Y-90092857D01*
X131121429Y-90135714D01*
X131035715Y-90178571D01*
X130692858Y-90178571D01*
X131550001Y-90564286D02*
X131678572Y-90607143D01*
X131892858Y-90607143D01*
X131978572Y-90564286D01*
X132021429Y-90521429D01*
X132064286Y-90435714D01*
X132064286Y-90350000D01*
X132021429Y-90264286D01*
X131978572Y-90221429D01*
X131892858Y-90178571D01*
X131721429Y-90135714D01*
X131635715Y-90092857D01*
X131592858Y-90050000D01*
X131550001Y-89964286D01*
X131550001Y-89878571D01*
X131592858Y-89792857D01*
X131635715Y-89750000D01*
X131721429Y-89707143D01*
X131935715Y-89707143D01*
X132064286Y-89750000D01*
X132321429Y-89707143D02*
X132835715Y-89707143D01*
X132578572Y-90607143D02*
X132578572Y-89707143D01*
X127342858Y-90564286D02*
X127471429Y-90607143D01*
X127685715Y-90607143D01*
X127771429Y-90564286D01*
X127814286Y-90521429D01*
X127857143Y-90435714D01*
X127857143Y-90350000D01*
X127814286Y-90264286D01*
X127771429Y-90221429D01*
X127685715Y-90178571D01*
X127514286Y-90135714D01*
X127428572Y-90092857D01*
X127385715Y-90050000D01*
X127342858Y-89964286D01*
X127342858Y-89878571D01*
X127385715Y-89792857D01*
X127428572Y-89750000D01*
X127514286Y-89707143D01*
X127728572Y-89707143D01*
X127857143Y-89750000D01*
X128757143Y-90521429D02*
X128714286Y-90564286D01*
X128585715Y-90607143D01*
X128500001Y-90607143D01*
X128371429Y-90564286D01*
X128285715Y-90478571D01*
X128242858Y-90392857D01*
X128200001Y-90221429D01*
X128200001Y-90092857D01*
X128242858Y-89921429D01*
X128285715Y-89835714D01*
X128371429Y-89750000D01*
X128500001Y-89707143D01*
X128585715Y-89707143D01*
X128714286Y-89750000D01*
X128757143Y-89792857D01*
X129142858Y-90607143D02*
X129142858Y-89707143D01*
X129657143Y-90607143D02*
X129271429Y-90092857D01*
X129657143Y-89707143D02*
X129142858Y-90221429D01*
X124357144Y-90607143D02*
X124357144Y-89707143D01*
X124657144Y-90350000D01*
X124957144Y-89707143D01*
X124957144Y-90607143D01*
X125385715Y-90607143D02*
X125385715Y-89707143D01*
X125771429Y-90564286D02*
X125900000Y-90607143D01*
X126114286Y-90607143D01*
X126200000Y-90564286D01*
X126242857Y-90521429D01*
X126285714Y-90435714D01*
X126285714Y-90350000D01*
X126242857Y-90264286D01*
X126200000Y-90221429D01*
X126114286Y-90178571D01*
X125942857Y-90135714D01*
X125857143Y-90092857D01*
X125814286Y-90050000D01*
X125771429Y-89964286D01*
X125771429Y-89878571D01*
X125814286Y-89792857D01*
X125857143Y-89750000D01*
X125942857Y-89707143D01*
X126157143Y-89707143D01*
X126285714Y-89750000D01*
X131257143Y-84892857D02*
X130742857Y-84892857D01*
X131000000Y-83992857D02*
X131000000Y-84892857D01*
X127200001Y-85107143D02*
X127200001Y-84207143D01*
X127500001Y-84850000D01*
X127800001Y-84207143D01*
X127800001Y-85107143D01*
X128400000Y-84207143D02*
X128571429Y-84207143D01*
X128657143Y-84250000D01*
X128742857Y-84335714D01*
X128785715Y-84507143D01*
X128785715Y-84807143D01*
X128742857Y-84978571D01*
X128657143Y-85064286D01*
X128571429Y-85107143D01*
X128400000Y-85107143D01*
X128314286Y-85064286D01*
X128228572Y-84978571D01*
X128185715Y-84807143D01*
X128185715Y-84507143D01*
X128228572Y-84335714D01*
X128314286Y-84250000D01*
X128400000Y-84207143D01*
X129128572Y-85064286D02*
X129257143Y-85107143D01*
X129471429Y-85107143D01*
X129557143Y-85064286D01*
X129600000Y-85021429D01*
X129642857Y-84935714D01*
X129642857Y-84850000D01*
X129600000Y-84764286D01*
X129557143Y-84721429D01*
X129471429Y-84678571D01*
X129300000Y-84635714D01*
X129214286Y-84592857D01*
X129171429Y-84550000D01*
X129128572Y-84464286D01*
X129128572Y-84378571D01*
X129171429Y-84292857D01*
X129214286Y-84250000D01*
X129300000Y-84207143D01*
X129514286Y-84207143D01*
X129642857Y-84250000D01*
X123800000Y-84207143D02*
X124100000Y-85107143D01*
X124400000Y-84207143D01*
X125214286Y-85021429D02*
X125171429Y-85064286D01*
X125042858Y-85107143D01*
X124957144Y-85107143D01*
X124828572Y-85064286D01*
X124742858Y-84978571D01*
X124700001Y-84892857D01*
X124657144Y-84721429D01*
X124657144Y-84592857D01*
X124700001Y-84421429D01*
X124742858Y-84335714D01*
X124828572Y-84250000D01*
X124957144Y-84207143D01*
X125042858Y-84207143D01*
X125171429Y-84250000D01*
X125214286Y-84292857D01*
X126114286Y-85021429D02*
X126071429Y-85064286D01*
X125942858Y-85107143D01*
X125857144Y-85107143D01*
X125728572Y-85064286D01*
X125642858Y-84978571D01*
X125600001Y-84892857D01*
X125557144Y-84721429D01*
X125557144Y-84592857D01*
X125600001Y-84421429D01*
X125642858Y-84335714D01*
X125728572Y-84250000D01*
X125857144Y-84207143D01*
X125942858Y-84207143D01*
X126071429Y-84250000D01*
X126114286Y-84292857D01*
X129985714Y-71807143D02*
X130542857Y-71807143D01*
X130242857Y-72150000D01*
X130371429Y-72150000D01*
X130457143Y-72192857D01*
X130500000Y-72235714D01*
X130542857Y-72321429D01*
X130542857Y-72535714D01*
X130500000Y-72621429D01*
X130457143Y-72664286D01*
X130371429Y-72707143D01*
X130114286Y-72707143D01*
X130028572Y-72664286D01*
X129985714Y-72621429D01*
X130800000Y-71807143D02*
X131100000Y-72707143D01*
X131400000Y-71807143D01*
X131614286Y-71807143D02*
X132171429Y-71807143D01*
X131871429Y-72150000D01*
X132000001Y-72150000D01*
X132085715Y-72192857D01*
X132128572Y-72235714D01*
X132171429Y-72321429D01*
X132171429Y-72535714D01*
X132128572Y-72621429D01*
X132085715Y-72664286D01*
X132000001Y-72707143D01*
X131742858Y-72707143D01*
X131657144Y-72664286D01*
X131614286Y-72621429D01*
X132600000Y-71807143D02*
X132900000Y-72707143D01*
X133200000Y-71807143D01*
X134014286Y-72621429D02*
X133971429Y-72664286D01*
X133842858Y-72707143D01*
X133757144Y-72707143D01*
X133628572Y-72664286D01*
X133542858Y-72578571D01*
X133500001Y-72492857D01*
X133457144Y-72321429D01*
X133457144Y-72192857D01*
X133500001Y-72021429D01*
X133542858Y-71935714D01*
X133628572Y-71850000D01*
X133757144Y-71807143D01*
X133842858Y-71807143D01*
X133971429Y-71850000D01*
X134014286Y-71892857D01*
X134914286Y-72621429D02*
X134871429Y-72664286D01*
X134742858Y-72707143D01*
X134657144Y-72707143D01*
X134528572Y-72664286D01*
X134442858Y-72578571D01*
X134400001Y-72492857D01*
X134357144Y-72321429D01*
X134357144Y-72192857D01*
X134400001Y-72021429D01*
X134442858Y-71935714D01*
X134528572Y-71850000D01*
X134657144Y-71807143D01*
X134742858Y-71807143D01*
X134871429Y-71850000D01*
X134914286Y-71892857D01*
X135300000Y-71807143D02*
X135600000Y-72707143D01*
X135900000Y-71807143D01*
X136714286Y-72621429D02*
X136671429Y-72664286D01*
X136542858Y-72707143D01*
X136457144Y-72707143D01*
X136328572Y-72664286D01*
X136242858Y-72578571D01*
X136200001Y-72492857D01*
X136157144Y-72321429D01*
X136157144Y-72192857D01*
X136200001Y-72021429D01*
X136242858Y-71935714D01*
X136328572Y-71850000D01*
X136457144Y-71807143D01*
X136542858Y-71807143D01*
X136671429Y-71850000D01*
X136714286Y-71892857D01*
X137614286Y-72621429D02*
X137571429Y-72664286D01*
X137442858Y-72707143D01*
X137357144Y-72707143D01*
X137228572Y-72664286D01*
X137142858Y-72578571D01*
X137100001Y-72492857D01*
X137057144Y-72321429D01*
X137057144Y-72192857D01*
X137100001Y-72021429D01*
X137142858Y-71935714D01*
X137228572Y-71850000D01*
X137357144Y-71807143D01*
X137442858Y-71807143D01*
X137571429Y-71850000D01*
X137614286Y-71892857D01*
X127835715Y-72707143D02*
X127835715Y-71807143D01*
X128050000Y-71807143D01*
X128178572Y-71850000D01*
X128264286Y-71935714D01*
X128307143Y-72021429D01*
X128350000Y-72192857D01*
X128350000Y-72321429D01*
X128307143Y-72492857D01*
X128264286Y-72578571D01*
X128178572Y-72664286D01*
X128050000Y-72707143D01*
X127835715Y-72707143D01*
X128864286Y-72192857D02*
X128778572Y-72150000D01*
X128735715Y-72107143D01*
X128692858Y-72021429D01*
X128692858Y-71978571D01*
X128735715Y-71892857D01*
X128778572Y-71850000D01*
X128864286Y-71807143D01*
X129035715Y-71807143D01*
X129121429Y-71850000D01*
X129164286Y-71892857D01*
X129207143Y-71978571D01*
X129207143Y-72021429D01*
X129164286Y-72107143D01*
X129121429Y-72150000D01*
X129035715Y-72192857D01*
X128864286Y-72192857D01*
X128778572Y-72235714D01*
X128735715Y-72278571D01*
X128692858Y-72364286D01*
X128692858Y-72535714D01*
X128735715Y-72621429D01*
X128778572Y-72664286D01*
X128864286Y-72707143D01*
X129035715Y-72707143D01*
X129121429Y-72664286D01*
X129164286Y-72621429D01*
X129207143Y-72535714D01*
X129207143Y-72364286D01*
X129164286Y-72278571D01*
X129121429Y-72235714D01*
X129035715Y-72192857D01*
X125235715Y-72707143D02*
X125235715Y-71807143D01*
X125450000Y-71807143D01*
X125578572Y-71850000D01*
X125664286Y-71935714D01*
X125707143Y-72021429D01*
X125750000Y-72192857D01*
X125750000Y-72321429D01*
X125707143Y-72492857D01*
X125664286Y-72578571D01*
X125578572Y-72664286D01*
X125450000Y-72707143D01*
X125235715Y-72707143D01*
X126050000Y-71807143D02*
X126650000Y-71807143D01*
X126264286Y-72707143D01*
X122635715Y-72707143D02*
X122635715Y-71807143D01*
X122850000Y-71807143D01*
X122978572Y-71850000D01*
X123064286Y-71935714D01*
X123107143Y-72021429D01*
X123150000Y-72192857D01*
X123150000Y-72321429D01*
X123107143Y-72492857D01*
X123064286Y-72578571D01*
X122978572Y-72664286D01*
X122850000Y-72707143D01*
X122635715Y-72707143D01*
X123921429Y-71807143D02*
X123750000Y-71807143D01*
X123664286Y-71850000D01*
X123621429Y-71892857D01*
X123535715Y-72021429D01*
X123492858Y-72192857D01*
X123492858Y-72535714D01*
X123535715Y-72621429D01*
X123578572Y-72664286D01*
X123664286Y-72707143D01*
X123835715Y-72707143D01*
X123921429Y-72664286D01*
X123964286Y-72621429D01*
X124007143Y-72535714D01*
X124007143Y-72321429D01*
X123964286Y-72235714D01*
X123921429Y-72192857D01*
X123835715Y-72150000D01*
X123664286Y-72150000D01*
X123578572Y-72192857D01*
X123535715Y-72235714D01*
X123492858Y-72321429D01*
X120135715Y-72707143D02*
X120135715Y-71807143D01*
X120350000Y-71807143D01*
X120478572Y-71850000D01*
X120564286Y-71935714D01*
X120607143Y-72021429D01*
X120650000Y-72192857D01*
X120650000Y-72321429D01*
X120607143Y-72492857D01*
X120564286Y-72578571D01*
X120478572Y-72664286D01*
X120350000Y-72707143D01*
X120135715Y-72707143D01*
X121464286Y-71807143D02*
X121035715Y-71807143D01*
X120992858Y-72235714D01*
X121035715Y-72192857D01*
X121121429Y-72150000D01*
X121335715Y-72150000D01*
X121421429Y-72192857D01*
X121464286Y-72235714D01*
X121507143Y-72321429D01*
X121507143Y-72535714D01*
X121464286Y-72621429D01*
X121421429Y-72664286D01*
X121335715Y-72707143D01*
X121121429Y-72707143D01*
X121035715Y-72664286D01*
X120992858Y-72621429D01*
X117557143Y-72450000D02*
X117985714Y-72450000D01*
X117471428Y-72707143D02*
X117771428Y-71807143D01*
X118071428Y-72707143D01*
X118542857Y-71807143D02*
X118628572Y-71807143D01*
X118714286Y-71850000D01*
X118757143Y-71892857D01*
X118800000Y-71978571D01*
X118842857Y-72150000D01*
X118842857Y-72364286D01*
X118800000Y-72535714D01*
X118757143Y-72621429D01*
X118714286Y-72664286D01*
X118628572Y-72707143D01*
X118542857Y-72707143D01*
X118457143Y-72664286D01*
X118414286Y-72621429D01*
X118371429Y-72535714D01*
X118328572Y-72364286D01*
X118328572Y-72150000D01*
X118371429Y-71978571D01*
X118414286Y-71892857D01*
X118457143Y-71850000D01*
X118542857Y-71807143D01*
X115057143Y-72450000D02*
X115485714Y-72450000D01*
X114971428Y-72707143D02*
X115271428Y-71807143D01*
X115571428Y-72707143D01*
X116342857Y-72707143D02*
X115828572Y-72707143D01*
X116085714Y-72707143D02*
X116085714Y-71807143D01*
X116000000Y-71935714D01*
X115914286Y-72021429D01*
X115828572Y-72064286D01*
X112457143Y-72450000D02*
X112885714Y-72450000D01*
X112371428Y-72707143D02*
X112671428Y-71807143D01*
X112971428Y-72707143D01*
X113228572Y-71892857D02*
X113271429Y-71850000D01*
X113357143Y-71807143D01*
X113571429Y-71807143D01*
X113657143Y-71850000D01*
X113700000Y-71892857D01*
X113742857Y-71978571D01*
X113742857Y-72064286D01*
X113700000Y-72192857D01*
X113185714Y-72707143D01*
X113742857Y-72707143D01*
X110057143Y-72450000D02*
X110485714Y-72450000D01*
X109971428Y-72707143D02*
X110271428Y-71807143D01*
X110571428Y-72707143D01*
X110785714Y-71807143D02*
X111342857Y-71807143D01*
X111042857Y-72150000D01*
X111171429Y-72150000D01*
X111257143Y-72192857D01*
X111300000Y-72235714D01*
X111342857Y-72321429D01*
X111342857Y-72535714D01*
X111300000Y-72621429D01*
X111257143Y-72664286D01*
X111171429Y-72707143D01*
X110914286Y-72707143D01*
X110828572Y-72664286D01*
X110785714Y-72621429D01*
X107207143Y-72664286D02*
X107335714Y-72707143D01*
X107550000Y-72707143D01*
X107635714Y-72664286D01*
X107678571Y-72621429D01*
X107721428Y-72535714D01*
X107721428Y-72450000D01*
X107678571Y-72364286D01*
X107635714Y-72321429D01*
X107550000Y-72278571D01*
X107378571Y-72235714D01*
X107292857Y-72192857D01*
X107250000Y-72150000D01*
X107207143Y-72064286D01*
X107207143Y-71978571D01*
X107250000Y-71892857D01*
X107292857Y-71850000D01*
X107378571Y-71807143D01*
X107592857Y-71807143D01*
X107721428Y-71850000D01*
X108107143Y-72707143D02*
X108107143Y-71807143D01*
X108321428Y-71807143D01*
X108450000Y-71850000D01*
X108535714Y-71935714D01*
X108578571Y-72021429D01*
X108621428Y-72192857D01*
X108621428Y-72321429D01*
X108578571Y-72492857D01*
X108535714Y-72578571D01*
X108450000Y-72664286D01*
X108321428Y-72707143D01*
X108107143Y-72707143D01*
X108964286Y-72450000D02*
X109392857Y-72450000D01*
X108878571Y-72707143D02*
X109178571Y-71807143D01*
X109478571Y-72707143D01*
X104428572Y-72664286D02*
X104557143Y-72707143D01*
X104771429Y-72707143D01*
X104857143Y-72664286D01*
X104900000Y-72621429D01*
X104942857Y-72535714D01*
X104942857Y-72450000D01*
X104900000Y-72364286D01*
X104857143Y-72321429D01*
X104771429Y-72278571D01*
X104600000Y-72235714D01*
X104514286Y-72192857D01*
X104471429Y-72150000D01*
X104428572Y-72064286D01*
X104428572Y-71978571D01*
X104471429Y-71892857D01*
X104514286Y-71850000D01*
X104600000Y-71807143D01*
X104814286Y-71807143D01*
X104942857Y-71850000D01*
X105842857Y-72621429D02*
X105800000Y-72664286D01*
X105671429Y-72707143D01*
X105585715Y-72707143D01*
X105457143Y-72664286D01*
X105371429Y-72578571D01*
X105328572Y-72492857D01*
X105285715Y-72321429D01*
X105285715Y-72192857D01*
X105328572Y-72021429D01*
X105371429Y-71935714D01*
X105457143Y-71850000D01*
X105585715Y-71807143D01*
X105671429Y-71807143D01*
X105800000Y-71850000D01*
X105842857Y-71892857D01*
X106657143Y-72707143D02*
X106228572Y-72707143D01*
X106228572Y-71807143D01*
X136257143Y-67192857D02*
X135742857Y-67192857D01*
X136000000Y-66292857D02*
X136000000Y-67192857D01*
X133657143Y-67192857D02*
X133142857Y-67192857D01*
X133400000Y-66292857D02*
X133400000Y-67192857D01*
X131157143Y-67192857D02*
X130642857Y-67192857D01*
X130900000Y-66292857D02*
X130900000Y-67192857D01*
X128557143Y-67192857D02*
X128042857Y-67192857D01*
X128300000Y-66292857D02*
X128300000Y-67192857D01*
X118457143Y-67192857D02*
X117942857Y-67192857D01*
X118200000Y-66292857D02*
X118200000Y-67192857D01*
X115957143Y-67192857D02*
X115442857Y-67192857D01*
X115700000Y-66292857D02*
X115700000Y-67192857D01*
X125135715Y-67207143D02*
X125135715Y-66307143D01*
X125350000Y-66307143D01*
X125478572Y-66350000D01*
X125564286Y-66435714D01*
X125607143Y-66521429D01*
X125650000Y-66692857D01*
X125650000Y-66821429D01*
X125607143Y-66992857D01*
X125564286Y-67078571D01*
X125478572Y-67164286D01*
X125350000Y-67207143D01*
X125135715Y-67207143D01*
X126421429Y-66607143D02*
X126421429Y-67207143D01*
X126207143Y-66264286D02*
X125992858Y-66907143D01*
X126550000Y-66907143D01*
X122635715Y-67207143D02*
X122635715Y-66307143D01*
X122850000Y-66307143D01*
X122978572Y-66350000D01*
X123064286Y-66435714D01*
X123107143Y-66521429D01*
X123150000Y-66692857D01*
X123150000Y-66821429D01*
X123107143Y-66992857D01*
X123064286Y-67078571D01*
X122978572Y-67164286D01*
X122850000Y-67207143D01*
X122635715Y-67207143D01*
X123450000Y-66307143D02*
X124007143Y-66307143D01*
X123707143Y-66650000D01*
X123835715Y-66650000D01*
X123921429Y-66692857D01*
X123964286Y-66735714D01*
X124007143Y-66821429D01*
X124007143Y-67035714D01*
X123964286Y-67121429D01*
X123921429Y-67164286D01*
X123835715Y-67207143D01*
X123578572Y-67207143D01*
X123492858Y-67164286D01*
X123450000Y-67121429D01*
X120135715Y-67207143D02*
X120135715Y-66307143D01*
X120350000Y-66307143D01*
X120478572Y-66350000D01*
X120564286Y-66435714D01*
X120607143Y-66521429D01*
X120650000Y-66692857D01*
X120650000Y-66821429D01*
X120607143Y-66992857D01*
X120564286Y-67078571D01*
X120478572Y-67164286D01*
X120350000Y-67207143D01*
X120135715Y-67207143D01*
X120992858Y-66392857D02*
X121035715Y-66350000D01*
X121121429Y-66307143D01*
X121335715Y-66307143D01*
X121421429Y-66350000D01*
X121464286Y-66392857D01*
X121507143Y-66478571D01*
X121507143Y-66564286D01*
X121464286Y-66692857D01*
X120950000Y-67207143D01*
X121507143Y-67207143D01*
X111600000Y-66407143D02*
X111900000Y-67307143D01*
X112200000Y-66407143D01*
X113014286Y-67221429D02*
X112971429Y-67264286D01*
X112842858Y-67307143D01*
X112757144Y-67307143D01*
X112628572Y-67264286D01*
X112542858Y-67178571D01*
X112500001Y-67092857D01*
X112457144Y-66921429D01*
X112457144Y-66792857D01*
X112500001Y-66621429D01*
X112542858Y-66535714D01*
X112628572Y-66450000D01*
X112757144Y-66407143D01*
X112842858Y-66407143D01*
X112971429Y-66450000D01*
X113014286Y-66492857D01*
X113914286Y-67221429D02*
X113871429Y-67264286D01*
X113742858Y-67307143D01*
X113657144Y-67307143D01*
X113528572Y-67264286D01*
X113442858Y-67178571D01*
X113400001Y-67092857D01*
X113357144Y-66921429D01*
X113357144Y-66792857D01*
X113400001Y-66621429D01*
X113442858Y-66535714D01*
X113528572Y-66450000D01*
X113657144Y-66407143D01*
X113742858Y-66407143D01*
X113871429Y-66450000D01*
X113914286Y-66492857D01*
X109614286Y-66407143D02*
X110128572Y-66407143D01*
X109871429Y-67307143D02*
X109871429Y-66407143D01*
X110342857Y-66407143D02*
X110942857Y-67307143D01*
X110942857Y-66407143D02*
X110342857Y-67307143D01*
X107850000Y-67307143D02*
X107550000Y-66878571D01*
X107335715Y-67307143D02*
X107335715Y-66407143D01*
X107678572Y-66407143D01*
X107764286Y-66450000D01*
X107807143Y-66492857D01*
X107850000Y-66578571D01*
X107850000Y-66707143D01*
X107807143Y-66792857D01*
X107764286Y-66835714D01*
X107678572Y-66878571D01*
X107335715Y-66878571D01*
X108150000Y-66407143D02*
X108750000Y-67307143D01*
X108750000Y-66407143D02*
X108150000Y-67307143D01*
X104471429Y-67307143D02*
X104471429Y-66407143D01*
X104685714Y-66407143D01*
X104814286Y-66450000D01*
X104900000Y-66535714D01*
X104942857Y-66621429D01*
X104985714Y-66792857D01*
X104985714Y-66921429D01*
X104942857Y-67092857D01*
X104900000Y-67178571D01*
X104814286Y-67264286D01*
X104685714Y-67307143D01*
X104471429Y-67307143D01*
X105242857Y-66407143D02*
X105757143Y-66407143D01*
X105500000Y-67307143D02*
X105500000Y-66407143D01*
X106571428Y-67307143D02*
X106271428Y-66878571D01*
X106057143Y-67307143D02*
X106057143Y-66407143D01*
X106400000Y-66407143D01*
X106485714Y-66450000D01*
X106528571Y-66492857D01*
X106571428Y-66578571D01*
X106571428Y-66707143D01*
X106528571Y-66792857D01*
X106485714Y-66835714D01*
X106400000Y-66878571D01*
X106057143Y-66878571D01*
D11*
X119700000Y-66000000D02*
X119700000Y-69400000D01*
D12*
X124650000Y-84930000D02*
X124650000Y-90010000D01*
X132270000Y-84930000D02*
X132270000Y-90010000D01*
X137270000Y-72070000D02*
X137270000Y-66990000D01*
X104250000Y-72070000D02*
X104250000Y-66990000D01*
D13*
X101590000Y-79486000D02*
X101590000Y-81256000D01*
X101590000Y-81256000D02*
X137390000Y-81256000D01*
X137390000Y-81256000D02*
X137390000Y-75716000D01*
X137390000Y-75716000D02*
X101590000Y-75716000D01*
X101590000Y-75716000D02*
X101590000Y-77486000D01*
X101590000Y-83686000D02*
X137390000Y-83686000D01*
X137390000Y-83686000D02*
X137390000Y-73286000D01*
X137390000Y-73286000D02*
X101590000Y-73286000D01*
X101590000Y-73286000D02*
X101590000Y-83686000D01*
X101590000Y-77486000D02*
G75*
G02X101590000Y-79486000I0J-1000000D01*
G01*
X138096863Y-86718600D02*
G75*
G03X133302564Y-86720000I-2396863J-981400D01*
G01*
X138096863Y-88681400D02*
G75*
G02X133302564Y-88680000I-2396863J981400D01*
G01*
X138096863Y-88681400D02*
G75*
G03X138097436Y-86720000I-2396863J981400D01*
G01*
X135700000Y-85150000D02*
X135700000Y-90250000D01*
X135740000Y-85150000D02*
X135740000Y-86720000D01*
X135740000Y-88680000D02*
X135740000Y-90250000D01*
X135780000Y-85151000D02*
X135780000Y-86720000D01*
X135780000Y-88680000D02*
X135780000Y-90249000D01*
X135820000Y-85152000D02*
X135820000Y-86720000D01*
X135820000Y-88680000D02*
X135820000Y-90248000D01*
X135860000Y-85154000D02*
X135860000Y-86720000D01*
X135860000Y-88680000D02*
X135860000Y-90246000D01*
X135900000Y-85157000D02*
X135900000Y-86720000D01*
X135900000Y-88680000D02*
X135900000Y-90243000D01*
X135940000Y-85161000D02*
X135940000Y-86720000D01*
X135940000Y-88680000D02*
X135940000Y-90239000D01*
X135980000Y-85165000D02*
X135980000Y-86720000D01*
X135980000Y-88680000D02*
X135980000Y-90235000D01*
X136020000Y-85169000D02*
X136020000Y-86720000D01*
X136020000Y-88680000D02*
X136020000Y-90231000D01*
X136060000Y-85175000D02*
X136060000Y-86720000D01*
X136060000Y-88680000D02*
X136060000Y-90225000D01*
X136100000Y-85181000D02*
X136100000Y-86720000D01*
X136100000Y-88680000D02*
X136100000Y-90219000D01*
X136140000Y-85187000D02*
X136140000Y-86720000D01*
X136140000Y-88680000D02*
X136140000Y-90213000D01*
X136180000Y-85194000D02*
X136180000Y-86720000D01*
X136180000Y-88680000D02*
X136180000Y-90206000D01*
X136220000Y-85202000D02*
X136220000Y-86720000D01*
X136220000Y-88680000D02*
X136220000Y-90198000D01*
X136260000Y-85211000D02*
X136260000Y-86720000D01*
X136260000Y-88680000D02*
X136260000Y-90189000D01*
X136300000Y-85220000D02*
X136300000Y-86720000D01*
X136300000Y-88680000D02*
X136300000Y-90180000D01*
X136340000Y-85230000D02*
X136340000Y-86720000D01*
X136340000Y-88680000D02*
X136340000Y-90170000D01*
X136380000Y-85240000D02*
X136380000Y-86720000D01*
X136380000Y-88680000D02*
X136380000Y-90160000D01*
X136421000Y-85252000D02*
X136421000Y-86720000D01*
X136421000Y-88680000D02*
X136421000Y-90148000D01*
X136461000Y-85264000D02*
X136461000Y-86720000D01*
X136461000Y-88680000D02*
X136461000Y-90136000D01*
X136501000Y-85276000D02*
X136501000Y-86720000D01*
X136501000Y-88680000D02*
X136501000Y-90124000D01*
X136541000Y-85290000D02*
X136541000Y-86720000D01*
X136541000Y-88680000D02*
X136541000Y-90110000D01*
X136581000Y-85304000D02*
X136581000Y-86720000D01*
X136581000Y-88680000D02*
X136581000Y-90096000D01*
X136621000Y-85318000D02*
X136621000Y-86720000D01*
X136621000Y-88680000D02*
X136621000Y-90082000D01*
X136661000Y-85334000D02*
X136661000Y-86720000D01*
X136661000Y-88680000D02*
X136661000Y-90066000D01*
X136701000Y-85350000D02*
X136701000Y-86720000D01*
X136701000Y-88680000D02*
X136701000Y-90050000D01*
X136741000Y-85367000D02*
X136741000Y-86720000D01*
X136741000Y-88680000D02*
X136741000Y-90033000D01*
X136781000Y-85385000D02*
X136781000Y-86720000D01*
X136781000Y-88680000D02*
X136781000Y-90015000D01*
X136821000Y-85404000D02*
X136821000Y-86720000D01*
X136821000Y-88680000D02*
X136821000Y-89996000D01*
X136861000Y-85424000D02*
X136861000Y-86720000D01*
X136861000Y-88680000D02*
X136861000Y-89976000D01*
X136901000Y-85444000D02*
X136901000Y-86720000D01*
X136901000Y-88680000D02*
X136901000Y-89956000D01*
X136941000Y-85466000D02*
X136941000Y-86720000D01*
X136941000Y-88680000D02*
X136941000Y-89934000D01*
X136981000Y-85488000D02*
X136981000Y-86720000D01*
X136981000Y-88680000D02*
X136981000Y-89912000D01*
X137021000Y-85511000D02*
X137021000Y-86720000D01*
X137021000Y-88680000D02*
X137021000Y-89889000D01*
X137061000Y-85535000D02*
X137061000Y-86720000D01*
X137061000Y-88680000D02*
X137061000Y-89865000D01*
X137101000Y-85560000D02*
X137101000Y-86720000D01*
X137101000Y-88680000D02*
X137101000Y-89840000D01*
X137141000Y-85587000D02*
X137141000Y-86720000D01*
X137141000Y-88680000D02*
X137141000Y-89813000D01*
X137181000Y-85614000D02*
X137181000Y-86720000D01*
X137181000Y-88680000D02*
X137181000Y-89786000D01*
X137221000Y-85642000D02*
X137221000Y-86720000D01*
X137221000Y-88680000D02*
X137221000Y-89758000D01*
X137261000Y-85672000D02*
X137261000Y-86720000D01*
X137261000Y-88680000D02*
X137261000Y-89728000D01*
X137301000Y-85703000D02*
X137301000Y-86720000D01*
X137301000Y-88680000D02*
X137301000Y-89697000D01*
X137341000Y-85735000D02*
X137341000Y-86720000D01*
X137341000Y-88680000D02*
X137341000Y-89665000D01*
X137381000Y-85768000D02*
X137381000Y-86720000D01*
X137381000Y-88680000D02*
X137381000Y-89632000D01*
X137421000Y-85803000D02*
X137421000Y-86720000D01*
X137421000Y-88680000D02*
X137421000Y-89597000D01*
X137461000Y-85839000D02*
X137461000Y-86720000D01*
X137461000Y-88680000D02*
X137461000Y-89561000D01*
X137501000Y-85877000D02*
X137501000Y-86720000D01*
X137501000Y-88680000D02*
X137501000Y-89523000D01*
X137541000Y-85917000D02*
X137541000Y-86720000D01*
X137541000Y-88680000D02*
X137541000Y-89483000D01*
X137581000Y-85958000D02*
X137581000Y-86720000D01*
X137581000Y-88680000D02*
X137581000Y-89442000D01*
X137621000Y-86001000D02*
X137621000Y-86720000D01*
X137621000Y-88680000D02*
X137621000Y-89399000D01*
X137661000Y-86046000D02*
X137661000Y-86720000D01*
X137661000Y-88680000D02*
X137661000Y-89354000D01*
X137701000Y-86094000D02*
X137701000Y-89306000D01*
X137741000Y-86144000D02*
X137741000Y-89256000D01*
X137781000Y-86196000D02*
X137781000Y-89204000D01*
X137821000Y-86252000D02*
X137821000Y-89148000D01*
X137861000Y-86310000D02*
X137861000Y-89090000D01*
X137901000Y-86373000D02*
X137901000Y-89027000D01*
X137941000Y-86439000D02*
X137941000Y-88961000D01*
X137981000Y-86511000D02*
X137981000Y-88889000D01*
X138021000Y-86588000D02*
X138021000Y-88812000D01*
X138061000Y-86672000D02*
X138061000Y-88728000D01*
X138101000Y-86766000D02*
X138101000Y-88634000D01*
X138141000Y-86871000D02*
X138141000Y-88529000D01*
X138181000Y-86993000D02*
X138181000Y-88407000D01*
X138221000Y-87141000D02*
X138221000Y-88259000D01*
X138261000Y-87346000D02*
X138261000Y-88054000D01*
X132500000Y-87700000D02*
X133700000Y-87700000D01*
X133100000Y-87050000D02*
X133100000Y-88350000D01*
X116100000Y-84700000D02*
X121100000Y-84700000D01*
X116100000Y-90100000D02*
X121100000Y-90100000D01*
X116100000Y-90100000D02*
G75*
G02X116100000Y-84700000I0J2700000D01*
G01*
X121100000Y-90100000D02*
G75*
G03X121100000Y-84700000I0J2700000D01*
G01*
D12*
X141490000Y-90137000D02*
X138823000Y-90137000D01*
X138823000Y-90137000D02*
X138823000Y-87470000D01*
X146570000Y-90010000D02*
X149110000Y-90010000D01*
X149110000Y-90010000D02*
X149110000Y-87470000D01*
X141490000Y-90010000D02*
X141490000Y-87470000D01*
X141490000Y-87470000D02*
X138950000Y-87470000D01*
X146570000Y-90010000D02*
X138950000Y-90010000D01*
X138950000Y-90010000D02*
X138950000Y-84930000D01*
X138950000Y-84930000D02*
X149110000Y-84930000D01*
X149110000Y-84930000D02*
X149110000Y-87470000D01*
D13*
X106250000Y-79050000D02*
X106250000Y-78050000D01*
X104550000Y-78050000D02*
X104550000Y-79050000D01*
X126750000Y-77950000D02*
X126750000Y-78950000D01*
X128450000Y-78950000D02*
X128450000Y-77950000D01*
X124450000Y-77950000D02*
X124450000Y-78950000D01*
X126150000Y-78950000D02*
X126150000Y-77950000D01*
X121550000Y-78950000D02*
X121550000Y-77950000D01*
X119850000Y-77950000D02*
X119850000Y-78950000D01*
X117350000Y-77950000D02*
X117350000Y-78950000D01*
X119050000Y-78950000D02*
X119050000Y-77950000D01*
X102320000Y-79200000D02*
X102320000Y-78000000D01*
X104080000Y-78000000D02*
X104080000Y-79200000D01*
X108757665Y-89578608D02*
G75*
G03X111990000Y-89735516I1672335J1078608D01*
G01*
X108757665Y-87421392D02*
G75*
G02X111990000Y-87264484I1672335J-1078608D01*
G01*
X109388870Y-89579837D02*
G75*
G03X111470961Y-89580000I1041130J1079837D01*
G01*
X109388870Y-87420163D02*
G75*
G02X111470961Y-87420000I1041130J-1079837D01*
G01*
X111990000Y-89736000D02*
X111990000Y-89580000D01*
X111990000Y-87420000D02*
X111990000Y-87264000D01*
X109950000Y-84420000D02*
X111150000Y-84420000D01*
X111150000Y-86180000D02*
X109950000Y-86180000D01*
X104870000Y-87230000D02*
X104870000Y-89830000D01*
X104870000Y-89830000D02*
X107530000Y-89830000D01*
X107530000Y-89830000D02*
X107530000Y-87230000D01*
X107530000Y-87230000D02*
X104870000Y-87230000D01*
X104870000Y-85960000D02*
X104870000Y-84630000D01*
X104870000Y-84630000D02*
X106200000Y-84630000D01*
D12*
X137733334Y-85157143D02*
X137685715Y-85204762D01*
X137542858Y-85252381D01*
X137447620Y-85252381D01*
X137304762Y-85204762D01*
X137209524Y-85109524D01*
X137161905Y-85014286D01*
X137114286Y-84823810D01*
X137114286Y-84680952D01*
X137161905Y-84490476D01*
X137209524Y-84395238D01*
X137304762Y-84300000D01*
X137447620Y-84252381D01*
X137542858Y-84252381D01*
X137685715Y-84300000D01*
X137733334Y-84347619D01*
X138685715Y-85252381D02*
X138114286Y-85252381D01*
X138400000Y-85252381D02*
X138400000Y-84252381D01*
X138304762Y-84395238D01*
X138209524Y-84490476D01*
X138114286Y-84538095D01*
X118163809Y-87376190D02*
X118163809Y-87852381D01*
X117830476Y-86852381D02*
X118163809Y-87376190D01*
X118497143Y-86852381D01*
X119354286Y-87852381D02*
X118782857Y-87852381D01*
X119068571Y-87852381D02*
X119068571Y-86852381D01*
X118973333Y-86995238D01*
X118878095Y-87090476D01*
X118782857Y-87138095D01*
X108857143Y-78716666D02*
X108904762Y-78764285D01*
X108952381Y-78907142D01*
X108952381Y-79002380D01*
X108904762Y-79145238D01*
X108809524Y-79240476D01*
X108714286Y-79288095D01*
X108523810Y-79335714D01*
X108380952Y-79335714D01*
X108190476Y-79288095D01*
X108095238Y-79240476D01*
X108000000Y-79145238D01*
X107952381Y-79002380D01*
X107952381Y-78907142D01*
X108000000Y-78764285D01*
X108047619Y-78716666D01*
X107952381Y-78383333D02*
X107952381Y-77716666D01*
X108952381Y-78145238D01*
X129657143Y-78666666D02*
X129704762Y-78714285D01*
X129752381Y-78857142D01*
X129752381Y-78952380D01*
X129704762Y-79095238D01*
X129609524Y-79190476D01*
X129514286Y-79238095D01*
X129323810Y-79285714D01*
X129180952Y-79285714D01*
X128990476Y-79238095D01*
X128895238Y-79190476D01*
X128800000Y-79095238D01*
X128752381Y-78952380D01*
X128752381Y-78857142D01*
X128800000Y-78714285D01*
X128847619Y-78666666D01*
X128752381Y-77809523D02*
X128752381Y-78000000D01*
X128800000Y-78095238D01*
X128847619Y-78142857D01*
X128990476Y-78238095D01*
X129180952Y-78285714D01*
X129561905Y-78285714D01*
X129657143Y-78238095D01*
X129704762Y-78190476D01*
X129752381Y-78095238D01*
X129752381Y-77904761D01*
X129704762Y-77809523D01*
X129657143Y-77761904D01*
X129561905Y-77714285D01*
X129323810Y-77714285D01*
X129228571Y-77761904D01*
X129180952Y-77809523D01*
X129133333Y-77904761D01*
X129133333Y-78095238D01*
X129180952Y-78190476D01*
X129228571Y-78238095D01*
X129323810Y-78285714D01*
X124057143Y-78666666D02*
X124104762Y-78714285D01*
X124152381Y-78857142D01*
X124152381Y-78952380D01*
X124104762Y-79095238D01*
X124009524Y-79190476D01*
X123914286Y-79238095D01*
X123723810Y-79285714D01*
X123580952Y-79285714D01*
X123390476Y-79238095D01*
X123295238Y-79190476D01*
X123200000Y-79095238D01*
X123152381Y-78952380D01*
X123152381Y-78857142D01*
X123200000Y-78714285D01*
X123247619Y-78666666D01*
X123152381Y-77761904D02*
X123152381Y-78238095D01*
X123628571Y-78285714D01*
X123580952Y-78238095D01*
X123533333Y-78142857D01*
X123533333Y-77904761D01*
X123580952Y-77809523D01*
X123628571Y-77761904D01*
X123723810Y-77714285D01*
X123961905Y-77714285D01*
X124057143Y-77761904D01*
X124104762Y-77809523D01*
X124152381Y-77904761D01*
X124152381Y-78142857D01*
X124104762Y-78238095D01*
X124057143Y-78285714D01*
X122757143Y-78666666D02*
X122804762Y-78714285D01*
X122852381Y-78857142D01*
X122852381Y-78952380D01*
X122804762Y-79095238D01*
X122709524Y-79190476D01*
X122614286Y-79238095D01*
X122423810Y-79285714D01*
X122280952Y-79285714D01*
X122090476Y-79238095D01*
X121995238Y-79190476D01*
X121900000Y-79095238D01*
X121852381Y-78952380D01*
X121852381Y-78857142D01*
X121900000Y-78714285D01*
X121947619Y-78666666D01*
X122185714Y-77809523D02*
X122852381Y-77809523D01*
X121804762Y-78047619D02*
X122519048Y-78285714D01*
X122519048Y-77666666D01*
X117057143Y-78666666D02*
X117104762Y-78714285D01*
X117152381Y-78857142D01*
X117152381Y-78952380D01*
X117104762Y-79095238D01*
X117009524Y-79190476D01*
X116914286Y-79238095D01*
X116723810Y-79285714D01*
X116580952Y-79285714D01*
X116390476Y-79238095D01*
X116295238Y-79190476D01*
X116200000Y-79095238D01*
X116152381Y-78952380D01*
X116152381Y-78857142D01*
X116200000Y-78714285D01*
X116247619Y-78666666D01*
X116152381Y-78333333D02*
X116152381Y-77714285D01*
X116533333Y-78047619D01*
X116533333Y-77904761D01*
X116580952Y-77809523D01*
X116628571Y-77761904D01*
X116723810Y-77714285D01*
X116961905Y-77714285D01*
X117057143Y-77761904D01*
X117104762Y-77809523D01*
X117152381Y-77904761D01*
X117152381Y-78190476D01*
X117104762Y-78285714D01*
X117057143Y-78333333D01*
X107452381Y-78666666D02*
X106976190Y-79000000D01*
X107452381Y-79238095D02*
X106452381Y-79238095D01*
X106452381Y-78857142D01*
X106500000Y-78761904D01*
X106547619Y-78714285D01*
X106642857Y-78666666D01*
X106785714Y-78666666D01*
X106880952Y-78714285D01*
X106928571Y-78761904D01*
X106976190Y-78857142D01*
X106976190Y-79238095D01*
X107452381Y-77714285D02*
X107452381Y-78285714D01*
X107452381Y-78000000D02*
X106452381Y-78000000D01*
X106595238Y-78095238D01*
X106690476Y-78190476D01*
X106738095Y-78285714D01*
X112661905Y-90352381D02*
X112661905Y-89352381D01*
X112900000Y-89352381D01*
X113042858Y-89400000D01*
X113138096Y-89495238D01*
X113185715Y-89590476D01*
X113233334Y-89780952D01*
X113233334Y-89923810D01*
X113185715Y-90114286D01*
X113138096Y-90209524D01*
X113042858Y-90304762D01*
X112900000Y-90352381D01*
X112661905Y-90352381D01*
X114185715Y-90352381D02*
X113614286Y-90352381D01*
X113900000Y-90352381D02*
X113900000Y-89352381D01*
X113804762Y-89495238D01*
X113709524Y-89590476D01*
X113614286Y-89638095D01*
X113450000Y-84907143D02*
X113150000Y-84478571D01*
X112935715Y-84907143D02*
X112935715Y-84007143D01*
X113278572Y-84007143D01*
X113364286Y-84050000D01*
X113407143Y-84092857D01*
X113450000Y-84178571D01*
X113450000Y-84307143D01*
X113407143Y-84392857D01*
X113364286Y-84435714D01*
X113278572Y-84478571D01*
X112935715Y-84478571D01*
X113792858Y-84092857D02*
X113835715Y-84050000D01*
X113921429Y-84007143D01*
X114135715Y-84007143D01*
X114221429Y-84050000D01*
X114264286Y-84092857D01*
X114307143Y-84178571D01*
X114307143Y-84264286D01*
X114264286Y-84392857D01*
X113750000Y-84907143D01*
X114307143Y-84907143D01*
M02*
