M48
;DRILL file {KiCad 4.0.6} date 05/18/17 21:56:49
;FORMAT={-:-/ absolute / inch / decimal}
FMAT,2
INCH,TZ
T1C0.016
T2C0.031
T3C0.035
T4C0.039
T5C0.040
%
G90
G05
M72
T1
X4.5512Y-3.1181
X4.815Y-3.1181
X5.4291Y-3.2677
X5.5512Y-3.2677
X5.7697Y-3.3091
T2
X4.0543Y-2.94
X4.0543Y-3.24
X4.1543Y-2.94
X4.1543Y-3.24
X4.2543Y-2.94
X4.2543Y-3.24
X4.3543Y-2.94
X4.3543Y-3.24
X4.4543Y-2.94
X4.4543Y-3.24
X4.5543Y-2.94
X4.5543Y-3.24
X4.5709Y-3.4409
X4.6543Y-2.94
X4.6543Y-3.24
X4.7543Y-2.94
X4.7543Y-3.24
X4.7677Y-3.4409
X4.8543Y-2.94
X4.8543Y-3.24
X4.9543Y-2.94
X4.9543Y-3.24
X5.0543Y-2.94
X5.0543Y-3.24
X5.1543Y-2.94
X5.1543Y-3.24
X5.2543Y-2.94
X5.2543Y-3.24
X5.3031Y-3.4528
X5.3543Y-2.94
X5.3543Y-3.24
X5.3819Y-3.4528
T3
X4.2976Y-3.4843
X4.3976Y-3.4843
T4
X4.1543Y-2.6874
X4.1543Y-2.7874
X4.1811Y-3.3843
X4.1811Y-3.4843
X4.2543Y-2.6874
X4.2543Y-2.7874
X4.3543Y-2.6874
X4.3543Y-2.7874
X4.4543Y-2.6874
X4.4543Y-2.7874
X4.5543Y-2.6874
X4.5543Y-2.7874
X4.6543Y-2.6874
X4.6543Y-2.7874
X4.7543Y-2.6874
X4.7543Y-2.7874
X4.8543Y-2.6874
X4.8543Y-2.7874
X4.9543Y-2.6874
X4.9543Y-2.7874
X4.9575Y-3.3937
X4.9575Y-3.4937
X5.0543Y-2.6874
X5.0543Y-2.7874
X5.0575Y-3.3937
X5.0575Y-3.4937
X5.1543Y-2.6874
X5.1543Y-2.7874
X5.1575Y-3.3937
X5.1575Y-3.4937
X5.2543Y-2.6874
X5.2543Y-2.7874
X5.3543Y-2.6874
X5.3543Y-2.7874
T5
X5.5205Y-3.3937
X5.5205Y-3.4937
X5.6205Y-3.3937
X5.6205Y-3.4937
X5.7205Y-3.3937
X5.7205Y-3.4937
X5.8205Y-3.3937
X5.8205Y-3.4937
T0
M30
