G04 #@! TF.FileFunction,Copper,L2,Bot,Signal*
%FSLAX46Y46*%
G04 Gerber Fmt 4.6, Leading zero omitted, Abs format (unit mm)*
G04 Created by KiCad (PCBNEW 4.0.6) date 05/18/17 21:56:45*
%MOMM*%
%LPD*%
G01*
G04 APERTURE LIST*
%ADD10C,0.100000*%
%ADD11R,1.700000X1.700000*%
%ADD12O,1.700000X1.700000*%
%ADD13R,1.600000X1.600000*%
%ADD14O,1.600000X1.600000*%
%ADD15C,1.600000*%
%ADD16C,1.500000*%
%ADD17R,3.800000X2.000000*%
%ADD18R,1.500000X2.000000*%
%ADD19O,1.727200X1.727200*%
%ADD20R,1.727200X1.727200*%
%ADD21R,1.500000X1.250000*%
%ADD22R,1.800000X1.800000*%
%ADD23C,1.800000*%
%ADD24R,0.762000X0.508000*%
%ADD25R,0.508000X0.762000*%
%ADD26C,0.600000*%
%ADD27C,0.750000*%
%ADD28C,0.500000*%
%ADD29C,1.000000*%
%ADD30C,0.250000*%
%ADD31C,0.200000*%
G04 APERTURE END LIST*
D10*
D11*
X131000000Y-86200000D03*
D12*
X131000000Y-88740000D03*
X128460000Y-86200000D03*
X128460000Y-88740000D03*
X125920000Y-86200000D03*
X125920000Y-88740000D03*
D11*
X105520000Y-70800000D03*
D12*
X105520000Y-68260000D03*
X108060000Y-70800000D03*
X108060000Y-68260000D03*
X110600000Y-70800000D03*
X110600000Y-68260000D03*
X113140000Y-70800000D03*
X113140000Y-68260000D03*
X115680000Y-70800000D03*
X115680000Y-68260000D03*
X118220000Y-70800000D03*
X118220000Y-68260000D03*
X120760000Y-70800000D03*
X120760000Y-68260000D03*
X123300000Y-70800000D03*
X123300000Y-68260000D03*
X125840000Y-70800000D03*
X125840000Y-68260000D03*
X128380000Y-70800000D03*
X128380000Y-68260000D03*
X130920000Y-70800000D03*
X130920000Y-68260000D03*
X133460000Y-70800000D03*
X133460000Y-68260000D03*
X136000000Y-70800000D03*
X136000000Y-68260000D03*
D13*
X102980000Y-82296000D03*
D14*
X136000000Y-74676000D03*
X105520000Y-82296000D03*
X133460000Y-74676000D03*
X108060000Y-82296000D03*
X130920000Y-74676000D03*
X110600000Y-82296000D03*
X128380000Y-74676000D03*
X113140000Y-82296000D03*
X125840000Y-74676000D03*
X115680000Y-82296000D03*
X123300000Y-74676000D03*
X118220000Y-82296000D03*
X120760000Y-74676000D03*
X120760000Y-82296000D03*
X118220000Y-74676000D03*
X123300000Y-82296000D03*
X115680000Y-74676000D03*
X125840000Y-82296000D03*
X113140000Y-74676000D03*
X128380000Y-82296000D03*
X110600000Y-74676000D03*
X130920000Y-82296000D03*
X108060000Y-74676000D03*
X133460000Y-82296000D03*
X105520000Y-74676000D03*
X136000000Y-82296000D03*
X102980000Y-74676000D03*
D13*
X134700000Y-87700000D03*
D15*
X136700000Y-87700000D03*
D16*
X116100000Y-87400000D03*
X121100000Y-87400000D03*
D17*
X144800000Y-72600000D03*
D18*
X144800000Y-78900000D03*
X142500000Y-78900000D03*
X147100000Y-78900000D03*
D19*
X147840000Y-88740000D03*
X147840000Y-86200000D03*
X145300000Y-88740000D03*
X145300000Y-86200000D03*
X142760000Y-88740000D03*
X142760000Y-86200000D03*
D20*
X140220000Y-88740000D03*
D19*
X140220000Y-86200000D03*
D21*
X144600000Y-81400000D03*
X147100000Y-81400000D03*
D22*
X111700000Y-88500000D03*
D23*
X109160000Y-88500000D03*
D24*
X148300000Y-84311200D03*
X148300000Y-83600000D03*
D25*
X144100000Y-76500000D03*
X144811200Y-76500000D03*
D11*
X106200000Y-85960000D03*
D12*
X106200000Y-88500000D03*
D26*
X122300000Y-79200001D03*
X141000000Y-83000000D03*
X137900000Y-83000000D03*
X146549990Y-84049990D03*
X115600000Y-79200000D03*
D27*
X136000000Y-68260000D02*
X136684999Y-68260000D01*
X136684999Y-68260000D02*
X143124989Y-74699990D01*
X143124989Y-74699990D02*
X144686952Y-74699990D01*
X144686952Y-74699990D02*
X147100000Y-77113038D01*
X147100000Y-77113038D02*
X147100000Y-77150000D01*
X147100000Y-77150000D02*
X147100000Y-78900000D01*
X147100000Y-78900000D02*
X147100000Y-81400000D01*
D28*
X118220000Y-74676000D02*
X122300000Y-78756000D01*
X122300000Y-78756000D02*
X122300000Y-79200001D01*
D27*
X106200000Y-88500000D02*
X102104999Y-84404999D01*
X102104999Y-84404999D02*
X101604999Y-84404999D01*
X104835999Y-66834999D02*
X103700000Y-67970998D01*
X114254999Y-66834999D02*
X104835999Y-66834999D01*
X115680000Y-68260000D02*
X114254999Y-66834999D01*
X103700000Y-67970998D02*
X103700000Y-71900000D01*
X101604999Y-73995001D02*
X101604999Y-84404999D01*
X103700000Y-71900000D02*
X101604999Y-73995001D01*
X118220000Y-68260000D02*
X115680000Y-68260000D01*
X128380000Y-68260000D02*
X126954999Y-66834999D01*
X126954999Y-66834999D02*
X119645001Y-66834999D01*
X119645001Y-66834999D02*
X119069999Y-67410001D01*
X119069999Y-67410001D02*
X118220000Y-68260000D01*
X130920000Y-68260000D02*
X128380000Y-68260000D01*
X133460000Y-68260000D02*
X130920000Y-68260000D01*
X136000000Y-68260000D02*
X133460000Y-68260000D01*
X133200000Y-90165001D02*
X115015001Y-90165001D01*
X115015001Y-90165001D02*
X113350000Y-88500000D01*
X113350000Y-88500000D02*
X111700000Y-88500000D01*
X111700000Y-88500000D02*
X111343002Y-88500000D01*
X111343002Y-88500000D02*
X109868001Y-89975001D01*
X109868001Y-89975001D02*
X107675001Y-89975001D01*
X107675001Y-89975001D02*
X107049999Y-89349999D01*
X107049999Y-89349999D02*
X106200000Y-88500000D01*
X135366369Y-90165001D02*
X133200000Y-90165001D01*
X131000000Y-86200000D02*
X132600000Y-86200000D01*
X132600000Y-86200000D02*
X133200000Y-86800000D01*
X133200000Y-86800000D02*
X133200000Y-90165001D01*
X136700000Y-87700000D02*
X136700000Y-88831370D01*
X136700000Y-88831370D02*
X135366369Y-90165001D01*
X147100000Y-81400000D02*
X148600000Y-81400000D01*
X148600000Y-81400000D02*
X149278601Y-82078601D01*
X149278601Y-82078601D02*
X149278601Y-89430529D01*
X149278601Y-89430529D02*
X148530529Y-90178601D01*
X148530529Y-90178601D02*
X141658601Y-90178601D01*
X141658601Y-90178601D02*
X140220000Y-88740000D01*
D29*
X136700000Y-87700000D02*
X137740000Y-88740000D01*
X137740000Y-88740000D02*
X140220000Y-88740000D01*
D30*
X115680000Y-68260000D02*
X114879002Y-68260000D01*
X118220000Y-68260000D02*
X119020998Y-68260000D01*
X130920000Y-70800000D02*
X132020000Y-69700000D01*
X132095001Y-69624999D02*
X132020000Y-69700000D01*
X144811200Y-76500000D02*
X144811200Y-75869000D01*
X144811200Y-75869000D02*
X144342200Y-75400000D01*
X144342200Y-75400000D02*
X142792043Y-75400000D01*
X142792043Y-75400000D02*
X137017042Y-69624999D01*
X137017042Y-69624999D02*
X132095001Y-69624999D01*
D28*
X144811200Y-76500000D02*
X144811200Y-78888800D01*
X144811200Y-78888800D02*
X144800000Y-78900000D01*
X140220000Y-86200000D02*
X140220000Y-84978686D01*
X140220000Y-84978686D02*
X139975010Y-84733696D01*
X139975010Y-84733696D02*
X139975010Y-81600000D01*
X139975010Y-81600000D02*
X140175010Y-81400000D01*
X140175010Y-81400000D02*
X144600000Y-81400000D01*
D27*
X144800000Y-78900000D02*
X144800000Y-81200000D01*
X144800000Y-81200000D02*
X144600000Y-81400000D01*
X144800000Y-78900000D02*
X144932201Y-78767799D01*
D30*
X144800000Y-76511200D02*
X144811200Y-76500000D01*
X144600000Y-81820000D02*
X144600000Y-81400000D01*
D27*
X136000000Y-70800000D02*
X137202081Y-70800000D01*
X137202081Y-70800000D02*
X142902081Y-76500000D01*
X142902081Y-76500000D02*
X143150000Y-76500000D01*
X133460000Y-70800000D02*
X136000000Y-70800000D01*
X142500000Y-78900000D02*
X142500000Y-77150000D01*
X142500000Y-77150000D02*
X143150000Y-76500000D01*
X143150000Y-76500000D02*
X143978999Y-76500000D01*
X138450000Y-84150000D02*
X139150000Y-83450000D01*
X139150000Y-83450000D02*
X139150000Y-80750000D01*
X139150000Y-80750000D02*
X141000000Y-78900000D01*
X141000000Y-78900000D02*
X142500000Y-78900000D01*
X125920000Y-86200000D02*
X125920000Y-84997919D01*
X125920000Y-84997919D02*
X126767919Y-84150000D01*
X126767919Y-84150000D02*
X138450000Y-84150000D01*
X125920000Y-86200000D02*
X122124000Y-86200000D01*
X122124000Y-86200000D02*
X118220000Y-82296000D01*
X118220000Y-82296000D02*
X114556000Y-85960000D01*
X114556000Y-85960000D02*
X106200000Y-85960000D01*
D30*
X144100000Y-76373000D02*
X144100000Y-76500000D01*
X125680000Y-85960000D02*
X125920000Y-86200000D01*
X146425002Y-83000000D02*
X141000000Y-83000000D01*
X148300000Y-83600000D02*
X147025002Y-83600000D01*
X147025002Y-83600000D02*
X146425002Y-83000000D01*
X137478999Y-83421001D02*
X137900000Y-83000000D01*
X110600000Y-82296000D02*
X111725001Y-81170999D01*
X111725001Y-81170999D02*
X123840001Y-81170999D01*
X123840001Y-81170999D02*
X124714999Y-82045997D01*
X124714999Y-82836001D02*
X125299999Y-83421001D01*
X124714999Y-82045997D02*
X124714999Y-82836001D01*
X125299999Y-83421001D02*
X137478999Y-83421001D01*
X148300000Y-83600000D02*
X148173000Y-83600000D01*
X109300000Y-71500000D02*
X106645001Y-74154999D01*
X106645001Y-74154999D02*
X106645001Y-81170999D01*
X106319999Y-81496001D02*
X105520000Y-82296000D01*
X106645001Y-81170999D02*
X106319999Y-81496001D01*
X109300000Y-70360998D02*
X109300000Y-71500000D01*
X110600000Y-68260000D02*
X110600000Y-69060998D01*
X110600000Y-69060998D02*
X109300000Y-70360998D01*
X146549990Y-84049990D02*
X146549990Y-87490010D01*
X146549990Y-87490010D02*
X146488601Y-87551399D01*
X145300000Y-88740000D02*
X146488601Y-87551399D01*
X128460000Y-86200000D02*
X129809990Y-84850010D01*
X129809990Y-84850010D02*
X137110880Y-84850010D01*
X137110880Y-84850010D02*
X139649471Y-87388601D01*
X139649471Y-87388601D02*
X144111399Y-87388601D01*
X144111399Y-87388601D02*
X144436401Y-87063599D01*
X144436401Y-87063599D02*
X145300000Y-86200000D01*
D27*
X109160000Y-88500000D02*
X109260000Y-88600000D01*
D30*
X120760000Y-70800000D02*
X121885001Y-71925001D01*
X121885001Y-71925001D02*
X121885001Y-75801001D01*
X121885001Y-75801001D02*
X127580001Y-81496001D01*
X127580001Y-81496001D02*
X128380000Y-82296000D01*
X147840000Y-86200000D02*
X147840000Y-86360000D01*
X148300000Y-84311200D02*
X148300000Y-85740000D01*
X148300000Y-85740000D02*
X147840000Y-86200000D01*
X116805001Y-76394999D02*
X116805001Y-77994999D01*
X116805001Y-77994999D02*
X115600000Y-79200000D01*
X125840000Y-68260000D02*
X124664999Y-69435001D01*
X124664999Y-69435001D02*
X120264999Y-69435001D01*
X120264999Y-69435001D02*
X119395001Y-70304999D01*
X119395001Y-70304999D02*
X119395001Y-71835997D01*
X119395001Y-71835997D02*
X116805001Y-74425997D01*
X116805001Y-74425997D02*
X116805001Y-76394999D01*
X123300000Y-70800000D02*
X123300000Y-72002081D01*
X123300000Y-72002081D02*
X124714999Y-73417080D01*
X124714999Y-73417080D02*
X124714999Y-76090999D01*
X124714999Y-76090999D02*
X130120001Y-81496001D01*
X130120001Y-81496001D02*
X130920000Y-82296000D01*
X125840000Y-70800000D02*
X126965001Y-71925001D01*
X132660001Y-81496001D02*
X133460000Y-82296000D01*
X126965001Y-75801001D02*
X132660001Y-81496001D01*
X126965001Y-71925001D02*
X126965001Y-75801001D01*
X102980000Y-74676000D02*
X105520000Y-72136000D01*
X105520000Y-72136000D02*
X105520000Y-70800000D01*
X128380000Y-70800000D02*
X128380000Y-72002081D01*
X128380000Y-72002081D02*
X129794999Y-73417080D01*
X129794999Y-73417080D02*
X129794999Y-76090999D01*
X129794999Y-76090999D02*
X135200001Y-81496001D01*
X135200001Y-81496001D02*
X136000000Y-82296000D01*
D31*
G36*
X138600000Y-70606917D02*
X137317562Y-69324479D01*
X137179683Y-69232350D01*
X137152699Y-69226983D01*
X137017042Y-69199999D01*
X132095001Y-69199999D01*
X131932361Y-69232350D01*
X131932359Y-69232351D01*
X131932360Y-69232351D01*
X131794480Y-69324479D01*
X131719480Y-69399480D01*
X131386381Y-69732579D01*
X131360086Y-69715009D01*
X130920000Y-69627470D01*
X130479914Y-69715009D01*
X130106827Y-69964297D01*
X129857539Y-70337384D01*
X129770000Y-70777470D01*
X129770000Y-70822530D01*
X129857539Y-71262616D01*
X130106827Y-71635703D01*
X130479914Y-71884991D01*
X130920000Y-71972530D01*
X131360086Y-71884991D01*
X131733173Y-71635703D01*
X131982461Y-71262616D01*
X132070000Y-70822530D01*
X132070000Y-70777470D01*
X131982659Y-70338381D01*
X132271041Y-70049999D01*
X132589563Y-70049999D01*
X132397539Y-70337384D01*
X132310000Y-70777470D01*
X132310000Y-70822530D01*
X132397539Y-71262616D01*
X132646827Y-71635703D01*
X133019914Y-71884991D01*
X133460000Y-71972530D01*
X133900086Y-71884991D01*
X134273173Y-71635703D01*
X134380551Y-71475000D01*
X135079449Y-71475000D01*
X135186827Y-71635703D01*
X135559914Y-71884991D01*
X136000000Y-71972530D01*
X136440086Y-71884991D01*
X136813173Y-71635703D01*
X136920551Y-71475000D01*
X136922487Y-71475000D01*
X142071447Y-76623960D01*
X142022703Y-76672703D01*
X141876381Y-76891688D01*
X141856158Y-76993359D01*
X141825000Y-77150000D01*
X141825000Y-77594123D01*
X141750000Y-77594123D01*
X141638827Y-77615042D01*
X141536721Y-77680745D01*
X141468222Y-77780997D01*
X141444123Y-77900000D01*
X141444123Y-78225000D01*
X141000000Y-78225000D01*
X140741688Y-78276381D01*
X140522703Y-78422703D01*
X138672703Y-80272703D01*
X138526381Y-80491688D01*
X138512451Y-80561721D01*
X138475000Y-80750000D01*
X138475000Y-82820420D01*
X138408952Y-82660571D01*
X138240317Y-82491641D01*
X138019871Y-82400104D01*
X137781176Y-82399896D01*
X137560571Y-82491048D01*
X137391641Y-82659683D01*
X137300104Y-82880129D01*
X137300003Y-82996001D01*
X136844211Y-82996001D01*
X137016267Y-82738502D01*
X137100000Y-82317550D01*
X137100000Y-82274450D01*
X137016267Y-81853498D01*
X136777817Y-81496633D01*
X136420952Y-81258183D01*
X136000000Y-81174450D01*
X135579048Y-81258183D01*
X135569562Y-81264522D01*
X130219999Y-75914959D01*
X130219999Y-75527362D01*
X130499048Y-75713817D01*
X130920000Y-75797550D01*
X131340952Y-75713817D01*
X131697817Y-75475367D01*
X131936267Y-75118502D01*
X132020000Y-74697550D01*
X132020000Y-74654450D01*
X132360000Y-74654450D01*
X132360000Y-74697550D01*
X132443733Y-75118502D01*
X132682183Y-75475367D01*
X133039048Y-75713817D01*
X133460000Y-75797550D01*
X133880952Y-75713817D01*
X134237817Y-75475367D01*
X134476267Y-75118502D01*
X134560000Y-74697550D01*
X134560000Y-74654450D01*
X134900000Y-74654450D01*
X134900000Y-74697550D01*
X134983733Y-75118502D01*
X135222183Y-75475367D01*
X135579048Y-75713817D01*
X136000000Y-75797550D01*
X136420952Y-75713817D01*
X136777817Y-75475367D01*
X137016267Y-75118502D01*
X137100000Y-74697550D01*
X137100000Y-74654450D01*
X137016267Y-74233498D01*
X136777817Y-73876633D01*
X136420952Y-73638183D01*
X136000000Y-73554450D01*
X135579048Y-73638183D01*
X135222183Y-73876633D01*
X134983733Y-74233498D01*
X134900000Y-74654450D01*
X134560000Y-74654450D01*
X134476267Y-74233498D01*
X134237817Y-73876633D01*
X133880952Y-73638183D01*
X133460000Y-73554450D01*
X133039048Y-73638183D01*
X132682183Y-73876633D01*
X132443733Y-74233498D01*
X132360000Y-74654450D01*
X132020000Y-74654450D01*
X131936267Y-74233498D01*
X131697817Y-73876633D01*
X131340952Y-73638183D01*
X130920000Y-73554450D01*
X130499048Y-73638183D01*
X130219999Y-73824638D01*
X130219999Y-73417080D01*
X130187648Y-73254440D01*
X130187648Y-73254439D01*
X130095520Y-73116560D01*
X128846381Y-71867422D01*
X129193173Y-71635703D01*
X129442461Y-71262616D01*
X129530000Y-70822530D01*
X129530000Y-70777470D01*
X129442461Y-70337384D01*
X129193173Y-69964297D01*
X128820086Y-69715009D01*
X128380000Y-69627470D01*
X127939914Y-69715009D01*
X127566827Y-69964297D01*
X127317539Y-70337384D01*
X127230000Y-70777470D01*
X127230000Y-70822530D01*
X127317539Y-71262616D01*
X127566827Y-71635703D01*
X127939914Y-71884991D01*
X127955000Y-71887992D01*
X127955000Y-72002081D01*
X127972019Y-72087642D01*
X127987351Y-72164722D01*
X128079480Y-72302601D01*
X129369999Y-73593121D01*
X129369999Y-74194185D01*
X129157817Y-73876633D01*
X128800952Y-73638183D01*
X128380000Y-73554450D01*
X127959048Y-73638183D01*
X127602183Y-73876633D01*
X127390001Y-74194185D01*
X127390001Y-71925001D01*
X127382043Y-71884991D01*
X127357650Y-71762360D01*
X127265522Y-71624481D01*
X126902659Y-71261619D01*
X126990000Y-70822530D01*
X126990000Y-70777470D01*
X126902461Y-70337384D01*
X126653173Y-69964297D01*
X126280086Y-69715009D01*
X125840000Y-69627470D01*
X125399914Y-69715009D01*
X125026827Y-69964297D01*
X124777539Y-70337384D01*
X124690000Y-70777470D01*
X124690000Y-70822530D01*
X124777539Y-71262616D01*
X125026827Y-71635703D01*
X125399914Y-71884991D01*
X125840000Y-71972530D01*
X126280086Y-71884991D01*
X126306381Y-71867421D01*
X126540001Y-72101042D01*
X126540001Y-73824638D01*
X126260952Y-73638183D01*
X125840000Y-73554450D01*
X125419048Y-73638183D01*
X125139999Y-73824638D01*
X125139999Y-73417080D01*
X125107648Y-73254440D01*
X125107648Y-73254439D01*
X125015520Y-73116560D01*
X123766381Y-71867422D01*
X124113173Y-71635703D01*
X124362461Y-71262616D01*
X124450000Y-70822530D01*
X124450000Y-70777470D01*
X124362461Y-70337384D01*
X124113173Y-69964297D01*
X123957083Y-69860001D01*
X124664999Y-69860001D01*
X124800656Y-69833017D01*
X124827640Y-69827650D01*
X124965519Y-69735521D01*
X125373619Y-69327421D01*
X125399914Y-69344991D01*
X125840000Y-69432530D01*
X126280086Y-69344991D01*
X126653173Y-69095703D01*
X126902461Y-68722616D01*
X126990000Y-68282530D01*
X126990000Y-68237470D01*
X126902461Y-67797384D01*
X126653173Y-67424297D01*
X126280086Y-67175009D01*
X125840000Y-67087470D01*
X125399914Y-67175009D01*
X125026827Y-67424297D01*
X124777539Y-67797384D01*
X124690000Y-68237470D01*
X124690000Y-68282530D01*
X124777341Y-68721619D01*
X124488959Y-69010001D01*
X124170437Y-69010001D01*
X124362461Y-68722616D01*
X124450000Y-68282530D01*
X124450000Y-68237470D01*
X124362461Y-67797384D01*
X124113173Y-67424297D01*
X123740086Y-67175009D01*
X123300000Y-67087470D01*
X122859914Y-67175009D01*
X122486827Y-67424297D01*
X122237539Y-67797384D01*
X122150000Y-68237470D01*
X122150000Y-68282530D01*
X122237539Y-68722616D01*
X122429563Y-69010001D01*
X121630437Y-69010001D01*
X121822461Y-68722616D01*
X121910000Y-68282530D01*
X121910000Y-68237470D01*
X121822461Y-67797384D01*
X121573173Y-67424297D01*
X121200086Y-67175009D01*
X120760000Y-67087470D01*
X120319914Y-67175009D01*
X119946827Y-67424297D01*
X119697539Y-67797384D01*
X119610000Y-68237470D01*
X119610000Y-68282530D01*
X119697539Y-68722616D01*
X119946827Y-69095703D01*
X119984671Y-69120989D01*
X119964479Y-69134481D01*
X119094481Y-70004479D01*
X119077251Y-70030265D01*
X119033173Y-69964297D01*
X118660086Y-69715009D01*
X118220000Y-69627470D01*
X117779914Y-69715009D01*
X117406827Y-69964297D01*
X117157539Y-70337384D01*
X117070000Y-70777470D01*
X117070000Y-70822530D01*
X117157539Y-71262616D01*
X117406827Y-71635703D01*
X117779914Y-71884991D01*
X118220000Y-71972530D01*
X118660086Y-71884991D01*
X118915888Y-71714070D01*
X116576181Y-74053777D01*
X116457817Y-73876633D01*
X116100952Y-73638183D01*
X115680000Y-73554450D01*
X115259048Y-73638183D01*
X114902183Y-73876633D01*
X114663733Y-74233498D01*
X114580000Y-74654450D01*
X114580000Y-74697550D01*
X114663733Y-75118502D01*
X114902183Y-75475367D01*
X115259048Y-75713817D01*
X115680000Y-75797550D01*
X116100952Y-75713817D01*
X116380001Y-75527362D01*
X116380001Y-77818958D01*
X115598961Y-78599999D01*
X115481176Y-78599896D01*
X115260571Y-78691048D01*
X115091641Y-78859683D01*
X115000104Y-79080129D01*
X114999896Y-79318824D01*
X115091048Y-79539429D01*
X115259683Y-79708359D01*
X115480129Y-79799896D01*
X115718824Y-79800104D01*
X115939429Y-79708952D01*
X116108359Y-79540317D01*
X116199896Y-79319871D01*
X116200000Y-79201041D01*
X117105522Y-78295519D01*
X117197650Y-78157640D01*
X117230001Y-77994999D01*
X117230001Y-74602037D01*
X119695521Y-72136517D01*
X119787650Y-71998638D01*
X119808732Y-71892649D01*
X119820001Y-71835997D01*
X119820001Y-71445894D01*
X119946827Y-71635703D01*
X120319914Y-71884991D01*
X120760000Y-71972530D01*
X121200086Y-71884991D01*
X121226381Y-71867421D01*
X121460001Y-72101042D01*
X121460001Y-73824638D01*
X121180952Y-73638183D01*
X120760000Y-73554450D01*
X120339048Y-73638183D01*
X119982183Y-73876633D01*
X119743733Y-74233498D01*
X119660000Y-74654450D01*
X119660000Y-74697550D01*
X119743733Y-75118502D01*
X119982183Y-75475367D01*
X120339048Y-75713817D01*
X120760000Y-75797550D01*
X121180952Y-75713817D01*
X121460001Y-75527362D01*
X121460001Y-75801001D01*
X121473527Y-75869000D01*
X121492352Y-75963642D01*
X121584481Y-76101521D01*
X127279480Y-81796521D01*
X127279483Y-81796523D01*
X127359208Y-81876248D01*
X127280000Y-82274450D01*
X127280000Y-82317550D01*
X127363733Y-82738502D01*
X127535789Y-82996001D01*
X126684211Y-82996001D01*
X126856267Y-82738502D01*
X126940000Y-82317550D01*
X126940000Y-82274450D01*
X126856267Y-81853498D01*
X126617817Y-81496633D01*
X126260952Y-81258183D01*
X125840000Y-81174450D01*
X125419048Y-81258183D01*
X125062183Y-81496633D01*
X124943819Y-81673777D01*
X124140521Y-80870479D01*
X124002642Y-80778350D01*
X123975658Y-80772983D01*
X123840001Y-80745999D01*
X111725001Y-80745999D01*
X111562360Y-80778350D01*
X111424481Y-80870478D01*
X111030438Y-81264521D01*
X111020952Y-81258183D01*
X110600000Y-81174450D01*
X110179048Y-81258183D01*
X109822183Y-81496633D01*
X109583733Y-81853498D01*
X109500000Y-82274450D01*
X109500000Y-82317550D01*
X109583733Y-82738502D01*
X109822183Y-83095367D01*
X110179048Y-83333817D01*
X110600000Y-83417550D01*
X111020952Y-83333817D01*
X111377817Y-83095367D01*
X111616267Y-82738502D01*
X111700000Y-82317550D01*
X111700000Y-82274450D01*
X111620792Y-81876248D01*
X111901042Y-81595999D01*
X112295789Y-81595999D01*
X112123733Y-81853498D01*
X112040000Y-82274450D01*
X112040000Y-82317550D01*
X112123733Y-82738502D01*
X112362183Y-83095367D01*
X112719048Y-83333817D01*
X113140000Y-83417550D01*
X113560952Y-83333817D01*
X113917817Y-83095367D01*
X114156267Y-82738502D01*
X114240000Y-82317550D01*
X114240000Y-82274450D01*
X114156267Y-81853498D01*
X113984211Y-81595999D01*
X114835789Y-81595999D01*
X114663733Y-81853498D01*
X114580000Y-82274450D01*
X114580000Y-82317550D01*
X114663733Y-82738502D01*
X114902183Y-83095367D01*
X115259048Y-83333817D01*
X115680000Y-83417550D01*
X116100952Y-83333817D01*
X116457817Y-83095367D01*
X116696267Y-82738502D01*
X116780000Y-82317550D01*
X116780000Y-82274450D01*
X116696267Y-81853498D01*
X116524211Y-81595999D01*
X117375789Y-81595999D01*
X117203733Y-81853498D01*
X117120000Y-82274450D01*
X117120000Y-82317550D01*
X117140549Y-82420857D01*
X114276406Y-85285000D01*
X107355877Y-85285000D01*
X107355877Y-85110000D01*
X107334958Y-84998827D01*
X107269255Y-84896721D01*
X107169003Y-84828222D01*
X107050000Y-84804123D01*
X105350000Y-84804123D01*
X105238827Y-84825042D01*
X105136721Y-84890745D01*
X105068222Y-84990997D01*
X105044123Y-85110000D01*
X105044123Y-86810000D01*
X105065042Y-86921173D01*
X105130745Y-87023279D01*
X105230997Y-87091778D01*
X105350000Y-87115877D01*
X107050000Y-87115877D01*
X107161173Y-87094958D01*
X107263279Y-87029255D01*
X107331778Y-86929003D01*
X107355877Y-86810000D01*
X107355877Y-86635000D01*
X114556000Y-86635000D01*
X114814312Y-86583619D01*
X115033297Y-86437297D01*
X118080744Y-83389850D01*
X118220000Y-83417550D01*
X118359256Y-83389850D01*
X121326557Y-86357151D01*
X121309774Y-86350182D01*
X120892058Y-86349818D01*
X120506000Y-86509334D01*
X120210372Y-86804446D01*
X120050182Y-87190226D01*
X120049818Y-87607942D01*
X120209334Y-87994000D01*
X120504446Y-88289628D01*
X120890226Y-88449818D01*
X121307942Y-88450182D01*
X121694000Y-88290666D01*
X121989628Y-87995554D01*
X122149818Y-87609774D01*
X122150182Y-87192058D01*
X122009789Y-86852282D01*
X122124000Y-86875000D01*
X124999449Y-86875000D01*
X125106827Y-87035703D01*
X125479914Y-87284991D01*
X125920000Y-87372530D01*
X126360086Y-87284991D01*
X126733173Y-87035703D01*
X126982461Y-86662616D01*
X127070000Y-86222530D01*
X127070000Y-86177470D01*
X126982461Y-85737384D01*
X126733173Y-85364297D01*
X126598321Y-85274192D01*
X127047513Y-84825000D01*
X129233959Y-84825000D01*
X128926381Y-85132579D01*
X128900086Y-85115009D01*
X128460000Y-85027470D01*
X128019914Y-85115009D01*
X127646827Y-85364297D01*
X127397539Y-85737384D01*
X127310000Y-86177470D01*
X127310000Y-86222530D01*
X127397539Y-86662616D01*
X127646827Y-87035703D01*
X128019914Y-87284991D01*
X128460000Y-87372530D01*
X128900086Y-87284991D01*
X129273173Y-87035703D01*
X129363846Y-86900000D01*
X133594123Y-86900000D01*
X133594123Y-88500000D01*
X133615042Y-88611173D01*
X133680745Y-88713279D01*
X133780997Y-88781778D01*
X133900000Y-88805877D01*
X135500000Y-88805877D01*
X135611173Y-88784958D01*
X135713279Y-88719255D01*
X135781778Y-88619003D01*
X135805877Y-88500000D01*
X135805877Y-86900000D01*
X135784958Y-86788827D01*
X135719255Y-86686721D01*
X135619003Y-86618222D01*
X135500000Y-86594123D01*
X133900000Y-86594123D01*
X133788827Y-86615042D01*
X133686721Y-86680745D01*
X133618222Y-86780997D01*
X133594123Y-86900000D01*
X129363846Y-86900000D01*
X129522461Y-86662616D01*
X129610000Y-86222530D01*
X129610000Y-86177470D01*
X129522659Y-85738381D01*
X129986031Y-85275010D01*
X136934840Y-85275010D01*
X139348951Y-87689122D01*
X139486830Y-87781250D01*
X139649471Y-87813601D01*
X142069478Y-87813601D01*
X141914415Y-87917211D01*
X141662178Y-88294710D01*
X141573604Y-88740000D01*
X141662178Y-89185290D01*
X141914415Y-89562789D01*
X142291914Y-89815026D01*
X142737204Y-89903600D01*
X142782796Y-89903600D01*
X143228086Y-89815026D01*
X143605585Y-89562789D01*
X143857822Y-89185290D01*
X143946396Y-88740000D01*
X143857822Y-88294710D01*
X143605585Y-87917211D01*
X143450522Y-87813601D01*
X144111399Y-87813601D01*
X144247056Y-87786617D01*
X144274040Y-87781250D01*
X144411919Y-87689121D01*
X144736921Y-87364120D01*
X144736923Y-87364117D01*
X144828377Y-87272663D01*
X144831914Y-87275026D01*
X145277204Y-87363600D01*
X145322796Y-87363600D01*
X145768086Y-87275026D01*
X146124990Y-87036550D01*
X146124990Y-87313969D01*
X145771622Y-87667337D01*
X145768086Y-87664974D01*
X145322796Y-87576400D01*
X145277204Y-87576400D01*
X144831914Y-87664974D01*
X144454415Y-87917211D01*
X144202178Y-88294710D01*
X144113604Y-88740000D01*
X144202178Y-89185290D01*
X144454415Y-89562789D01*
X144831914Y-89815026D01*
X145277204Y-89903600D01*
X145322796Y-89903600D01*
X145768086Y-89815026D01*
X146145585Y-89562789D01*
X146397822Y-89185290D01*
X146486396Y-88740000D01*
X146653604Y-88740000D01*
X146742178Y-89185290D01*
X146994415Y-89562789D01*
X147371914Y-89815026D01*
X147817204Y-89903600D01*
X147862796Y-89903600D01*
X148308086Y-89815026D01*
X148685585Y-89562789D01*
X148937822Y-89185290D01*
X149026396Y-88740000D01*
X148937822Y-88294710D01*
X148685585Y-87917211D01*
X148308086Y-87664974D01*
X147862796Y-87576400D01*
X147817204Y-87576400D01*
X147371914Y-87664974D01*
X146994415Y-87917211D01*
X146742178Y-88294710D01*
X146653604Y-88740000D01*
X146486396Y-88740000D01*
X146397822Y-88294710D01*
X146377197Y-88263843D01*
X146789122Y-87851919D01*
X146789124Y-87851916D01*
X146850510Y-87790530D01*
X146942639Y-87652651D01*
X146948006Y-87625667D01*
X146974990Y-87490010D01*
X146974990Y-86993717D01*
X146994415Y-87022789D01*
X147371914Y-87275026D01*
X147817204Y-87363600D01*
X147862796Y-87363600D01*
X148308086Y-87275026D01*
X148685585Y-87022789D01*
X148937822Y-86645290D01*
X149026396Y-86200000D01*
X148937822Y-85754710D01*
X148725000Y-85436200D01*
X148725000Y-84866061D01*
X148793359Y-84853198D01*
X148896554Y-84786794D01*
X148965784Y-84685473D01*
X148990140Y-84565200D01*
X148990140Y-84057200D01*
X148970321Y-83951870D01*
X148990140Y-83854000D01*
X148990140Y-83346000D01*
X148968998Y-83233641D01*
X148902594Y-83130446D01*
X148801273Y-83061216D01*
X148681000Y-83036860D01*
X147919000Y-83036860D01*
X147806641Y-83058002D01*
X147703446Y-83124406D01*
X147668876Y-83175000D01*
X147201042Y-83175000D01*
X146725522Y-82699480D01*
X146587643Y-82607351D01*
X146560659Y-82601984D01*
X146425002Y-82575000D01*
X141423530Y-82575000D01*
X141340317Y-82491641D01*
X141119871Y-82400104D01*
X140881176Y-82399896D01*
X140660571Y-82491048D01*
X140525010Y-82626372D01*
X140525010Y-81950000D01*
X143544123Y-81950000D01*
X143544123Y-82025000D01*
X143565042Y-82136173D01*
X143630745Y-82238279D01*
X143730997Y-82306778D01*
X143850000Y-82330877D01*
X145350000Y-82330877D01*
X145461173Y-82309958D01*
X145563279Y-82244255D01*
X145631778Y-82144003D01*
X145655877Y-82025000D01*
X145655877Y-80775000D01*
X145634958Y-80663827D01*
X145569255Y-80561721D01*
X145475000Y-80497320D01*
X145475000Y-80205877D01*
X145550000Y-80205877D01*
X145661173Y-80184958D01*
X145763279Y-80119255D01*
X145831778Y-80019003D01*
X145855877Y-79900000D01*
X145855877Y-77900000D01*
X145834958Y-77788827D01*
X145769255Y-77686721D01*
X145669003Y-77618222D01*
X145550000Y-77594123D01*
X145361200Y-77594123D01*
X145361200Y-76945887D01*
X145374340Y-76881000D01*
X145374340Y-76119000D01*
X145353198Y-76006641D01*
X145286794Y-75903446D01*
X145236172Y-75868857D01*
X145203849Y-75706360D01*
X145203849Y-75706359D01*
X145111720Y-75568480D01*
X144642720Y-75099480D01*
X144504841Y-75007351D01*
X144477857Y-75001984D01*
X144342200Y-74975000D01*
X142968084Y-74975000D01*
X139593084Y-71600000D01*
X142594123Y-71600000D01*
X142594123Y-73600000D01*
X142615042Y-73711173D01*
X142680745Y-73813279D01*
X142780997Y-73881778D01*
X142900000Y-73905877D01*
X146700000Y-73905877D01*
X146811173Y-73884958D01*
X146913279Y-73819255D01*
X146981778Y-73719003D01*
X147005877Y-73600000D01*
X147005877Y-71600000D01*
X146984958Y-71488827D01*
X146919255Y-71386721D01*
X146819003Y-71318222D01*
X146700000Y-71294123D01*
X142900000Y-71294123D01*
X142788827Y-71315042D01*
X142686721Y-71380745D01*
X142618222Y-71480997D01*
X142594123Y-71600000D01*
X139593084Y-71600000D01*
X138893083Y-70900000D01*
X149625000Y-70900000D01*
X149625000Y-90625000D01*
X100375000Y-90625000D01*
X100375000Y-89431256D01*
X100453757Y-89431256D01*
X100666445Y-89946000D01*
X101059928Y-90340170D01*
X101574301Y-90553757D01*
X102131256Y-90554243D01*
X102646000Y-90341555D01*
X103040170Y-89948072D01*
X103253757Y-89433699D01*
X103254243Y-88876744D01*
X103196770Y-88737647D01*
X107959793Y-88737647D01*
X108142097Y-89178857D01*
X108479367Y-89516717D01*
X108920258Y-89699791D01*
X109397647Y-89700207D01*
X109838857Y-89517903D01*
X110176717Y-89180633D01*
X110359791Y-88739742D01*
X110359810Y-88717470D01*
X124770000Y-88717470D01*
X124770000Y-88762530D01*
X124857539Y-89202616D01*
X125106827Y-89575703D01*
X125479914Y-89824991D01*
X125920000Y-89912530D01*
X126360086Y-89824991D01*
X126733173Y-89575703D01*
X126982461Y-89202616D01*
X127070000Y-88762530D01*
X127070000Y-88717470D01*
X127310000Y-88717470D01*
X127310000Y-88762530D01*
X127397539Y-89202616D01*
X127646827Y-89575703D01*
X128019914Y-89824991D01*
X128460000Y-89912530D01*
X128900086Y-89824991D01*
X129273173Y-89575703D01*
X129522461Y-89202616D01*
X129610000Y-88762530D01*
X129610000Y-88717470D01*
X129850000Y-88717470D01*
X129850000Y-88762530D01*
X129937539Y-89202616D01*
X130186827Y-89575703D01*
X130559914Y-89824991D01*
X131000000Y-89912530D01*
X131440086Y-89824991D01*
X131813173Y-89575703D01*
X132062461Y-89202616D01*
X132150000Y-88762530D01*
X132150000Y-88717470D01*
X132062461Y-88277384D01*
X131813173Y-87904297D01*
X131440086Y-87655009D01*
X131000000Y-87567470D01*
X130559914Y-87655009D01*
X130186827Y-87904297D01*
X129937539Y-88277384D01*
X129850000Y-88717470D01*
X129610000Y-88717470D01*
X129522461Y-88277384D01*
X129273173Y-87904297D01*
X128900086Y-87655009D01*
X128460000Y-87567470D01*
X128019914Y-87655009D01*
X127646827Y-87904297D01*
X127397539Y-88277384D01*
X127310000Y-88717470D01*
X127070000Y-88717470D01*
X126982461Y-88277384D01*
X126733173Y-87904297D01*
X126360086Y-87655009D01*
X125920000Y-87567470D01*
X125479914Y-87655009D01*
X125106827Y-87904297D01*
X124857539Y-88277384D01*
X124770000Y-88717470D01*
X110359810Y-88717470D01*
X110360207Y-88262353D01*
X110177903Y-87821143D01*
X109965075Y-87607942D01*
X115049818Y-87607942D01*
X115209334Y-87994000D01*
X115504446Y-88289628D01*
X115890226Y-88449818D01*
X116307942Y-88450182D01*
X116694000Y-88290666D01*
X116989628Y-87995554D01*
X117149818Y-87609774D01*
X117150182Y-87192058D01*
X116990666Y-86806000D01*
X116695554Y-86510372D01*
X116309774Y-86350182D01*
X115892058Y-86349818D01*
X115506000Y-86509334D01*
X115210372Y-86804446D01*
X115050182Y-87190226D01*
X115049818Y-87607942D01*
X109965075Y-87607942D01*
X109840633Y-87483283D01*
X109399742Y-87300209D01*
X108922353Y-87299793D01*
X108481143Y-87482097D01*
X108143283Y-87819367D01*
X107960209Y-88260258D01*
X107959793Y-88737647D01*
X103196770Y-88737647D01*
X103041555Y-88362000D01*
X102648072Y-87967830D01*
X102133699Y-87754243D01*
X101576744Y-87753757D01*
X101062000Y-87966445D01*
X100667830Y-88359928D01*
X100454243Y-88874301D01*
X100453757Y-89431256D01*
X100375000Y-89431256D01*
X100375000Y-81496000D01*
X101874123Y-81496000D01*
X101874123Y-83096000D01*
X101895042Y-83207173D01*
X101960745Y-83309279D01*
X102060997Y-83377778D01*
X102180000Y-83401877D01*
X103780000Y-83401877D01*
X103891173Y-83380958D01*
X103993279Y-83315255D01*
X104061778Y-83215003D01*
X104085877Y-83096000D01*
X104085877Y-81496000D01*
X104064958Y-81384827D01*
X103999255Y-81282721D01*
X103899003Y-81214222D01*
X103780000Y-81190123D01*
X102180000Y-81190123D01*
X102068827Y-81211042D01*
X101966721Y-81276745D01*
X101898222Y-81376997D01*
X101874123Y-81496000D01*
X100375000Y-81496000D01*
X100375000Y-74654450D01*
X101880000Y-74654450D01*
X101880000Y-74697550D01*
X101963733Y-75118502D01*
X102202183Y-75475367D01*
X102559048Y-75713817D01*
X102980000Y-75797550D01*
X103400952Y-75713817D01*
X103757817Y-75475367D01*
X103996267Y-75118502D01*
X104080000Y-74697550D01*
X104080000Y-74654450D01*
X104420000Y-74654450D01*
X104420000Y-74697550D01*
X104503733Y-75118502D01*
X104742183Y-75475367D01*
X105099048Y-75713817D01*
X105520000Y-75797550D01*
X105940952Y-75713817D01*
X106220001Y-75527362D01*
X106220001Y-80994958D01*
X106019481Y-81195479D01*
X106019478Y-81195481D01*
X105950438Y-81264521D01*
X105940952Y-81258183D01*
X105520000Y-81174450D01*
X105099048Y-81258183D01*
X104742183Y-81496633D01*
X104503733Y-81853498D01*
X104420000Y-82274450D01*
X104420000Y-82317550D01*
X104503733Y-82738502D01*
X104742183Y-83095367D01*
X105099048Y-83333817D01*
X105520000Y-83417550D01*
X105940952Y-83333817D01*
X106297817Y-83095367D01*
X106536267Y-82738502D01*
X106620000Y-82317550D01*
X106620000Y-82274450D01*
X106960000Y-82274450D01*
X106960000Y-82317550D01*
X107043733Y-82738502D01*
X107282183Y-83095367D01*
X107639048Y-83333817D01*
X108060000Y-83417550D01*
X108480952Y-83333817D01*
X108837817Y-83095367D01*
X109076267Y-82738502D01*
X109160000Y-82317550D01*
X109160000Y-82274450D01*
X109076267Y-81853498D01*
X108837817Y-81496633D01*
X108480952Y-81258183D01*
X108060000Y-81174450D01*
X107639048Y-81258183D01*
X107282183Y-81496633D01*
X107043733Y-81853498D01*
X106960000Y-82274450D01*
X106620000Y-82274450D01*
X106540792Y-81876249D01*
X106620519Y-81796522D01*
X106620521Y-81796519D01*
X106945521Y-81471520D01*
X107037649Y-81333640D01*
X107037650Y-81333639D01*
X107070001Y-81170999D01*
X107070001Y-75157815D01*
X107282183Y-75475367D01*
X107639048Y-75713817D01*
X108060000Y-75797550D01*
X108480952Y-75713817D01*
X108837817Y-75475367D01*
X109076267Y-75118502D01*
X109160000Y-74697550D01*
X109160000Y-74654450D01*
X109500000Y-74654450D01*
X109500000Y-74697550D01*
X109583733Y-75118502D01*
X109822183Y-75475367D01*
X110179048Y-75713817D01*
X110600000Y-75797550D01*
X111020952Y-75713817D01*
X111377817Y-75475367D01*
X111616267Y-75118502D01*
X111700000Y-74697550D01*
X111700000Y-74654450D01*
X112040000Y-74654450D01*
X112040000Y-74697550D01*
X112123733Y-75118502D01*
X112362183Y-75475367D01*
X112719048Y-75713817D01*
X113140000Y-75797550D01*
X113560952Y-75713817D01*
X113917817Y-75475367D01*
X114156267Y-75118502D01*
X114240000Y-74697550D01*
X114240000Y-74654450D01*
X114156267Y-74233498D01*
X113917817Y-73876633D01*
X113560952Y-73638183D01*
X113140000Y-73554450D01*
X112719048Y-73638183D01*
X112362183Y-73876633D01*
X112123733Y-74233498D01*
X112040000Y-74654450D01*
X111700000Y-74654450D01*
X111616267Y-74233498D01*
X111377817Y-73876633D01*
X111020952Y-73638183D01*
X110600000Y-73554450D01*
X110179048Y-73638183D01*
X109822183Y-73876633D01*
X109583733Y-74233498D01*
X109500000Y-74654450D01*
X109160000Y-74654450D01*
X109076267Y-74233498D01*
X108837817Y-73876633D01*
X108480952Y-73638183D01*
X108060000Y-73554450D01*
X107793600Y-73607441D01*
X109600521Y-71800520D01*
X109692649Y-71662641D01*
X109718383Y-71533268D01*
X109786827Y-71635703D01*
X110159914Y-71884991D01*
X110600000Y-71972530D01*
X111040086Y-71884991D01*
X111413173Y-71635703D01*
X111662461Y-71262616D01*
X111750000Y-70822530D01*
X111750000Y-70777470D01*
X111990000Y-70777470D01*
X111990000Y-70822530D01*
X112077539Y-71262616D01*
X112326827Y-71635703D01*
X112699914Y-71884991D01*
X113140000Y-71972530D01*
X113580086Y-71884991D01*
X113953173Y-71635703D01*
X114202461Y-71262616D01*
X114290000Y-70822530D01*
X114290000Y-70777470D01*
X114530000Y-70777470D01*
X114530000Y-70822530D01*
X114617539Y-71262616D01*
X114866827Y-71635703D01*
X115239914Y-71884991D01*
X115680000Y-71972530D01*
X116120086Y-71884991D01*
X116493173Y-71635703D01*
X116742461Y-71262616D01*
X116830000Y-70822530D01*
X116830000Y-70777470D01*
X116742461Y-70337384D01*
X116493173Y-69964297D01*
X116120086Y-69715009D01*
X115680000Y-69627470D01*
X115239914Y-69715009D01*
X114866827Y-69964297D01*
X114617539Y-70337384D01*
X114530000Y-70777470D01*
X114290000Y-70777470D01*
X114202461Y-70337384D01*
X113953173Y-69964297D01*
X113580086Y-69715009D01*
X113140000Y-69627470D01*
X112699914Y-69715009D01*
X112326827Y-69964297D01*
X112077539Y-70337384D01*
X111990000Y-70777470D01*
X111750000Y-70777470D01*
X111662461Y-70337384D01*
X111413173Y-69964297D01*
X111040086Y-69715009D01*
X110628833Y-69633205D01*
X110886497Y-69375542D01*
X111040086Y-69344991D01*
X111413173Y-69095703D01*
X111662461Y-68722616D01*
X111750000Y-68282530D01*
X111750000Y-68237470D01*
X111990000Y-68237470D01*
X111990000Y-68282530D01*
X112077539Y-68722616D01*
X112326827Y-69095703D01*
X112699914Y-69344991D01*
X113140000Y-69432530D01*
X113580086Y-69344991D01*
X113953173Y-69095703D01*
X114202461Y-68722616D01*
X114290000Y-68282530D01*
X114290000Y-68237470D01*
X114202461Y-67797384D01*
X113953173Y-67424297D01*
X113580086Y-67175009D01*
X113140000Y-67087470D01*
X112699914Y-67175009D01*
X112326827Y-67424297D01*
X112077539Y-67797384D01*
X111990000Y-68237470D01*
X111750000Y-68237470D01*
X111662461Y-67797384D01*
X111413173Y-67424297D01*
X111040086Y-67175009D01*
X110600000Y-67087470D01*
X110159914Y-67175009D01*
X109786827Y-67424297D01*
X109537539Y-67797384D01*
X109450000Y-68237470D01*
X109450000Y-68282530D01*
X109537539Y-68722616D01*
X109786827Y-69095703D01*
X109893187Y-69166770D01*
X108999480Y-70060478D01*
X108968459Y-70106903D01*
X108873173Y-69964297D01*
X108500086Y-69715009D01*
X108060000Y-69627470D01*
X107619914Y-69715009D01*
X107246827Y-69964297D01*
X106997539Y-70337384D01*
X106910000Y-70777470D01*
X106910000Y-70822530D01*
X106997539Y-71262616D01*
X107246827Y-71635703D01*
X107619914Y-71884991D01*
X108060000Y-71972530D01*
X108267754Y-71931205D01*
X106344481Y-73854479D01*
X106313747Y-73900474D01*
X106297817Y-73876633D01*
X105940952Y-73638183D01*
X105520000Y-73554450D01*
X105099048Y-73638183D01*
X104742183Y-73876633D01*
X104503733Y-74233498D01*
X104420000Y-74654450D01*
X104080000Y-74654450D01*
X104000792Y-74256248D01*
X105820520Y-72436521D01*
X105912648Y-72298641D01*
X105912649Y-72298640D01*
X105945000Y-72136000D01*
X105945000Y-71955877D01*
X106370000Y-71955877D01*
X106481173Y-71934958D01*
X106583279Y-71869255D01*
X106651778Y-71769003D01*
X106675877Y-71650000D01*
X106675877Y-69950000D01*
X106654958Y-69838827D01*
X106589255Y-69736721D01*
X106489003Y-69668222D01*
X106370000Y-69644123D01*
X104670000Y-69644123D01*
X104558827Y-69665042D01*
X104456721Y-69730745D01*
X104388222Y-69830997D01*
X104364123Y-69950000D01*
X104364123Y-71650000D01*
X104385042Y-71761173D01*
X104450745Y-71863279D01*
X104550997Y-71931778D01*
X104670000Y-71955877D01*
X105095000Y-71955877D01*
X105095000Y-71959959D01*
X103410438Y-73644521D01*
X103400952Y-73638183D01*
X102980000Y-73554450D01*
X102559048Y-73638183D01*
X102202183Y-73876633D01*
X101963733Y-74233498D01*
X101880000Y-74654450D01*
X100375000Y-74654450D01*
X100375000Y-68095256D01*
X100453757Y-68095256D01*
X100666445Y-68610000D01*
X101059928Y-69004170D01*
X101574301Y-69217757D01*
X102131256Y-69218243D01*
X102646000Y-69005555D01*
X103040170Y-68612072D01*
X103195718Y-68237470D01*
X104370000Y-68237470D01*
X104370000Y-68282530D01*
X104457539Y-68722616D01*
X104706827Y-69095703D01*
X105079914Y-69344991D01*
X105520000Y-69432530D01*
X105960086Y-69344991D01*
X106333173Y-69095703D01*
X106582461Y-68722616D01*
X106670000Y-68282530D01*
X106670000Y-68237470D01*
X106910000Y-68237470D01*
X106910000Y-68282530D01*
X106997539Y-68722616D01*
X107246827Y-69095703D01*
X107619914Y-69344991D01*
X108060000Y-69432530D01*
X108500086Y-69344991D01*
X108873173Y-69095703D01*
X109122461Y-68722616D01*
X109210000Y-68282530D01*
X109210000Y-68237470D01*
X109122461Y-67797384D01*
X108873173Y-67424297D01*
X108500086Y-67175009D01*
X108060000Y-67087470D01*
X107619914Y-67175009D01*
X107246827Y-67424297D01*
X106997539Y-67797384D01*
X106910000Y-68237470D01*
X106670000Y-68237470D01*
X106582461Y-67797384D01*
X106333173Y-67424297D01*
X105960086Y-67175009D01*
X105520000Y-67087470D01*
X105079914Y-67175009D01*
X104706827Y-67424297D01*
X104457539Y-67797384D01*
X104370000Y-68237470D01*
X103195718Y-68237470D01*
X103253757Y-68097699D01*
X103254243Y-67540744D01*
X103041555Y-67026000D01*
X102648072Y-66631830D01*
X102133699Y-66418243D01*
X101576744Y-66417757D01*
X101062000Y-66630445D01*
X100667830Y-67023928D01*
X100454243Y-67538301D01*
X100453757Y-68095256D01*
X100375000Y-68095256D01*
X100375000Y-66375000D01*
X138600000Y-66375000D01*
X138600000Y-70606917D01*
X138600000Y-70606917D01*
G37*
X138600000Y-70606917D02*
X137317562Y-69324479D01*
X137179683Y-69232350D01*
X137152699Y-69226983D01*
X137017042Y-69199999D01*
X132095001Y-69199999D01*
X131932361Y-69232350D01*
X131932359Y-69232351D01*
X131932360Y-69232351D01*
X131794480Y-69324479D01*
X131719480Y-69399480D01*
X131386381Y-69732579D01*
X131360086Y-69715009D01*
X130920000Y-69627470D01*
X130479914Y-69715009D01*
X130106827Y-69964297D01*
X129857539Y-70337384D01*
X129770000Y-70777470D01*
X129770000Y-70822530D01*
X129857539Y-71262616D01*
X130106827Y-71635703D01*
X130479914Y-71884991D01*
X130920000Y-71972530D01*
X131360086Y-71884991D01*
X131733173Y-71635703D01*
X131982461Y-71262616D01*
X132070000Y-70822530D01*
X132070000Y-70777470D01*
X131982659Y-70338381D01*
X132271041Y-70049999D01*
X132589563Y-70049999D01*
X132397539Y-70337384D01*
X132310000Y-70777470D01*
X132310000Y-70822530D01*
X132397539Y-71262616D01*
X132646827Y-71635703D01*
X133019914Y-71884991D01*
X133460000Y-71972530D01*
X133900086Y-71884991D01*
X134273173Y-71635703D01*
X134380551Y-71475000D01*
X135079449Y-71475000D01*
X135186827Y-71635703D01*
X135559914Y-71884991D01*
X136000000Y-71972530D01*
X136440086Y-71884991D01*
X136813173Y-71635703D01*
X136920551Y-71475000D01*
X136922487Y-71475000D01*
X142071447Y-76623960D01*
X142022703Y-76672703D01*
X141876381Y-76891688D01*
X141856158Y-76993359D01*
X141825000Y-77150000D01*
X141825000Y-77594123D01*
X141750000Y-77594123D01*
X141638827Y-77615042D01*
X141536721Y-77680745D01*
X141468222Y-77780997D01*
X141444123Y-77900000D01*
X141444123Y-78225000D01*
X141000000Y-78225000D01*
X140741688Y-78276381D01*
X140522703Y-78422703D01*
X138672703Y-80272703D01*
X138526381Y-80491688D01*
X138512451Y-80561721D01*
X138475000Y-80750000D01*
X138475000Y-82820420D01*
X138408952Y-82660571D01*
X138240317Y-82491641D01*
X138019871Y-82400104D01*
X137781176Y-82399896D01*
X137560571Y-82491048D01*
X137391641Y-82659683D01*
X137300104Y-82880129D01*
X137300003Y-82996001D01*
X136844211Y-82996001D01*
X137016267Y-82738502D01*
X137100000Y-82317550D01*
X137100000Y-82274450D01*
X137016267Y-81853498D01*
X136777817Y-81496633D01*
X136420952Y-81258183D01*
X136000000Y-81174450D01*
X135579048Y-81258183D01*
X135569562Y-81264522D01*
X130219999Y-75914959D01*
X130219999Y-75527362D01*
X130499048Y-75713817D01*
X130920000Y-75797550D01*
X131340952Y-75713817D01*
X131697817Y-75475367D01*
X131936267Y-75118502D01*
X132020000Y-74697550D01*
X132020000Y-74654450D01*
X132360000Y-74654450D01*
X132360000Y-74697550D01*
X132443733Y-75118502D01*
X132682183Y-75475367D01*
X133039048Y-75713817D01*
X133460000Y-75797550D01*
X133880952Y-75713817D01*
X134237817Y-75475367D01*
X134476267Y-75118502D01*
X134560000Y-74697550D01*
X134560000Y-74654450D01*
X134900000Y-74654450D01*
X134900000Y-74697550D01*
X134983733Y-75118502D01*
X135222183Y-75475367D01*
X135579048Y-75713817D01*
X136000000Y-75797550D01*
X136420952Y-75713817D01*
X136777817Y-75475367D01*
X137016267Y-75118502D01*
X137100000Y-74697550D01*
X137100000Y-74654450D01*
X137016267Y-74233498D01*
X136777817Y-73876633D01*
X136420952Y-73638183D01*
X136000000Y-73554450D01*
X135579048Y-73638183D01*
X135222183Y-73876633D01*
X134983733Y-74233498D01*
X134900000Y-74654450D01*
X134560000Y-74654450D01*
X134476267Y-74233498D01*
X134237817Y-73876633D01*
X133880952Y-73638183D01*
X133460000Y-73554450D01*
X133039048Y-73638183D01*
X132682183Y-73876633D01*
X132443733Y-74233498D01*
X132360000Y-74654450D01*
X132020000Y-74654450D01*
X131936267Y-74233498D01*
X131697817Y-73876633D01*
X131340952Y-73638183D01*
X130920000Y-73554450D01*
X130499048Y-73638183D01*
X130219999Y-73824638D01*
X130219999Y-73417080D01*
X130187648Y-73254440D01*
X130187648Y-73254439D01*
X130095520Y-73116560D01*
X128846381Y-71867422D01*
X129193173Y-71635703D01*
X129442461Y-71262616D01*
X129530000Y-70822530D01*
X129530000Y-70777470D01*
X129442461Y-70337384D01*
X129193173Y-69964297D01*
X128820086Y-69715009D01*
X128380000Y-69627470D01*
X127939914Y-69715009D01*
X127566827Y-69964297D01*
X127317539Y-70337384D01*
X127230000Y-70777470D01*
X127230000Y-70822530D01*
X127317539Y-71262616D01*
X127566827Y-71635703D01*
X127939914Y-71884991D01*
X127955000Y-71887992D01*
X127955000Y-72002081D01*
X127972019Y-72087642D01*
X127987351Y-72164722D01*
X128079480Y-72302601D01*
X129369999Y-73593121D01*
X129369999Y-74194185D01*
X129157817Y-73876633D01*
X128800952Y-73638183D01*
X128380000Y-73554450D01*
X127959048Y-73638183D01*
X127602183Y-73876633D01*
X127390001Y-74194185D01*
X127390001Y-71925001D01*
X127382043Y-71884991D01*
X127357650Y-71762360D01*
X127265522Y-71624481D01*
X126902659Y-71261619D01*
X126990000Y-70822530D01*
X126990000Y-70777470D01*
X126902461Y-70337384D01*
X126653173Y-69964297D01*
X126280086Y-69715009D01*
X125840000Y-69627470D01*
X125399914Y-69715009D01*
X125026827Y-69964297D01*
X124777539Y-70337384D01*
X124690000Y-70777470D01*
X124690000Y-70822530D01*
X124777539Y-71262616D01*
X125026827Y-71635703D01*
X125399914Y-71884991D01*
X125840000Y-71972530D01*
X126280086Y-71884991D01*
X126306381Y-71867421D01*
X126540001Y-72101042D01*
X126540001Y-73824638D01*
X126260952Y-73638183D01*
X125840000Y-73554450D01*
X125419048Y-73638183D01*
X125139999Y-73824638D01*
X125139999Y-73417080D01*
X125107648Y-73254440D01*
X125107648Y-73254439D01*
X125015520Y-73116560D01*
X123766381Y-71867422D01*
X124113173Y-71635703D01*
X124362461Y-71262616D01*
X124450000Y-70822530D01*
X124450000Y-70777470D01*
X124362461Y-70337384D01*
X124113173Y-69964297D01*
X123957083Y-69860001D01*
X124664999Y-69860001D01*
X124800656Y-69833017D01*
X124827640Y-69827650D01*
X124965519Y-69735521D01*
X125373619Y-69327421D01*
X125399914Y-69344991D01*
X125840000Y-69432530D01*
X126280086Y-69344991D01*
X126653173Y-69095703D01*
X126902461Y-68722616D01*
X126990000Y-68282530D01*
X126990000Y-68237470D01*
X126902461Y-67797384D01*
X126653173Y-67424297D01*
X126280086Y-67175009D01*
X125840000Y-67087470D01*
X125399914Y-67175009D01*
X125026827Y-67424297D01*
X124777539Y-67797384D01*
X124690000Y-68237470D01*
X124690000Y-68282530D01*
X124777341Y-68721619D01*
X124488959Y-69010001D01*
X124170437Y-69010001D01*
X124362461Y-68722616D01*
X124450000Y-68282530D01*
X124450000Y-68237470D01*
X124362461Y-67797384D01*
X124113173Y-67424297D01*
X123740086Y-67175009D01*
X123300000Y-67087470D01*
X122859914Y-67175009D01*
X122486827Y-67424297D01*
X122237539Y-67797384D01*
X122150000Y-68237470D01*
X122150000Y-68282530D01*
X122237539Y-68722616D01*
X122429563Y-69010001D01*
X121630437Y-69010001D01*
X121822461Y-68722616D01*
X121910000Y-68282530D01*
X121910000Y-68237470D01*
X121822461Y-67797384D01*
X121573173Y-67424297D01*
X121200086Y-67175009D01*
X120760000Y-67087470D01*
X120319914Y-67175009D01*
X119946827Y-67424297D01*
X119697539Y-67797384D01*
X119610000Y-68237470D01*
X119610000Y-68282530D01*
X119697539Y-68722616D01*
X119946827Y-69095703D01*
X119984671Y-69120989D01*
X119964479Y-69134481D01*
X119094481Y-70004479D01*
X119077251Y-70030265D01*
X119033173Y-69964297D01*
X118660086Y-69715009D01*
X118220000Y-69627470D01*
X117779914Y-69715009D01*
X117406827Y-69964297D01*
X117157539Y-70337384D01*
X117070000Y-70777470D01*
X117070000Y-70822530D01*
X117157539Y-71262616D01*
X117406827Y-71635703D01*
X117779914Y-71884991D01*
X118220000Y-71972530D01*
X118660086Y-71884991D01*
X118915888Y-71714070D01*
X116576181Y-74053777D01*
X116457817Y-73876633D01*
X116100952Y-73638183D01*
X115680000Y-73554450D01*
X115259048Y-73638183D01*
X114902183Y-73876633D01*
X114663733Y-74233498D01*
X114580000Y-74654450D01*
X114580000Y-74697550D01*
X114663733Y-75118502D01*
X114902183Y-75475367D01*
X115259048Y-75713817D01*
X115680000Y-75797550D01*
X116100952Y-75713817D01*
X116380001Y-75527362D01*
X116380001Y-77818958D01*
X115598961Y-78599999D01*
X115481176Y-78599896D01*
X115260571Y-78691048D01*
X115091641Y-78859683D01*
X115000104Y-79080129D01*
X114999896Y-79318824D01*
X115091048Y-79539429D01*
X115259683Y-79708359D01*
X115480129Y-79799896D01*
X115718824Y-79800104D01*
X115939429Y-79708952D01*
X116108359Y-79540317D01*
X116199896Y-79319871D01*
X116200000Y-79201041D01*
X117105522Y-78295519D01*
X117197650Y-78157640D01*
X117230001Y-77994999D01*
X117230001Y-74602037D01*
X119695521Y-72136517D01*
X119787650Y-71998638D01*
X119808732Y-71892649D01*
X119820001Y-71835997D01*
X119820001Y-71445894D01*
X119946827Y-71635703D01*
X120319914Y-71884991D01*
X120760000Y-71972530D01*
X121200086Y-71884991D01*
X121226381Y-71867421D01*
X121460001Y-72101042D01*
X121460001Y-73824638D01*
X121180952Y-73638183D01*
X120760000Y-73554450D01*
X120339048Y-73638183D01*
X119982183Y-73876633D01*
X119743733Y-74233498D01*
X119660000Y-74654450D01*
X119660000Y-74697550D01*
X119743733Y-75118502D01*
X119982183Y-75475367D01*
X120339048Y-75713817D01*
X120760000Y-75797550D01*
X121180952Y-75713817D01*
X121460001Y-75527362D01*
X121460001Y-75801001D01*
X121473527Y-75869000D01*
X121492352Y-75963642D01*
X121584481Y-76101521D01*
X127279480Y-81796521D01*
X127279483Y-81796523D01*
X127359208Y-81876248D01*
X127280000Y-82274450D01*
X127280000Y-82317550D01*
X127363733Y-82738502D01*
X127535789Y-82996001D01*
X126684211Y-82996001D01*
X126856267Y-82738502D01*
X126940000Y-82317550D01*
X126940000Y-82274450D01*
X126856267Y-81853498D01*
X126617817Y-81496633D01*
X126260952Y-81258183D01*
X125840000Y-81174450D01*
X125419048Y-81258183D01*
X125062183Y-81496633D01*
X124943819Y-81673777D01*
X124140521Y-80870479D01*
X124002642Y-80778350D01*
X123975658Y-80772983D01*
X123840001Y-80745999D01*
X111725001Y-80745999D01*
X111562360Y-80778350D01*
X111424481Y-80870478D01*
X111030438Y-81264521D01*
X111020952Y-81258183D01*
X110600000Y-81174450D01*
X110179048Y-81258183D01*
X109822183Y-81496633D01*
X109583733Y-81853498D01*
X109500000Y-82274450D01*
X109500000Y-82317550D01*
X109583733Y-82738502D01*
X109822183Y-83095367D01*
X110179048Y-83333817D01*
X110600000Y-83417550D01*
X111020952Y-83333817D01*
X111377817Y-83095367D01*
X111616267Y-82738502D01*
X111700000Y-82317550D01*
X111700000Y-82274450D01*
X111620792Y-81876248D01*
X111901042Y-81595999D01*
X112295789Y-81595999D01*
X112123733Y-81853498D01*
X112040000Y-82274450D01*
X112040000Y-82317550D01*
X112123733Y-82738502D01*
X112362183Y-83095367D01*
X112719048Y-83333817D01*
X113140000Y-83417550D01*
X113560952Y-83333817D01*
X113917817Y-83095367D01*
X114156267Y-82738502D01*
X114240000Y-82317550D01*
X114240000Y-82274450D01*
X114156267Y-81853498D01*
X113984211Y-81595999D01*
X114835789Y-81595999D01*
X114663733Y-81853498D01*
X114580000Y-82274450D01*
X114580000Y-82317550D01*
X114663733Y-82738502D01*
X114902183Y-83095367D01*
X115259048Y-83333817D01*
X115680000Y-83417550D01*
X116100952Y-83333817D01*
X116457817Y-83095367D01*
X116696267Y-82738502D01*
X116780000Y-82317550D01*
X116780000Y-82274450D01*
X116696267Y-81853498D01*
X116524211Y-81595999D01*
X117375789Y-81595999D01*
X117203733Y-81853498D01*
X117120000Y-82274450D01*
X117120000Y-82317550D01*
X117140549Y-82420857D01*
X114276406Y-85285000D01*
X107355877Y-85285000D01*
X107355877Y-85110000D01*
X107334958Y-84998827D01*
X107269255Y-84896721D01*
X107169003Y-84828222D01*
X107050000Y-84804123D01*
X105350000Y-84804123D01*
X105238827Y-84825042D01*
X105136721Y-84890745D01*
X105068222Y-84990997D01*
X105044123Y-85110000D01*
X105044123Y-86810000D01*
X105065042Y-86921173D01*
X105130745Y-87023279D01*
X105230997Y-87091778D01*
X105350000Y-87115877D01*
X107050000Y-87115877D01*
X107161173Y-87094958D01*
X107263279Y-87029255D01*
X107331778Y-86929003D01*
X107355877Y-86810000D01*
X107355877Y-86635000D01*
X114556000Y-86635000D01*
X114814312Y-86583619D01*
X115033297Y-86437297D01*
X118080744Y-83389850D01*
X118220000Y-83417550D01*
X118359256Y-83389850D01*
X121326557Y-86357151D01*
X121309774Y-86350182D01*
X120892058Y-86349818D01*
X120506000Y-86509334D01*
X120210372Y-86804446D01*
X120050182Y-87190226D01*
X120049818Y-87607942D01*
X120209334Y-87994000D01*
X120504446Y-88289628D01*
X120890226Y-88449818D01*
X121307942Y-88450182D01*
X121694000Y-88290666D01*
X121989628Y-87995554D01*
X122149818Y-87609774D01*
X122150182Y-87192058D01*
X122009789Y-86852282D01*
X122124000Y-86875000D01*
X124999449Y-86875000D01*
X125106827Y-87035703D01*
X125479914Y-87284991D01*
X125920000Y-87372530D01*
X126360086Y-87284991D01*
X126733173Y-87035703D01*
X126982461Y-86662616D01*
X127070000Y-86222530D01*
X127070000Y-86177470D01*
X126982461Y-85737384D01*
X126733173Y-85364297D01*
X126598321Y-85274192D01*
X127047513Y-84825000D01*
X129233959Y-84825000D01*
X128926381Y-85132579D01*
X128900086Y-85115009D01*
X128460000Y-85027470D01*
X128019914Y-85115009D01*
X127646827Y-85364297D01*
X127397539Y-85737384D01*
X127310000Y-86177470D01*
X127310000Y-86222530D01*
X127397539Y-86662616D01*
X127646827Y-87035703D01*
X128019914Y-87284991D01*
X128460000Y-87372530D01*
X128900086Y-87284991D01*
X129273173Y-87035703D01*
X129363846Y-86900000D01*
X133594123Y-86900000D01*
X133594123Y-88500000D01*
X133615042Y-88611173D01*
X133680745Y-88713279D01*
X133780997Y-88781778D01*
X133900000Y-88805877D01*
X135500000Y-88805877D01*
X135611173Y-88784958D01*
X135713279Y-88719255D01*
X135781778Y-88619003D01*
X135805877Y-88500000D01*
X135805877Y-86900000D01*
X135784958Y-86788827D01*
X135719255Y-86686721D01*
X135619003Y-86618222D01*
X135500000Y-86594123D01*
X133900000Y-86594123D01*
X133788827Y-86615042D01*
X133686721Y-86680745D01*
X133618222Y-86780997D01*
X133594123Y-86900000D01*
X129363846Y-86900000D01*
X129522461Y-86662616D01*
X129610000Y-86222530D01*
X129610000Y-86177470D01*
X129522659Y-85738381D01*
X129986031Y-85275010D01*
X136934840Y-85275010D01*
X139348951Y-87689122D01*
X139486830Y-87781250D01*
X139649471Y-87813601D01*
X142069478Y-87813601D01*
X141914415Y-87917211D01*
X141662178Y-88294710D01*
X141573604Y-88740000D01*
X141662178Y-89185290D01*
X141914415Y-89562789D01*
X142291914Y-89815026D01*
X142737204Y-89903600D01*
X142782796Y-89903600D01*
X143228086Y-89815026D01*
X143605585Y-89562789D01*
X143857822Y-89185290D01*
X143946396Y-88740000D01*
X143857822Y-88294710D01*
X143605585Y-87917211D01*
X143450522Y-87813601D01*
X144111399Y-87813601D01*
X144247056Y-87786617D01*
X144274040Y-87781250D01*
X144411919Y-87689121D01*
X144736921Y-87364120D01*
X144736923Y-87364117D01*
X144828377Y-87272663D01*
X144831914Y-87275026D01*
X145277204Y-87363600D01*
X145322796Y-87363600D01*
X145768086Y-87275026D01*
X146124990Y-87036550D01*
X146124990Y-87313969D01*
X145771622Y-87667337D01*
X145768086Y-87664974D01*
X145322796Y-87576400D01*
X145277204Y-87576400D01*
X144831914Y-87664974D01*
X144454415Y-87917211D01*
X144202178Y-88294710D01*
X144113604Y-88740000D01*
X144202178Y-89185290D01*
X144454415Y-89562789D01*
X144831914Y-89815026D01*
X145277204Y-89903600D01*
X145322796Y-89903600D01*
X145768086Y-89815026D01*
X146145585Y-89562789D01*
X146397822Y-89185290D01*
X146486396Y-88740000D01*
X146653604Y-88740000D01*
X146742178Y-89185290D01*
X146994415Y-89562789D01*
X147371914Y-89815026D01*
X147817204Y-89903600D01*
X147862796Y-89903600D01*
X148308086Y-89815026D01*
X148685585Y-89562789D01*
X148937822Y-89185290D01*
X149026396Y-88740000D01*
X148937822Y-88294710D01*
X148685585Y-87917211D01*
X148308086Y-87664974D01*
X147862796Y-87576400D01*
X147817204Y-87576400D01*
X147371914Y-87664974D01*
X146994415Y-87917211D01*
X146742178Y-88294710D01*
X146653604Y-88740000D01*
X146486396Y-88740000D01*
X146397822Y-88294710D01*
X146377197Y-88263843D01*
X146789122Y-87851919D01*
X146789124Y-87851916D01*
X146850510Y-87790530D01*
X146942639Y-87652651D01*
X146948006Y-87625667D01*
X146974990Y-87490010D01*
X146974990Y-86993717D01*
X146994415Y-87022789D01*
X147371914Y-87275026D01*
X147817204Y-87363600D01*
X147862796Y-87363600D01*
X148308086Y-87275026D01*
X148685585Y-87022789D01*
X148937822Y-86645290D01*
X149026396Y-86200000D01*
X148937822Y-85754710D01*
X148725000Y-85436200D01*
X148725000Y-84866061D01*
X148793359Y-84853198D01*
X148896554Y-84786794D01*
X148965784Y-84685473D01*
X148990140Y-84565200D01*
X148990140Y-84057200D01*
X148970321Y-83951870D01*
X148990140Y-83854000D01*
X148990140Y-83346000D01*
X148968998Y-83233641D01*
X148902594Y-83130446D01*
X148801273Y-83061216D01*
X148681000Y-83036860D01*
X147919000Y-83036860D01*
X147806641Y-83058002D01*
X147703446Y-83124406D01*
X147668876Y-83175000D01*
X147201042Y-83175000D01*
X146725522Y-82699480D01*
X146587643Y-82607351D01*
X146560659Y-82601984D01*
X146425002Y-82575000D01*
X141423530Y-82575000D01*
X141340317Y-82491641D01*
X141119871Y-82400104D01*
X140881176Y-82399896D01*
X140660571Y-82491048D01*
X140525010Y-82626372D01*
X140525010Y-81950000D01*
X143544123Y-81950000D01*
X143544123Y-82025000D01*
X143565042Y-82136173D01*
X143630745Y-82238279D01*
X143730997Y-82306778D01*
X143850000Y-82330877D01*
X145350000Y-82330877D01*
X145461173Y-82309958D01*
X145563279Y-82244255D01*
X145631778Y-82144003D01*
X145655877Y-82025000D01*
X145655877Y-80775000D01*
X145634958Y-80663827D01*
X145569255Y-80561721D01*
X145475000Y-80497320D01*
X145475000Y-80205877D01*
X145550000Y-80205877D01*
X145661173Y-80184958D01*
X145763279Y-80119255D01*
X145831778Y-80019003D01*
X145855877Y-79900000D01*
X145855877Y-77900000D01*
X145834958Y-77788827D01*
X145769255Y-77686721D01*
X145669003Y-77618222D01*
X145550000Y-77594123D01*
X145361200Y-77594123D01*
X145361200Y-76945887D01*
X145374340Y-76881000D01*
X145374340Y-76119000D01*
X145353198Y-76006641D01*
X145286794Y-75903446D01*
X145236172Y-75868857D01*
X145203849Y-75706360D01*
X145203849Y-75706359D01*
X145111720Y-75568480D01*
X144642720Y-75099480D01*
X144504841Y-75007351D01*
X144477857Y-75001984D01*
X144342200Y-74975000D01*
X142968084Y-74975000D01*
X139593084Y-71600000D01*
X142594123Y-71600000D01*
X142594123Y-73600000D01*
X142615042Y-73711173D01*
X142680745Y-73813279D01*
X142780997Y-73881778D01*
X142900000Y-73905877D01*
X146700000Y-73905877D01*
X146811173Y-73884958D01*
X146913279Y-73819255D01*
X146981778Y-73719003D01*
X147005877Y-73600000D01*
X147005877Y-71600000D01*
X146984958Y-71488827D01*
X146919255Y-71386721D01*
X146819003Y-71318222D01*
X146700000Y-71294123D01*
X142900000Y-71294123D01*
X142788827Y-71315042D01*
X142686721Y-71380745D01*
X142618222Y-71480997D01*
X142594123Y-71600000D01*
X139593084Y-71600000D01*
X138893083Y-70900000D01*
X149625000Y-70900000D01*
X149625000Y-90625000D01*
X100375000Y-90625000D01*
X100375000Y-89431256D01*
X100453757Y-89431256D01*
X100666445Y-89946000D01*
X101059928Y-90340170D01*
X101574301Y-90553757D01*
X102131256Y-90554243D01*
X102646000Y-90341555D01*
X103040170Y-89948072D01*
X103253757Y-89433699D01*
X103254243Y-88876744D01*
X103196770Y-88737647D01*
X107959793Y-88737647D01*
X108142097Y-89178857D01*
X108479367Y-89516717D01*
X108920258Y-89699791D01*
X109397647Y-89700207D01*
X109838857Y-89517903D01*
X110176717Y-89180633D01*
X110359791Y-88739742D01*
X110359810Y-88717470D01*
X124770000Y-88717470D01*
X124770000Y-88762530D01*
X124857539Y-89202616D01*
X125106827Y-89575703D01*
X125479914Y-89824991D01*
X125920000Y-89912530D01*
X126360086Y-89824991D01*
X126733173Y-89575703D01*
X126982461Y-89202616D01*
X127070000Y-88762530D01*
X127070000Y-88717470D01*
X127310000Y-88717470D01*
X127310000Y-88762530D01*
X127397539Y-89202616D01*
X127646827Y-89575703D01*
X128019914Y-89824991D01*
X128460000Y-89912530D01*
X128900086Y-89824991D01*
X129273173Y-89575703D01*
X129522461Y-89202616D01*
X129610000Y-88762530D01*
X129610000Y-88717470D01*
X129850000Y-88717470D01*
X129850000Y-88762530D01*
X129937539Y-89202616D01*
X130186827Y-89575703D01*
X130559914Y-89824991D01*
X131000000Y-89912530D01*
X131440086Y-89824991D01*
X131813173Y-89575703D01*
X132062461Y-89202616D01*
X132150000Y-88762530D01*
X132150000Y-88717470D01*
X132062461Y-88277384D01*
X131813173Y-87904297D01*
X131440086Y-87655009D01*
X131000000Y-87567470D01*
X130559914Y-87655009D01*
X130186827Y-87904297D01*
X129937539Y-88277384D01*
X129850000Y-88717470D01*
X129610000Y-88717470D01*
X129522461Y-88277384D01*
X129273173Y-87904297D01*
X128900086Y-87655009D01*
X128460000Y-87567470D01*
X128019914Y-87655009D01*
X127646827Y-87904297D01*
X127397539Y-88277384D01*
X127310000Y-88717470D01*
X127070000Y-88717470D01*
X126982461Y-88277384D01*
X126733173Y-87904297D01*
X126360086Y-87655009D01*
X125920000Y-87567470D01*
X125479914Y-87655009D01*
X125106827Y-87904297D01*
X124857539Y-88277384D01*
X124770000Y-88717470D01*
X110359810Y-88717470D01*
X110360207Y-88262353D01*
X110177903Y-87821143D01*
X109965075Y-87607942D01*
X115049818Y-87607942D01*
X115209334Y-87994000D01*
X115504446Y-88289628D01*
X115890226Y-88449818D01*
X116307942Y-88450182D01*
X116694000Y-88290666D01*
X116989628Y-87995554D01*
X117149818Y-87609774D01*
X117150182Y-87192058D01*
X116990666Y-86806000D01*
X116695554Y-86510372D01*
X116309774Y-86350182D01*
X115892058Y-86349818D01*
X115506000Y-86509334D01*
X115210372Y-86804446D01*
X115050182Y-87190226D01*
X115049818Y-87607942D01*
X109965075Y-87607942D01*
X109840633Y-87483283D01*
X109399742Y-87300209D01*
X108922353Y-87299793D01*
X108481143Y-87482097D01*
X108143283Y-87819367D01*
X107960209Y-88260258D01*
X107959793Y-88737647D01*
X103196770Y-88737647D01*
X103041555Y-88362000D01*
X102648072Y-87967830D01*
X102133699Y-87754243D01*
X101576744Y-87753757D01*
X101062000Y-87966445D01*
X100667830Y-88359928D01*
X100454243Y-88874301D01*
X100453757Y-89431256D01*
X100375000Y-89431256D01*
X100375000Y-81496000D01*
X101874123Y-81496000D01*
X101874123Y-83096000D01*
X101895042Y-83207173D01*
X101960745Y-83309279D01*
X102060997Y-83377778D01*
X102180000Y-83401877D01*
X103780000Y-83401877D01*
X103891173Y-83380958D01*
X103993279Y-83315255D01*
X104061778Y-83215003D01*
X104085877Y-83096000D01*
X104085877Y-81496000D01*
X104064958Y-81384827D01*
X103999255Y-81282721D01*
X103899003Y-81214222D01*
X103780000Y-81190123D01*
X102180000Y-81190123D01*
X102068827Y-81211042D01*
X101966721Y-81276745D01*
X101898222Y-81376997D01*
X101874123Y-81496000D01*
X100375000Y-81496000D01*
X100375000Y-74654450D01*
X101880000Y-74654450D01*
X101880000Y-74697550D01*
X101963733Y-75118502D01*
X102202183Y-75475367D01*
X102559048Y-75713817D01*
X102980000Y-75797550D01*
X103400952Y-75713817D01*
X103757817Y-75475367D01*
X103996267Y-75118502D01*
X104080000Y-74697550D01*
X104080000Y-74654450D01*
X104420000Y-74654450D01*
X104420000Y-74697550D01*
X104503733Y-75118502D01*
X104742183Y-75475367D01*
X105099048Y-75713817D01*
X105520000Y-75797550D01*
X105940952Y-75713817D01*
X106220001Y-75527362D01*
X106220001Y-80994958D01*
X106019481Y-81195479D01*
X106019478Y-81195481D01*
X105950438Y-81264521D01*
X105940952Y-81258183D01*
X105520000Y-81174450D01*
X105099048Y-81258183D01*
X104742183Y-81496633D01*
X104503733Y-81853498D01*
X104420000Y-82274450D01*
X104420000Y-82317550D01*
X104503733Y-82738502D01*
X104742183Y-83095367D01*
X105099048Y-83333817D01*
X105520000Y-83417550D01*
X105940952Y-83333817D01*
X106297817Y-83095367D01*
X106536267Y-82738502D01*
X106620000Y-82317550D01*
X106620000Y-82274450D01*
X106960000Y-82274450D01*
X106960000Y-82317550D01*
X107043733Y-82738502D01*
X107282183Y-83095367D01*
X107639048Y-83333817D01*
X108060000Y-83417550D01*
X108480952Y-83333817D01*
X108837817Y-83095367D01*
X109076267Y-82738502D01*
X109160000Y-82317550D01*
X109160000Y-82274450D01*
X109076267Y-81853498D01*
X108837817Y-81496633D01*
X108480952Y-81258183D01*
X108060000Y-81174450D01*
X107639048Y-81258183D01*
X107282183Y-81496633D01*
X107043733Y-81853498D01*
X106960000Y-82274450D01*
X106620000Y-82274450D01*
X106540792Y-81876249D01*
X106620519Y-81796522D01*
X106620521Y-81796519D01*
X106945521Y-81471520D01*
X107037649Y-81333640D01*
X107037650Y-81333639D01*
X107070001Y-81170999D01*
X107070001Y-75157815D01*
X107282183Y-75475367D01*
X107639048Y-75713817D01*
X108060000Y-75797550D01*
X108480952Y-75713817D01*
X108837817Y-75475367D01*
X109076267Y-75118502D01*
X109160000Y-74697550D01*
X109160000Y-74654450D01*
X109500000Y-74654450D01*
X109500000Y-74697550D01*
X109583733Y-75118502D01*
X109822183Y-75475367D01*
X110179048Y-75713817D01*
X110600000Y-75797550D01*
X111020952Y-75713817D01*
X111377817Y-75475367D01*
X111616267Y-75118502D01*
X111700000Y-74697550D01*
X111700000Y-74654450D01*
X112040000Y-74654450D01*
X112040000Y-74697550D01*
X112123733Y-75118502D01*
X112362183Y-75475367D01*
X112719048Y-75713817D01*
X113140000Y-75797550D01*
X113560952Y-75713817D01*
X113917817Y-75475367D01*
X114156267Y-75118502D01*
X114240000Y-74697550D01*
X114240000Y-74654450D01*
X114156267Y-74233498D01*
X113917817Y-73876633D01*
X113560952Y-73638183D01*
X113140000Y-73554450D01*
X112719048Y-73638183D01*
X112362183Y-73876633D01*
X112123733Y-74233498D01*
X112040000Y-74654450D01*
X111700000Y-74654450D01*
X111616267Y-74233498D01*
X111377817Y-73876633D01*
X111020952Y-73638183D01*
X110600000Y-73554450D01*
X110179048Y-73638183D01*
X109822183Y-73876633D01*
X109583733Y-74233498D01*
X109500000Y-74654450D01*
X109160000Y-74654450D01*
X109076267Y-74233498D01*
X108837817Y-73876633D01*
X108480952Y-73638183D01*
X108060000Y-73554450D01*
X107793600Y-73607441D01*
X109600521Y-71800520D01*
X109692649Y-71662641D01*
X109718383Y-71533268D01*
X109786827Y-71635703D01*
X110159914Y-71884991D01*
X110600000Y-71972530D01*
X111040086Y-71884991D01*
X111413173Y-71635703D01*
X111662461Y-71262616D01*
X111750000Y-70822530D01*
X111750000Y-70777470D01*
X111990000Y-70777470D01*
X111990000Y-70822530D01*
X112077539Y-71262616D01*
X112326827Y-71635703D01*
X112699914Y-71884991D01*
X113140000Y-71972530D01*
X113580086Y-71884991D01*
X113953173Y-71635703D01*
X114202461Y-71262616D01*
X114290000Y-70822530D01*
X114290000Y-70777470D01*
X114530000Y-70777470D01*
X114530000Y-70822530D01*
X114617539Y-71262616D01*
X114866827Y-71635703D01*
X115239914Y-71884991D01*
X115680000Y-71972530D01*
X116120086Y-71884991D01*
X116493173Y-71635703D01*
X116742461Y-71262616D01*
X116830000Y-70822530D01*
X116830000Y-70777470D01*
X116742461Y-70337384D01*
X116493173Y-69964297D01*
X116120086Y-69715009D01*
X115680000Y-69627470D01*
X115239914Y-69715009D01*
X114866827Y-69964297D01*
X114617539Y-70337384D01*
X114530000Y-70777470D01*
X114290000Y-70777470D01*
X114202461Y-70337384D01*
X113953173Y-69964297D01*
X113580086Y-69715009D01*
X113140000Y-69627470D01*
X112699914Y-69715009D01*
X112326827Y-69964297D01*
X112077539Y-70337384D01*
X111990000Y-70777470D01*
X111750000Y-70777470D01*
X111662461Y-70337384D01*
X111413173Y-69964297D01*
X111040086Y-69715009D01*
X110628833Y-69633205D01*
X110886497Y-69375542D01*
X111040086Y-69344991D01*
X111413173Y-69095703D01*
X111662461Y-68722616D01*
X111750000Y-68282530D01*
X111750000Y-68237470D01*
X111990000Y-68237470D01*
X111990000Y-68282530D01*
X112077539Y-68722616D01*
X112326827Y-69095703D01*
X112699914Y-69344991D01*
X113140000Y-69432530D01*
X113580086Y-69344991D01*
X113953173Y-69095703D01*
X114202461Y-68722616D01*
X114290000Y-68282530D01*
X114290000Y-68237470D01*
X114202461Y-67797384D01*
X113953173Y-67424297D01*
X113580086Y-67175009D01*
X113140000Y-67087470D01*
X112699914Y-67175009D01*
X112326827Y-67424297D01*
X112077539Y-67797384D01*
X111990000Y-68237470D01*
X111750000Y-68237470D01*
X111662461Y-67797384D01*
X111413173Y-67424297D01*
X111040086Y-67175009D01*
X110600000Y-67087470D01*
X110159914Y-67175009D01*
X109786827Y-67424297D01*
X109537539Y-67797384D01*
X109450000Y-68237470D01*
X109450000Y-68282530D01*
X109537539Y-68722616D01*
X109786827Y-69095703D01*
X109893187Y-69166770D01*
X108999480Y-70060478D01*
X108968459Y-70106903D01*
X108873173Y-69964297D01*
X108500086Y-69715009D01*
X108060000Y-69627470D01*
X107619914Y-69715009D01*
X107246827Y-69964297D01*
X106997539Y-70337384D01*
X106910000Y-70777470D01*
X106910000Y-70822530D01*
X106997539Y-71262616D01*
X107246827Y-71635703D01*
X107619914Y-71884991D01*
X108060000Y-71972530D01*
X108267754Y-71931205D01*
X106344481Y-73854479D01*
X106313747Y-73900474D01*
X106297817Y-73876633D01*
X105940952Y-73638183D01*
X105520000Y-73554450D01*
X105099048Y-73638183D01*
X104742183Y-73876633D01*
X104503733Y-74233498D01*
X104420000Y-74654450D01*
X104080000Y-74654450D01*
X104000792Y-74256248D01*
X105820520Y-72436521D01*
X105912648Y-72298641D01*
X105912649Y-72298640D01*
X105945000Y-72136000D01*
X105945000Y-71955877D01*
X106370000Y-71955877D01*
X106481173Y-71934958D01*
X106583279Y-71869255D01*
X106651778Y-71769003D01*
X106675877Y-71650000D01*
X106675877Y-69950000D01*
X106654958Y-69838827D01*
X106589255Y-69736721D01*
X106489003Y-69668222D01*
X106370000Y-69644123D01*
X104670000Y-69644123D01*
X104558827Y-69665042D01*
X104456721Y-69730745D01*
X104388222Y-69830997D01*
X104364123Y-69950000D01*
X104364123Y-71650000D01*
X104385042Y-71761173D01*
X104450745Y-71863279D01*
X104550997Y-71931778D01*
X104670000Y-71955877D01*
X105095000Y-71955877D01*
X105095000Y-71959959D01*
X103410438Y-73644521D01*
X103400952Y-73638183D01*
X102980000Y-73554450D01*
X102559048Y-73638183D01*
X102202183Y-73876633D01*
X101963733Y-74233498D01*
X101880000Y-74654450D01*
X100375000Y-74654450D01*
X100375000Y-68095256D01*
X100453757Y-68095256D01*
X100666445Y-68610000D01*
X101059928Y-69004170D01*
X101574301Y-69217757D01*
X102131256Y-69218243D01*
X102646000Y-69005555D01*
X103040170Y-68612072D01*
X103195718Y-68237470D01*
X104370000Y-68237470D01*
X104370000Y-68282530D01*
X104457539Y-68722616D01*
X104706827Y-69095703D01*
X105079914Y-69344991D01*
X105520000Y-69432530D01*
X105960086Y-69344991D01*
X106333173Y-69095703D01*
X106582461Y-68722616D01*
X106670000Y-68282530D01*
X106670000Y-68237470D01*
X106910000Y-68237470D01*
X106910000Y-68282530D01*
X106997539Y-68722616D01*
X107246827Y-69095703D01*
X107619914Y-69344991D01*
X108060000Y-69432530D01*
X108500086Y-69344991D01*
X108873173Y-69095703D01*
X109122461Y-68722616D01*
X109210000Y-68282530D01*
X109210000Y-68237470D01*
X109122461Y-67797384D01*
X108873173Y-67424297D01*
X108500086Y-67175009D01*
X108060000Y-67087470D01*
X107619914Y-67175009D01*
X107246827Y-67424297D01*
X106997539Y-67797384D01*
X106910000Y-68237470D01*
X106670000Y-68237470D01*
X106582461Y-67797384D01*
X106333173Y-67424297D01*
X105960086Y-67175009D01*
X105520000Y-67087470D01*
X105079914Y-67175009D01*
X104706827Y-67424297D01*
X104457539Y-67797384D01*
X104370000Y-68237470D01*
X103195718Y-68237470D01*
X103253757Y-68097699D01*
X103254243Y-67540744D01*
X103041555Y-67026000D01*
X102648072Y-66631830D01*
X102133699Y-66418243D01*
X101576744Y-66417757D01*
X101062000Y-66630445D01*
X100667830Y-67023928D01*
X100454243Y-67538301D01*
X100453757Y-68095256D01*
X100375000Y-68095256D01*
X100375000Y-66375000D01*
X138600000Y-66375000D01*
X138600000Y-70606917D01*
G36*
X122283733Y-81853498D02*
X122200000Y-82274450D01*
X122200000Y-82317550D01*
X122283733Y-82738502D01*
X122522183Y-83095367D01*
X122879048Y-83333817D01*
X123300000Y-83417550D01*
X123720952Y-83333817D01*
X124077817Y-83095367D01*
X124289999Y-82777815D01*
X124289999Y-82836001D01*
X124316983Y-82971658D01*
X124322350Y-82998642D01*
X124414479Y-83136521D01*
X124999479Y-83721521D01*
X125137358Y-83813650D01*
X125299999Y-83846001D01*
X126117324Y-83846001D01*
X125442703Y-84520622D01*
X125296381Y-84739607D01*
X125279387Y-84825042D01*
X125245000Y-84997919D01*
X125245000Y-85271973D01*
X125106827Y-85364297D01*
X124999449Y-85525000D01*
X122403594Y-85525000D01*
X119299451Y-82420857D01*
X119320000Y-82317550D01*
X119320000Y-82274450D01*
X119236267Y-81853498D01*
X119064211Y-81595999D01*
X122455789Y-81595999D01*
X122283733Y-81853498D01*
X122283733Y-81853498D01*
G37*
X122283733Y-81853498D02*
X122200000Y-82274450D01*
X122200000Y-82317550D01*
X122283733Y-82738502D01*
X122522183Y-83095367D01*
X122879048Y-83333817D01*
X123300000Y-83417550D01*
X123720952Y-83333817D01*
X124077817Y-83095367D01*
X124289999Y-82777815D01*
X124289999Y-82836001D01*
X124316983Y-82971658D01*
X124322350Y-82998642D01*
X124414479Y-83136521D01*
X124999479Y-83721521D01*
X125137358Y-83813650D01*
X125299999Y-83846001D01*
X126117324Y-83846001D01*
X125442703Y-84520622D01*
X125296381Y-84739607D01*
X125279387Y-84825042D01*
X125245000Y-84997919D01*
X125245000Y-85271973D01*
X125106827Y-85364297D01*
X124999449Y-85525000D01*
X122403594Y-85525000D01*
X119299451Y-82420857D01*
X119320000Y-82317550D01*
X119320000Y-82274450D01*
X119236267Y-81853498D01*
X119064211Y-81595999D01*
X122455789Y-81595999D01*
X122283733Y-81853498D01*
M02*
